<svg width="47" height="29" viewBox="0 0 47 29" fill="none" xmlns="http://www.w3.org/2000/svg">
<path d="M23.3646 3.01917C24.2324 3.01917 25.1003 3.08865 25.9335 3.15813C25.9335 3.12339 25.9335 3.08865 25.9335 3.05391C25.9335 1.62957 24.7532 0.44841 23.3298 0.44841C21.9065 0.44841 20.7262 1.62957 20.7262 3.05391C20.7262 3.08865 20.7262 3.12339 20.7262 3.15813C21.6288 3.05391 22.4967 3.01917 23.3646 3.01917Z" fill="#4EC41F"/>
<path d="M44.6452 25.6349H43.8815H37.9799C37.7369 25.6349 37.5286 25.5306 37.3897 25.3569C37.2856 25.218 37.2161 25.0443 37.2161 24.8706C37.2161 24.4537 37.5633 24.1063 37.9799 24.1063H43.083C42.5623 14.5528 36.0358 5.65939 25.4129 4.65194C24.7533 4.58246 24.059 4.54772 23.3647 4.54772C22.6704 4.54772 21.9761 4.58246 21.3165 4.65194C10.6242 5.65939 4.23655 14.5876 3.71582 24.1063H8.05524C8.47183 24.1063 8.81898 24.4537 8.81898 24.8706C8.81898 25.079 8.74955 25.218 8.64541 25.3569C8.50655 25.5306 8.29825 25.6349 8.05524 25.6349H2.88266H2.11892H0.313721L1.49404 28.7962H12.8113H15.0677H33.5363H34.7861H45.5131L46.381 25.6349H44.6452Z" fill="#4EC41F"/>
</svg>
