<svg width="40" height="42" viewBox="0 0 40 42" fill="none" xmlns="http://www.w3.org/2000/svg">
<path d="M18.6558 32.4953L14.0732 39.5121C13.5323 40.335 12.6883 40.9073 11.7279 41.1029C11.4997 41.1487 11.2679 41.1719 11.0351 41.1723C10.3572 41.1737 9.69449 40.9699 9.13332 40.5871C8.33153 40.0472 7.79128 39.1935 7.64436 38.2337C7.49209 37.2771 7.73629 36.2993 8.31979 35.5293L14.6237 27.2945C14.9151 26.9149 15.4564 26.8452 15.833 27.1383C16.2096 27.4315 16.2792 27.977 15.9881 28.3563L9.68418 36.591H9.68383C9.38817 36.9836 9.26679 37.4819 9.34842 37.9677C9.4297 38.4536 9.7069 38.884 10.1144 39.1567C10.4934 39.412 10.9587 39.5028 11.4052 39.408C11.9142 39.3054 12.3617 39.003 12.649 38.5672L17.2144 31.5418C17.4792 31.1511 18.0063 31.0463 18.3985 31.3066C18.7907 31.5669 18.9035 32.0959 18.6515 32.4952L18.6558 32.4953ZM36.7637 1.42883C35.1587 0.275894 32.977 0.18941 30.6277 1.19038H30.6274C28.2046 2.30543 26.1293 4.06457 24.6248 6.27855C22.4473 9.35582 21.4275 12.8792 21.901 15.7048C22.0057 16.359 21.9479 17.029 21.7331 17.6552C21.5798 18.1085 21.8205 18.6015 22.2709 18.7559C22.7213 18.9104 23.2107 18.6676 23.364 18.2143C23.6703 17.3163 23.752 16.3557 23.6004 15.4187C23.2089 13.0697 24.1381 9.95343 26.0274 7.28369C27.3431 5.33291 29.1607 3.77922 31.2857 2.789C33.0671 2.0347 34.6508 2.05222 35.7522 2.84549C36.8539 3.63876 37.3916 5.13808 37.2624 7.07999H37.2627C37.0278 9.42695 36.1638 11.6652 34.7626 13.5552C32.8906 16.2292 30.2485 18.1318 27.9163 18.5218C27.0056 18.6798 26.1463 19.0577 25.4119 19.6229C25.2114 19.777 25.0204 19.9435 24.8398 20.1212C24.5267 20.4598 24.5324 20.9863 24.8533 21.3173C25.1741 21.6487 25.6966 21.6677 26.0401 21.3606C26.176 21.2319 26.3198 21.1118 26.4706 21.001C26.9814 20.6059 27.5791 20.3414 28.2134 20.2295C31.0234 19.7573 33.9966 17.6291 36.1784 14.5605C37.7646 12.4077 38.7389 9.86088 38.9969 7.1926C39.1517 4.63122 38.3602 2.58096 36.7637 1.42849L36.7637 1.42883ZM17.9807 17.1918C17.9409 17.1206 17.9409 17.0334 17.9807 16.9622C18.7434 15.2255 18.5408 13.2125 17.4472 11.6661L9.7619 0.865192C9.63128 0.672502 9.42897 0.540946 9.20075 0.500194C8.97253 0.459797 8.73792 0.513421 8.54945 0.649623C8.36098 0.785471 8.23534 0.9921 8.20019 1.22303C8.16505 1.45361 8.22397 1.68884 8.36311 1.87509L16.0399 12.676C16.781 13.7227 16.9183 15.0854 16.4012 16.2605C16.256 16.5819 16.2 16.9369 16.2386 17.2876C16.2773 17.6386 16.4094 17.9725 16.6209 18.2542L30.8209 36.7517V36.7513C31.1041 37.1092 31.229 37.5682 31.1669 38.0211C31.1045 38.4744 30.8603 38.8819 30.4911 39.1482C30.1217 39.4149 29.6602 39.5168 29.2141 39.431C28.7679 39.3448 28.3768 39.0782 28.1315 38.6931L15.2482 19.2329C15.0526 18.9376 14.7814 18.701 14.4634 18.5487C14.145 18.396 13.7919 18.3328 13.4408 18.366C12.1699 18.484 10.9315 17.917 10.1836 16.8749L2.51956 6.1006C2.3893 5.90791 2.18699 5.77635 1.95877 5.7356C1.73055 5.69485 1.49558 5.74883 1.30747 5.88467C1.119 6.02052 0.993358 6.22751 0.958213 6.45808C0.923067 6.68866 0.981993 6.92389 1.12113 7.1105L8.79363 17.9068C9.89852 19.45 11.7318 20.2894 13.6129 20.1128C13.6942 20.0999 13.7758 20.1314 13.8283 20.195L26.6944 39.6507C27.1991 40.4221 27.9952 40.9516 28.8978 41.1157C29.1009 41.1532 29.3067 41.1722 29.5129 41.1722C30.3584 41.1697 31.1719 40.8483 31.7934 40.2713C32.4149 39.6943 32.7989 38.9039 32.8699 38.0556C32.9409 37.2072 32.6935 36.3629 32.1767 35.6894L17.9807 17.1918ZM12.4814 14.8602C12.803 14.8605 13.0979 14.6807 13.2463 14.3936C13.3947 14.1062 13.3719 13.7598 13.187 13.4949L6.17291 3.40514C5.90103 3.01262 5.36438 2.91646 4.97461 3.19064C4.5849 3.46448 4.48943 4.005 4.76165 4.39757L11.7758 14.4873C11.9362 14.7204 12.1996 14.8598 12.4814 14.8602L12.4814 14.8602Z" fill="white"/>
</svg>
