<svg width="545" height="388" viewBox="0 0 545 388" fill="none" xmlns="http://www.w3.org/2000/svg">
<g opacity="0.7">
<ellipse cx="2.00272" cy="2.0038" rx="2.00272" ry="2.0038" transform="matrix(0.939615 -0.342234 0.341806 0.93977 0 177.085)" fill="#FCCC65"/>
<ellipse cx="2.00272" cy="2.0038" rx="2.00272" ry="2.0038" transform="matrix(0.939615 -0.342234 0.341806 0.93977 11.2907 172.972)" fill="#FCCC65"/>
<ellipse cx="2.00272" cy="2.0038" rx="2.00272" ry="2.0038" transform="matrix(0.939615 -0.342234 0.341806 0.93977 22.5814 168.86)" fill="#FCCC65"/>
<ellipse cx="2.00272" cy="2.0038" rx="2.00272" ry="2.0038" transform="matrix(0.939615 -0.342234 0.341806 0.93977 33.8721 164.747)" fill="#FCCC65"/>
<ellipse cx="2.00272" cy="2.0038" rx="2.00272" ry="2.0038" transform="matrix(0.939615 -0.342234 0.341806 0.93977 45.1628 160.635)" fill="#FCCC65"/>
<ellipse cx="2.00272" cy="2.0038" rx="2.00272" ry="2.0038" transform="matrix(0.939615 -0.342234 0.341806 0.93977 56.4535 156.523)" fill="#FCCC65"/>
<ellipse cx="2.00272" cy="2.0038" rx="2.00272" ry="2.0038" transform="matrix(0.939615 -0.342234 0.341806 0.93977 67.7441 152.41)" fill="#FCCC65"/>
<ellipse cx="2.00272" cy="2.0038" rx="2.00272" ry="2.0038" transform="matrix(0.939615 -0.342234 0.341806 0.93977 79.0349 148.298)" fill="#FCCC65"/>
<ellipse cx="2.00272" cy="2.0038" rx="2.00272" ry="2.0038" transform="matrix(0.939615 -0.342234 0.341806 0.93977 90.3255 144.185)" fill="#FCCC65"/>
<ellipse cx="2.00272" cy="2.0038" rx="2.00272" ry="2.0038" transform="matrix(0.939615 -0.342234 0.341806 0.93977 101.616 140.073)" fill="#FCCC65"/>
<ellipse cx="2.00272" cy="2.0038" rx="2.00272" ry="2.0038" transform="matrix(0.939615 -0.342234 0.341806 0.93977 112.907 135.961)" fill="#FCCC65"/>
<ellipse cx="2.00272" cy="2.0038" rx="2.00272" ry="2.0038" transform="matrix(0.939615 -0.342234 0.341806 0.93977 124.198 131.848)" fill="#FCCC65"/>
<ellipse cx="2.00272" cy="2.0038" rx="2.00272" ry="2.0038" transform="matrix(0.939615 -0.342234 0.341806 0.93977 135.488 127.736)" fill="#FCCC65"/>
<ellipse cx="2.00272" cy="2.0038" rx="2.00272" ry="2.0038" transform="matrix(0.939615 -0.342234 0.341806 0.93977 4.1095 188.383)" fill="#FCCC65"/>
<ellipse cx="2.00272" cy="2.0038" rx="2.00272" ry="2.0038" transform="matrix(0.939615 -0.342234 0.341806 0.93977 15.4002 184.271)" fill="#FCCC65"/>
<ellipse cx="2.00272" cy="2.0038" rx="2.00272" ry="2.0038" transform="matrix(0.939615 -0.342234 0.341806 0.93977 26.6909 180.158)" fill="#FCCC65"/>
<ellipse cx="2.00272" cy="2.0038" rx="2.00272" ry="2.0038" transform="matrix(0.939615 -0.342234 0.341806 0.93977 37.9815 176.046)" fill="#FCCC65"/>
<ellipse cx="2.00272" cy="2.0038" rx="2.00272" ry="2.0038" transform="matrix(0.939615 -0.342234 0.341806 0.93977 49.2722 171.934)" fill="#FCCC65"/>
<ellipse cx="2.00272" cy="2.0038" rx="2.00272" ry="2.0038" transform="matrix(0.939615 -0.342234 0.341806 0.93977 60.563 167.821)" fill="#FCCC65"/>
<ellipse cx="2.00272" cy="2.0038" rx="2.00272" ry="2.0038" transform="matrix(0.939615 -0.342234 0.341806 0.93977 71.8536 163.709)" fill="#FCCC65"/>
<ellipse cx="2.00272" cy="2.0038" rx="2.00272" ry="2.0038" transform="matrix(0.939615 -0.342234 0.341806 0.93977 83.1443 159.597)" fill="#FCCC65"/>
<ellipse cx="2.00272" cy="2.0038" rx="2.00272" ry="2.0038" transform="matrix(0.939615 -0.342234 0.341806 0.93977 94.435 155.484)" fill="#FCCC65"/>
<ellipse cx="2.00272" cy="2.0038" rx="2.00272" ry="2.0038" transform="matrix(0.939615 -0.342234 0.341806 0.93977 105.726 151.372)" fill="#FCCC65"/>
<ellipse cx="2.00272" cy="2.0038" rx="2.00272" ry="2.0038" transform="matrix(0.939615 -0.342234 0.341806 0.93977 117.016 147.259)" fill="#FCCC65"/>
<ellipse cx="2.00272" cy="2.0038" rx="2.00272" ry="2.0038" transform="matrix(0.939615 -0.342234 0.341806 0.93977 128.307 143.147)" fill="#FCCC65"/>
<ellipse cx="2.00272" cy="2.0038" rx="2.00272" ry="2.0038" transform="matrix(0.939615 -0.342234 0.341806 0.93977 139.598 139.035)" fill="#FCCC65"/>
<ellipse cx="2.00272" cy="2.0038" rx="2.00272" ry="2.0038" transform="matrix(0.939615 -0.342234 0.341806 0.93977 8.21896 199.682)" fill="#FCCC65"/>
<ellipse cx="2.00272" cy="2.0038" rx="2.00272" ry="2.0038" transform="matrix(0.939615 -0.342234 0.341806 0.93977 19.5096 195.57)" fill="#FCCC65"/>
<ellipse cx="2.00272" cy="2.0038" rx="2.00272" ry="2.0038" transform="matrix(0.939615 -0.342234 0.341806 0.93977 30.8003 191.457)" fill="#FCCC65"/>
<ellipse cx="2.00272" cy="2.0038" rx="2.00272" ry="2.0038" transform="matrix(0.939615 -0.342234 0.341806 0.93977 42.091 187.345)" fill="#FCCC65"/>
<ellipse cx="2.00272" cy="2.0038" rx="2.00272" ry="2.0038" transform="matrix(0.939615 -0.342234 0.341806 0.93977 53.3817 183.232)" fill="#FCCC65"/>
<ellipse cx="2.00272" cy="2.0038" rx="2.00272" ry="2.0038" transform="matrix(0.939615 -0.342234 0.341806 0.93977 64.6724 179.12)" fill="#FCCC65"/>
<ellipse cx="2.00272" cy="2.0038" rx="2.00272" ry="2.0038" transform="matrix(0.939615 -0.342234 0.341806 0.93977 75.9631 175.008)" fill="#FCCC65"/>
<ellipse cx="2.00272" cy="2.0038" rx="2.00272" ry="2.0038" transform="matrix(0.939615 -0.342234 0.341806 0.93977 87.2538 170.895)" fill="#FCCC65"/>
<ellipse cx="2.00272" cy="2.0038" rx="2.00272" ry="2.0038" transform="matrix(0.939615 -0.342234 0.341806 0.93977 98.5445 166.783)" fill="#FCCC65"/>
<ellipse cx="2.00272" cy="2.0038" rx="2.00272" ry="2.0038" transform="matrix(0.939615 -0.342234 0.341806 0.93977 109.835 162.67)" fill="#FCCC65"/>
<ellipse cx="2.00272" cy="2.0038" rx="2.00272" ry="2.0038" transform="matrix(0.939615 -0.342234 0.341806 0.93977 121.126 158.558)" fill="#FCCC65"/>
<ellipse cx="2.00272" cy="2.0038" rx="2.00272" ry="2.0038" transform="matrix(0.939615 -0.342234 0.341806 0.93977 132.417 154.446)" fill="#FCCC65"/>
<ellipse cx="2.00272" cy="2.0038" rx="2.00272" ry="2.0038" transform="matrix(0.939615 -0.342234 0.341806 0.93977 143.707 150.333)" fill="#FCCC65"/>
<ellipse cx="2.00272" cy="2.0038" rx="2.00272" ry="2.0038" transform="matrix(0.939615 -0.342234 0.341806 0.93977 12.3284 210.981)" fill="#FCCC65"/>
<ellipse cx="2.00272" cy="2.0038" rx="2.00272" ry="2.0038" transform="matrix(0.939615 -0.342234 0.341806 0.93977 23.6191 206.868)" fill="#FCCC65"/>
<ellipse cx="2.00272" cy="2.0038" rx="2.00272" ry="2.0038" transform="matrix(0.939615 -0.342234 0.341806 0.93977 34.9098 202.756)" fill="#FCCC65"/>
<ellipse cx="2.00272" cy="2.0038" rx="2.00272" ry="2.0038" transform="matrix(0.939615 -0.342234 0.341806 0.93977 46.2005 198.643)" fill="#FCCC65"/>
<ellipse cx="2.00272" cy="2.0038" rx="2.00272" ry="2.0038" transform="matrix(0.939615 -0.342234 0.341806 0.93977 57.4912 194.531)" fill="#FCCC65"/>
<ellipse cx="2.00272" cy="2.0038" rx="2.00272" ry="2.0038" transform="matrix(0.939615 -0.342234 0.341806 0.93977 68.7819 190.419)" fill="#FCCC65"/>
<ellipse cx="2.00272" cy="2.0038" rx="2.00272" ry="2.0038" transform="matrix(0.939615 -0.342234 0.341806 0.93977 80.0726 186.306)" fill="#FCCC65"/>
<ellipse cx="2.00272" cy="2.0038" rx="2.00272" ry="2.0038" transform="matrix(0.939615 -0.342234 0.341806 0.93977 91.3633 182.194)" fill="#FCCC65"/>
<ellipse cx="2.00272" cy="2.0038" rx="2.00272" ry="2.0038" transform="matrix(0.939615 -0.342234 0.341806 0.93977 102.654 178.082)" fill="#FCCC65"/>
<ellipse cx="2.00272" cy="2.0038" rx="2.00272" ry="2.0038" transform="matrix(0.939615 -0.342234 0.341806 0.93977 113.945 173.969)" fill="#FCCC65"/>
<ellipse cx="2.00272" cy="2.0038" rx="2.00272" ry="2.0038" transform="matrix(0.939615 -0.342234 0.341806 0.93977 125.235 169.857)" fill="#FCCC65"/>
<ellipse cx="2.00272" cy="2.0038" rx="2.00272" ry="2.0038" transform="matrix(0.939615 -0.342234 0.341806 0.93977 136.526 165.744)" fill="#FCCC65"/>
<ellipse cx="2.00272" cy="2.0038" rx="2.00272" ry="2.0038" transform="matrix(0.939615 -0.342234 0.341806 0.93977 147.817 161.632)" fill="#FCCC65"/>
<ellipse cx="2.00272" cy="2.0038" rx="2.00272" ry="2.0038" transform="matrix(0.939615 -0.342234 0.341806 0.93977 16.4379 222.279)" fill="#FCCC65"/>
<ellipse cx="2.00272" cy="2.0038" rx="2.00272" ry="2.0038" transform="matrix(0.939615 -0.342234 0.341806 0.93977 27.7286 218.167)" fill="#FCCC65"/>
<ellipse cx="2.00272" cy="2.0038" rx="2.00272" ry="2.0038" transform="matrix(0.939615 -0.342234 0.341806 0.93977 39.0193 214.055)" fill="#FCCC65"/>
<ellipse cx="2.00272" cy="2.0038" rx="2.00272" ry="2.0038" transform="matrix(0.939615 -0.342234 0.341806 0.93977 50.31 209.942)" fill="#FCCC65"/>
<ellipse cx="2.00272" cy="2.0038" rx="2.00272" ry="2.0038" transform="matrix(0.939615 -0.342234 0.341806 0.93977 61.6007 205.83)" fill="#FCCC65"/>
<ellipse cx="2.00272" cy="2.0038" rx="2.00272" ry="2.0038" transform="matrix(0.939615 -0.342234 0.341806 0.93977 72.8914 201.717)" fill="#FCCC65"/>
<ellipse cx="2.00272" cy="2.0038" rx="2.00272" ry="2.0038" transform="matrix(0.939615 -0.342234 0.341806 0.93977 84.182 197.605)" fill="#FCCC65"/>
<ellipse cx="2.00272" cy="2.0038" rx="2.00272" ry="2.0038" transform="matrix(0.939615 -0.342234 0.341806 0.93977 95.4727 193.493)" fill="#FCCC65"/>
<ellipse cx="2.00272" cy="2.0038" rx="2.00272" ry="2.0038" transform="matrix(0.939615 -0.342234 0.341806 0.93977 106.763 189.38)" fill="#FCCC65"/>
<ellipse cx="2.00272" cy="2.0038" rx="2.00272" ry="2.0038" transform="matrix(0.939615 -0.342234 0.341806 0.93977 118.054 185.268)" fill="#FCCC65"/>
<ellipse cx="2.00272" cy="2.0038" rx="2.00272" ry="2.0038" transform="matrix(0.939615 -0.342234 0.341806 0.93977 129.345 181.155)" fill="#FCCC65"/>
<ellipse cx="2.00272" cy="2.0038" rx="2.00272" ry="2.0038" transform="matrix(0.939615 -0.342234 0.341806 0.93977 140.635 177.043)" fill="#FCCC65"/>
<ellipse cx="2.00272" cy="2.0038" rx="2.00272" ry="2.0038" transform="matrix(0.939615 -0.342234 0.341806 0.93977 151.926 172.931)" fill="#FCCC65"/>
<ellipse cx="2.00272" cy="2.0038" rx="2.00272" ry="2.0038" transform="matrix(0.939615 -0.342234 0.341806 0.93977 20.5474 233.578)" fill="#FCCC65"/>
<ellipse cx="2.00272" cy="2.0038" rx="2.00272" ry="2.0038" transform="matrix(0.939615 -0.342234 0.341806 0.93977 31.8381 229.466)" fill="#FCCC65"/>
<ellipse cx="2.00272" cy="2.0038" rx="2.00272" ry="2.0038" transform="matrix(0.939615 -0.342234 0.341806 0.93977 43.1288 225.353)" fill="#FCCC65"/>
<ellipse cx="2.00272" cy="2.0038" rx="2.00272" ry="2.0038" transform="matrix(0.939615 -0.342234 0.341806 0.93977 54.4194 221.241)" fill="#FCCC65"/>
<ellipse cx="2.00272" cy="2.0038" rx="2.00272" ry="2.0038" transform="matrix(0.939615 -0.342234 0.341806 0.93977 65.7102 217.128)" fill="#FCCC65"/>
<ellipse cx="2.00272" cy="2.0038" rx="2.00272" ry="2.0038" transform="matrix(0.939615 -0.342234 0.341806 0.93977 77.0009 213.016)" fill="#FCCC65"/>
<ellipse cx="2.00272" cy="2.0038" rx="2.00272" ry="2.0038" transform="matrix(0.939615 -0.342234 0.341806 0.93977 88.2915 208.904)" fill="#FCCC65"/>
<ellipse cx="2.00272" cy="2.0038" rx="2.00272" ry="2.0038" transform="matrix(0.939615 -0.342234 0.341806 0.93977 99.5822 204.791)" fill="#FCCC65"/>
<ellipse cx="2.00272" cy="2.0038" rx="2.00272" ry="2.0038" transform="matrix(0.939615 -0.342234 0.341806 0.93977 110.873 200.679)" fill="#FCCC65"/>
<ellipse cx="2.00272" cy="2.0038" rx="2.00272" ry="2.0038" transform="matrix(0.939615 -0.342234 0.341806 0.93977 122.164 196.566)" fill="#FCCC65"/>
<ellipse cx="2.00272" cy="2.0038" rx="2.00272" ry="2.0038" transform="matrix(0.939615 -0.342234 0.341806 0.93977 133.454 192.454)" fill="#FCCC65"/>
<ellipse cx="2.00272" cy="2.0038" rx="2.00272" ry="2.0038" transform="matrix(0.939615 -0.342234 0.341806 0.93977 144.745 188.342)" fill="#FCCC65"/>
<ellipse cx="2.00272" cy="2.0038" rx="2.00272" ry="2.0038" transform="matrix(0.939615 -0.342234 0.341806 0.93977 156.036 184.229)" fill="#FCCC65"/>
<ellipse cx="2.00272" cy="2.0038" rx="2.00272" ry="2.0038" transform="matrix(0.939615 -0.342234 0.341806 0.93977 24.6569 244.877)" fill="#FCCC65"/>
<ellipse cx="2.00272" cy="2.0038" rx="2.00272" ry="2.0038" transform="matrix(0.939615 -0.342234 0.341806 0.93977 35.9475 240.764)" fill="#FCCC65"/>
<ellipse cx="2.00272" cy="2.0038" rx="2.00272" ry="2.0038" transform="matrix(0.939615 -0.342234 0.341806 0.93977 47.2383 236.652)" fill="#FCCC65"/>
<ellipse cx="2.00272" cy="2.0038" rx="2.00272" ry="2.0038" transform="matrix(0.939615 -0.342234 0.341806 0.93977 58.5289 232.539)" fill="#FCCC65"/>
<ellipse cx="2.00272" cy="2.0038" rx="2.00272" ry="2.0038" transform="matrix(0.939615 -0.342234 0.341806 0.93977 69.8196 228.427)" fill="#FCCC65"/>
<ellipse cx="2.00272" cy="2.0038" rx="2.00272" ry="2.0038" transform="matrix(0.939615 -0.342234 0.341806 0.93977 81.1103 224.315)" fill="#FCCC65"/>
<ellipse cx="2.00272" cy="2.0038" rx="2.00272" ry="2.0038" transform="matrix(0.939615 -0.342234 0.341806 0.93977 92.401 220.202)" fill="#FCCC65"/>
<ellipse cx="2.00272" cy="2.0038" rx="2.00272" ry="2.0038" transform="matrix(0.939615 -0.342234 0.341806 0.93977 103.692 216.09)" fill="#FCCC65"/>
<ellipse cx="2.00272" cy="2.0038" rx="2.00272" ry="2.0038" transform="matrix(0.939615 -0.342234 0.341806 0.93977 114.982 211.978)" fill="#FCCC65"/>
<ellipse cx="2.00272" cy="2.0038" rx="2.00272" ry="2.0038" transform="matrix(0.939615 -0.342234 0.341806 0.93977 126.273 207.865)" fill="#FCCC65"/>
<ellipse cx="2.00272" cy="2.0038" rx="2.00272" ry="2.0038" transform="matrix(0.939615 -0.342234 0.341806 0.93977 137.564 203.753)" fill="#FCCC65"/>
<ellipse cx="2.00272" cy="2.0038" rx="2.00272" ry="2.0038" transform="matrix(0.939615 -0.342234 0.341806 0.93977 148.854 199.64)" fill="#FCCC65"/>
<ellipse cx="2.00272" cy="2.0038" rx="2.00272" ry="2.0038" transform="matrix(0.939615 -0.342234 0.341806 0.93977 160.145 195.528)" fill="#FCCC65"/>
<ellipse cx="2.00272" cy="2.0038" rx="2.00272" ry="2.0038" transform="matrix(0.939615 -0.342234 0.341806 0.93977 28.7663 256.175)" fill="#FCCC65"/>
<ellipse cx="2.00272" cy="2.0038" rx="2.00272" ry="2.0038" transform="matrix(0.939615 -0.342234 0.341806 0.93977 40.057 252.063)" fill="#FCCC65"/>
<ellipse cx="2.00272" cy="2.0038" rx="2.00272" ry="2.0038" transform="matrix(0.939615 -0.342234 0.341806 0.93977 51.3477 247.951)" fill="#FCCC65"/>
<ellipse cx="2.00272" cy="2.0038" rx="2.00272" ry="2.0038" transform="matrix(0.939615 -0.342234 0.341806 0.93977 62.6384 243.838)" fill="#FCCC65"/>
<ellipse cx="2.00272" cy="2.0038" rx="2.00272" ry="2.0038" transform="matrix(0.939615 -0.342234 0.341806 0.93977 73.9291 239.726)" fill="#FCCC65"/>
<ellipse cx="2.00272" cy="2.0038" rx="2.00272" ry="2.0038" transform="matrix(0.939615 -0.342234 0.341806 0.93977 85.2198 235.613)" fill="#FCCC65"/>
<ellipse cx="2.00272" cy="2.0038" rx="2.00272" ry="2.0038" transform="matrix(0.939615 -0.342234 0.341806 0.93977 96.5105 231.501)" fill="#FCCC65"/>
<ellipse cx="2.00272" cy="2.0038" rx="2.00272" ry="2.0038" transform="matrix(0.939615 -0.342234 0.341806 0.93977 107.801 227.389)" fill="#FCCC65"/>
<ellipse cx="2.00272" cy="2.0038" rx="2.00272" ry="2.0038" transform="matrix(0.939615 -0.342234 0.341806 0.93977 119.092 223.276)" fill="#FCCC65"/>
<ellipse cx="2.00272" cy="2.0038" rx="2.00272" ry="2.0038" transform="matrix(0.939615 -0.342234 0.341806 0.93977 130.383 219.164)" fill="#FCCC65"/>
<ellipse cx="2.00272" cy="2.0038" rx="2.00272" ry="2.0038" transform="matrix(0.939615 -0.342234 0.341806 0.93977 141.673 215.051)" fill="#FCCC65"/>
<ellipse cx="2.00272" cy="2.0038" rx="2.00272" ry="2.0038" transform="matrix(0.939615 -0.342234 0.341806 0.93977 152.964 210.939)" fill="#FCCC65"/>
<ellipse cx="2.00272" cy="2.0038" rx="2.00272" ry="2.0038" transform="matrix(0.939615 -0.342234 0.341806 0.93977 164.255 206.827)" fill="#FCCC65"/>
<ellipse cx="2.00272" cy="2.0038" rx="2.00272" ry="2.0038" transform="matrix(0.939615 -0.342234 0.341806 0.93977 32.8758 267.474)" fill="#FCCC65"/>
<ellipse cx="2.00272" cy="2.0038" rx="2.00272" ry="2.0038" transform="matrix(0.939615 -0.342234 0.341806 0.93977 36.9853 278.773)" fill="#FCCC65"/>
<ellipse cx="2.00272" cy="2.0038" rx="2.00272" ry="2.0038" transform="matrix(0.939615 -0.342234 0.341806 0.93977 41.0948 290.071)" fill="#FCCC65"/>
<ellipse cx="2.00272" cy="2.0038" rx="2.00272" ry="2.0038" transform="matrix(0.939615 -0.342234 0.341806 0.93977 45.2043 301.37)" fill="#FCCC65"/>
<ellipse cx="2.00272" cy="2.0038" rx="2.00272" ry="2.0038" transform="matrix(0.939615 -0.342234 0.341806 0.93977 49.3137 312.669)" fill="#FCCC65"/>
<ellipse cx="2.00272" cy="2.0038" rx="2.00272" ry="2.0038" transform="matrix(0.939615 -0.342234 0.341806 0.93977 53.4232 323.967)" fill="#FCCC65"/>
<ellipse cx="2.00272" cy="2.0038" rx="2.00272" ry="2.0038" transform="matrix(0.939615 -0.342234 0.341806 0.93977 57.5327 335.266)" fill="#FCCC65"/>
<ellipse cx="2.00272" cy="2.0038" rx="2.00272" ry="2.0038" transform="matrix(0.939615 -0.342234 0.341806 0.93977 44.1665 263.362)" fill="#FCCC65"/>
<ellipse cx="2.00272" cy="2.0038" rx="2.00272" ry="2.0038" transform="matrix(0.939615 -0.342234 0.341806 0.93977 48.276 274.66)" fill="#FCCC65"/>
<ellipse cx="2.00272" cy="2.0038" rx="2.00272" ry="2.0038" transform="matrix(0.939615 -0.342234 0.341806 0.93977 52.3854 285.959)" fill="#FCCC65"/>
<ellipse cx="2.00272" cy="2.0038" rx="2.00272" ry="2.0038" transform="matrix(0.939615 -0.342234 0.341806 0.93977 56.4949 297.258)" fill="#FCCC65"/>
<ellipse cx="2.00272" cy="2.0038" rx="2.00272" ry="2.0038" transform="matrix(0.939615 -0.342234 0.341806 0.93977 60.6044 308.556)" fill="#FCCC65"/>
<ellipse cx="2.00272" cy="2.0038" rx="2.00272" ry="2.0038" transform="matrix(0.939615 -0.342234 0.341806 0.93977 64.7139 319.855)" fill="#FCCC65"/>
<ellipse cx="2.00272" cy="2.0038" rx="2.00272" ry="2.0038" transform="matrix(0.939615 -0.342234 0.341806 0.93977 68.8233 331.154)" fill="#FCCC65"/>
<ellipse cx="2.00272" cy="2.0038" rx="2.00272" ry="2.0038" transform="matrix(0.939615 -0.342234 0.341806 0.93977 55.4572 259.249)" fill="#FCCC65"/>
<ellipse cx="2.00272" cy="2.0038" rx="2.00272" ry="2.0038" transform="matrix(0.939615 -0.342234 0.341806 0.93977 59.5667 270.548)" fill="#FCCC65"/>
<ellipse cx="2.00272" cy="2.0038" rx="2.00272" ry="2.0038" transform="matrix(0.939615 -0.342234 0.341806 0.93977 63.6761 281.847)" fill="#FCCC65"/>
<ellipse cx="2.00272" cy="2.0038" rx="2.00272" ry="2.0038" transform="matrix(0.939615 -0.342234 0.341806 0.93977 67.7856 293.145)" fill="#FCCC65"/>
<ellipse cx="2.00272" cy="2.0038" rx="2.00272" ry="2.0038" transform="matrix(0.939615 -0.342234 0.341806 0.93977 71.8951 304.444)" fill="#FCCC65"/>
<ellipse cx="2.00272" cy="2.0038" rx="2.00272" ry="2.0038" transform="matrix(0.939615 -0.342234 0.341806 0.93977 76.0046 315.743)" fill="#FCCC65"/>
<ellipse cx="2.00272" cy="2.0038" rx="2.00272" ry="2.0038" transform="matrix(0.939615 -0.342234 0.341806 0.93977 80.114 327.041)" fill="#FCCC65"/>
<ellipse cx="2.00272" cy="2.0038" rx="2.00272" ry="2.0038" transform="matrix(0.939615 -0.342234 0.341806 0.93977 66.7479 255.137)" fill="#FCCC65"/>
<ellipse cx="2.00272" cy="2.0038" rx="2.00272" ry="2.0038" transform="matrix(0.939615 -0.342234 0.341806 0.93977 70.8574 266.436)" fill="#FCCC65"/>
<ellipse cx="2.00272" cy="2.0038" rx="2.00272" ry="2.0038" transform="matrix(0.939615 -0.342234 0.341806 0.93977 74.9668 277.734)" fill="#FCCC65"/>
<ellipse cx="2.00272" cy="2.0038" rx="2.00272" ry="2.0038" transform="matrix(0.939615 -0.342234 0.341806 0.93977 79.0763 289.033)" fill="#FCCC65"/>
<ellipse cx="2.00272" cy="2.0038" rx="2.00272" ry="2.0038" transform="matrix(0.939615 -0.342234 0.341806 0.93977 83.1858 300.332)" fill="#FCCC65"/>
<ellipse cx="2.00272" cy="2.0038" rx="2.00272" ry="2.0038" transform="matrix(0.939615 -0.342234 0.341806 0.93977 87.2953 311.63)" fill="#FCCC65"/>
<ellipse cx="2.00272" cy="2.0038" rx="2.00272" ry="2.0038" transform="matrix(0.939615 -0.342234 0.341806 0.93977 91.4048 322.929)" fill="#FCCC65"/>
<ellipse cx="2.00272" cy="2.0038" rx="2.00272" ry="2.0038" transform="matrix(0.939615 -0.342234 0.341806 0.93977 78.0386 251.024)" fill="#FCCC65"/>
<ellipse cx="2.00272" cy="2.0038" rx="2.00272" ry="2.0038" transform="matrix(0.939615 -0.342234 0.341806 0.93977 82.1481 262.323)" fill="#FCCC65"/>
<ellipse cx="2.00272" cy="2.0038" rx="2.00272" ry="2.0038" transform="matrix(0.939615 -0.342234 0.341806 0.93977 86.2575 273.622)" fill="#FCCC65"/>
<ellipse cx="2.00272" cy="2.0038" rx="2.00272" ry="2.0038" transform="matrix(0.939615 -0.342234 0.341806 0.93977 90.367 284.921)" fill="#FCCC65"/>
<ellipse cx="2.00272" cy="2.0038" rx="2.00272" ry="2.0038" transform="matrix(0.939615 -0.342234 0.341806 0.93977 94.4765 296.219)" fill="#FCCC65"/>
<ellipse cx="2.00272" cy="2.0038" rx="2.00272" ry="2.0038" transform="matrix(0.939615 -0.342234 0.341806 0.93977 98.586 307.518)" fill="#FCCC65"/>
<ellipse cx="2.00272" cy="2.0038" rx="2.00272" ry="2.0038" transform="matrix(0.939615 -0.342234 0.341806 0.93977 102.695 318.817)" fill="#FCCC65"/>
<ellipse cx="2.00272" cy="2.0038" rx="2.00272" ry="2.0038" transform="matrix(0.939615 -0.342234 0.341806 0.93977 89.3293 246.912)" fill="#FCCC65"/>
<ellipse cx="2.00272" cy="2.0038" rx="2.00272" ry="2.0038" transform="matrix(0.939615 -0.342234 0.341806 0.93977 93.4388 258.211)" fill="#FCCC65"/>
<ellipse cx="2.00272" cy="2.0038" rx="2.00272" ry="2.0038" transform="matrix(0.939615 -0.342234 0.341806 0.93977 97.5482 269.509)" fill="#FCCC65"/>
<ellipse cx="2.00272" cy="2.0038" rx="2.00272" ry="2.0038" transform="matrix(0.939615 -0.342234 0.341806 0.93977 101.658 280.808)" fill="#FCCC65"/>
<ellipse cx="2.00272" cy="2.0038" rx="2.00272" ry="2.0038" transform="matrix(0.939615 -0.342234 0.341806 0.93977 105.767 292.107)" fill="#FCCC65"/>
<ellipse cx="2.00272" cy="2.0038" rx="2.00272" ry="2.0038" transform="matrix(0.939615 -0.342234 0.341806 0.93977 109.877 303.406)" fill="#FCCC65"/>
<ellipse cx="2.00272" cy="2.0038" rx="2.00272" ry="2.0038" transform="matrix(0.939615 -0.342234 0.341806 0.93977 113.986 314.704)" fill="#FCCC65"/>
<ellipse cx="2.00272" cy="2.0038" rx="2.00272" ry="2.0038" transform="matrix(0.939615 -0.342234 0.341806 0.93977 100.62 242.8)" fill="#FCCC65"/>
<ellipse cx="2.00272" cy="2.0038" rx="2.00272" ry="2.0038" transform="matrix(0.939615 -0.342234 0.341806 0.93977 104.729 254.098)" fill="#FCCC65"/>
<ellipse cx="2.00272" cy="2.0038" rx="2.00272" ry="2.0038" transform="matrix(0.939615 -0.342234 0.341806 0.93977 108.839 265.397)" fill="#FCCC65"/>
<ellipse cx="2.00272" cy="2.0038" rx="2.00272" ry="2.0038" transform="matrix(0.939615 -0.342234 0.341806 0.93977 112.948 276.696)" fill="#FCCC65"/>
<ellipse cx="2.00272" cy="2.0038" rx="2.00272" ry="2.0038" transform="matrix(0.939615 -0.342234 0.341806 0.93977 117.058 287.994)" fill="#FCCC65"/>
<ellipse cx="2.00272" cy="2.0038" rx="2.00272" ry="2.0038" transform="matrix(0.939615 -0.342234 0.341806 0.93977 121.167 299.293)" fill="#FCCC65"/>
<ellipse cx="2.00272" cy="2.0038" rx="2.00272" ry="2.0038" transform="matrix(0.939615 -0.342234 0.341806 0.93977 125.277 310.592)" fill="#FCCC65"/>
<ellipse cx="2.00272" cy="2.0038" rx="2.00272" ry="2.0038" transform="matrix(0.939615 -0.342234 0.341806 0.93977 111.911 238.687)" fill="#FCCC65"/>
<ellipse cx="2.00272" cy="2.0038" rx="2.00272" ry="2.0038" transform="matrix(0.939615 -0.342234 0.341806 0.93977 116.02 249.986)" fill="#FCCC65"/>
<ellipse cx="2.00272" cy="2.0038" rx="2.00272" ry="2.0038" transform="matrix(0.939615 -0.342234 0.341806 0.93977 120.13 261.285)" fill="#FCCC65"/>
<ellipse cx="2.00272" cy="2.0038" rx="2.00272" ry="2.0038" transform="matrix(0.939615 -0.342234 0.341806 0.93977 124.239 272.583)" fill="#FCCC65"/>
<ellipse cx="2.00272" cy="2.0038" rx="2.00272" ry="2.0038" transform="matrix(0.939615 -0.342234 0.341806 0.93977 128.349 283.882)" fill="#FCCC65"/>
<ellipse cx="2.00272" cy="2.0038" rx="2.00272" ry="2.0038" transform="matrix(0.939615 -0.342234 0.341806 0.93977 132.458 295.181)" fill="#FCCC65"/>
<ellipse cx="2.00272" cy="2.0038" rx="2.00272" ry="2.0038" transform="matrix(0.939615 -0.342234 0.341806 0.93977 136.568 306.479)" fill="#FCCC65"/>
<ellipse cx="2.00272" cy="2.0038" rx="2.00272" ry="2.0038" transform="matrix(0.939615 -0.342234 0.341806 0.93977 123.201 234.575)" fill="#FCCC65"/>
<ellipse cx="2.00272" cy="2.0038" rx="2.00272" ry="2.0038" transform="matrix(0.939615 -0.342234 0.341806 0.93977 127.311 245.874)" fill="#FCCC65"/>
<ellipse cx="2.00272" cy="2.0038" rx="2.00272" ry="2.0038" transform="matrix(0.939615 -0.342234 0.341806 0.93977 131.42 257.172)" fill="#FCCC65"/>
<ellipse cx="2.00272" cy="2.0038" rx="2.00272" ry="2.0038" transform="matrix(0.939615 -0.342234 0.341806 0.93977 135.53 268.471)" fill="#FCCC65"/>
<ellipse cx="2.00272" cy="2.0038" rx="2.00272" ry="2.0038" transform="matrix(0.939615 -0.342234 0.341806 0.93977 139.639 279.77)" fill="#FCCC65"/>
<ellipse cx="2.00272" cy="2.0038" rx="2.00272" ry="2.0038" transform="matrix(0.939615 -0.342234 0.341806 0.93977 143.749 291.068)" fill="#FCCC65"/>
<ellipse cx="2.00272" cy="2.0038" rx="2.00272" ry="2.0038" transform="matrix(0.939615 -0.342234 0.341806 0.93977 147.858 302.367)" fill="#FCCC65"/>
<ellipse cx="2.00272" cy="2.0038" rx="2.00272" ry="2.0038" transform="matrix(0.939615 -0.342234 0.341806 0.93977 134.492 230.463)" fill="#FCCC65"/>
<ellipse cx="2.00272" cy="2.0038" rx="2.00272" ry="2.0038" transform="matrix(0.939615 -0.342234 0.341806 0.93977 138.602 241.761)" fill="#FCCC65"/>
<ellipse cx="2.00272" cy="2.0038" rx="2.00272" ry="2.0038" transform="matrix(0.939615 -0.342234 0.341806 0.93977 142.711 253.06)" fill="#FCCC65"/>
<ellipse cx="2.00272" cy="2.0038" rx="2.00272" ry="2.0038" transform="matrix(0.939615 -0.342234 0.341806 0.93977 146.82 264.359)" fill="#FCCC65"/>
<ellipse cx="2.00272" cy="2.0038" rx="2.00272" ry="2.0038" transform="matrix(0.939615 -0.342234 0.341806 0.93977 150.93 275.657)" fill="#FCCC65"/>
<ellipse cx="2.00272" cy="2.0038" rx="2.00272" ry="2.0038" transform="matrix(0.939615 -0.342234 0.341806 0.93977 155.039 286.956)" fill="#FCCC65"/>
<ellipse cx="2.00272" cy="2.0038" rx="2.00272" ry="2.0038" transform="matrix(0.939615 -0.342234 0.341806 0.93977 159.149 298.255)" fill="#FCCC65"/>
<ellipse cx="2.00272" cy="2.0038" rx="2.00272" ry="2.0038" transform="matrix(0.939615 -0.342234 0.341806 0.93977 145.783 226.35)" fill="#FCCC65"/>
<ellipse cx="2.00272" cy="2.0038" rx="2.00272" ry="2.0038" transform="matrix(0.939615 -0.342234 0.341806 0.93977 149.892 237.649)" fill="#FCCC65"/>
<ellipse cx="2.00272" cy="2.0038" rx="2.00272" ry="2.0038" transform="matrix(0.939615 -0.342234 0.341806 0.93977 154.002 248.948)" fill="#FCCC65"/>
<ellipse cx="2.00272" cy="2.0038" rx="2.00272" ry="2.0038" transform="matrix(0.939615 -0.342234 0.341806 0.93977 158.111 260.246)" fill="#FCCC65"/>
<ellipse cx="2.00272" cy="2.0038" rx="2.00272" ry="2.0038" transform="matrix(0.939615 -0.342234 0.341806 0.93977 162.221 271.545)" fill="#FCCC65"/>
<ellipse cx="2.00272" cy="2.0038" rx="2.00272" ry="2.0038" transform="matrix(0.939615 -0.342234 0.341806 0.93977 166.33 282.844)" fill="#FCCC65"/>
<ellipse cx="2.00272" cy="2.0038" rx="2.00272" ry="2.0038" transform="matrix(0.939615 -0.342234 0.341806 0.93977 170.44 294.142)" fill="#FCCC65"/>
<ellipse cx="2.00272" cy="2.0038" rx="2.00272" ry="2.0038" transform="matrix(0.939615 -0.342234 0.341806 0.93977 157.073 222.238)" fill="#FCCC65"/>
<ellipse cx="2.00272" cy="2.0038" rx="2.00272" ry="2.0038" transform="matrix(0.939615 -0.342234 0.341806 0.93977 161.183 233.536)" fill="#FCCC65"/>
<ellipse cx="2.00272" cy="2.0038" rx="2.00272" ry="2.0038" transform="matrix(0.939615 -0.342234 0.341806 0.93977 165.292 244.835)" fill="#FCCC65"/>
<ellipse cx="2.00272" cy="2.0038" rx="2.00272" ry="2.0038" transform="matrix(0.939615 -0.342234 0.341806 0.93977 169.402 256.134)" fill="#FCCC65"/>
<ellipse cx="2.00272" cy="2.0038" rx="2.00272" ry="2.0038" transform="matrix(0.939615 -0.342234 0.341806 0.93977 173.511 267.433)" fill="#FCCC65"/>
<ellipse cx="2.00272" cy="2.0038" rx="2.00272" ry="2.0038" transform="matrix(0.939615 -0.342234 0.341806 0.93977 177.621 278.731)" fill="#FCCC65"/>
<ellipse cx="2.00272" cy="2.0038" rx="2.00272" ry="2.0038" transform="matrix(0.939615 -0.342234 0.341806 0.93977 181.73 290.03)" fill="#FCCC65"/>
<ellipse cx="2.00272" cy="2.0038" rx="2.00272" ry="2.0038" transform="matrix(0.939615 -0.342234 0.341806 0.93977 168.364 218.125)" fill="#FCCC65"/>
<ellipse cx="2.00272" cy="2.0038" rx="2.00272" ry="2.0038" transform="matrix(0.939615 -0.342234 0.341806 0.93977 172.474 229.424)" fill="#FCCC65"/>
<ellipse cx="2.00272" cy="2.0038" rx="2.00272" ry="2.0038" transform="matrix(0.939615 -0.342234 0.341806 0.93977 176.583 240.723)" fill="#FCCC65"/>
<ellipse cx="2.00272" cy="2.0038" rx="2.00272" ry="2.0038" transform="matrix(0.939615 -0.342234 0.341806 0.93977 180.693 252.021)" fill="#FCCC65"/>
<ellipse cx="2.00272" cy="2.0038" rx="2.00272" ry="2.0038" transform="matrix(0.939615 -0.342234 0.341806 0.93977 184.802 263.32)" fill="#FCCC65"/>
<ellipse cx="2.00272" cy="2.0038" rx="2.00272" ry="2.0038" transform="matrix(0.939615 -0.342234 0.341806 0.93977 188.911 274.619)" fill="#FCCC65"/>
<ellipse cx="2.00272" cy="2.0038" rx="2.00272" ry="2.0038" transform="matrix(0.939615 -0.342234 0.341806 0.93977 193.021 285.917)" fill="#FCCC65"/>
</g>
<path opacity="0.2" d="M198.438 372.072L197.649 380.081C197.553 381.022 197.089 381.883 196.359 382.474C196.186 382.614 195.999 382.736 195.801 382.839C195.226 383.14 194.572 383.259 193.926 383.181C193.005 383.075 192.168 382.585 191.618 381.832C191.065 381.083 190.84 380.142 190.995 379.227L192.708 369.419C192.787 368.967 193.217 368.668 193.667 368.751C194.116 368.835 194.417 369.269 194.338 369.722L192.625 379.53L192.625 379.53C192.547 379.995 192.664 380.474 192.949 380.852C193.233 381.23 193.659 381.475 194.126 381.527C194.562 381.577 194.997 381.449 195.335 381.171C195.722 380.859 195.969 380.403 196.02 379.904L196.79 371.896C196.842 371.446 197.244 371.124 197.693 371.172C198.141 371.221 198.471 371.622 198.434 372.074L198.438 372.072ZM200.076 337.578C198.202 337.304 196.309 338.195 194.755 340.086L194.755 340.087C193.189 342.108 192.204 344.525 191.905 347.078C191.416 350.665 192.109 354.12 193.763 356.32C194.141 356.832 194.389 357.429 194.484 358.057C194.554 358.512 194.977 358.826 195.428 358.758C195.879 358.691 196.188 358.268 196.117 357.813C195.98 356.912 195.624 356.057 195.081 355.325C193.708 353.495 193.118 350.427 193.542 347.315C193.797 345.07 194.654 342.942 196.022 341.159C197.202 339.728 198.556 339.043 199.844 339.233C201.131 339.423 202.252 340.464 203.002 342.177L203.002 342.177C203.842 344.282 204.098 346.572 203.744 348.803C203.336 351.911 201.933 354.701 200.123 356.064C199.419 356.601 198.856 357.303 198.482 358.11C198.379 358.33 198.291 358.556 198.216 358.787C198.1 359.214 198.338 359.661 198.757 359.801C199.176 359.942 199.629 359.728 199.785 359.314C199.844 359.144 199.913 358.978 199.992 358.817C200.251 358.254 200.642 357.765 201.132 357.389C203.311 355.744 204.896 352.616 205.392 349.035C205.787 346.498 205.488 343.896 204.526 341.506C203.524 339.254 201.943 337.855 200.076 337.578L200.076 337.578ZM191.089 359.32C191.023 359.277 190.985 359.203 190.987 359.125C190.867 357.307 189.803 355.68 188.189 354.844L176.875 349.03C176.678 348.924 176.448 348.901 176.236 348.967C176.024 349.033 175.849 349.183 175.749 349.382C175.649 349.581 175.633 349.813 175.706 350.025C175.778 350.238 175.932 350.412 176.133 350.51L187.44 356.327C188.533 356.892 189.253 357.994 189.334 359.224C189.353 359.563 189.462 359.89 189.65 360.172C189.839 360.454 190.099 360.681 190.403 360.827L210.662 370.326L210.662 370.325C211.061 370.505 211.371 370.842 211.519 371.255C211.666 371.669 211.639 372.125 211.443 372.515C211.247 372.906 210.9 373.197 210.483 373.321C210.065 373.444 209.615 373.39 209.236 373.17L189.67 362.269C189.373 362.103 189.037 362.021 188.7 362.032C188.361 362.042 188.033 362.145 187.75 362.328C186.721 362.99 185.418 363.054 184.321 362.496L173.036 356.695C172.84 356.588 172.61 356.566 172.398 356.632C172.186 356.698 172.01 356.848 171.91 357.047C171.81 357.246 171.795 357.478 171.867 357.69C171.94 357.902 172.094 358.077 172.295 358.174L183.596 363.99C185.218 364.818 187.148 364.724 188.669 363.742C188.733 363.695 188.816 363.685 188.889 363.717L208.438 374.621C209.209 375.056 210.12 375.156 210.96 374.897C211.149 374.839 211.332 374.764 211.508 374.673C212.225 374.298 212.774 373.664 213.047 372.897C213.32 372.131 213.297 371.287 212.981 370.532C212.666 369.777 212.082 369.167 211.345 368.821L191.089 359.32ZM185.382 359.762C185.656 359.621 185.827 359.337 185.826 359.027C185.825 358.716 185.652 358.431 185.377 358.286L174.948 352.782C174.544 352.568 174.045 352.723 173.835 353.129C173.625 353.535 173.783 354.038 174.188 354.252L184.617 359.756C184.857 359.884 185.142 359.887 185.382 359.763L185.382 359.762Z" fill="#4EC41F"/>
<path opacity="0.2" d="M523.852 192.717L523.063 200.726C522.968 201.666 522.504 202.527 521.774 203.119C521.6 203.259 521.413 203.381 521.216 203.484C520.64 203.785 519.987 203.904 519.34 203.825C518.42 203.719 517.582 203.23 517.033 202.477C516.48 201.728 516.254 200.786 516.409 199.872L518.122 190.064C518.202 189.611 518.631 189.313 519.081 189.396C519.531 189.48 519.832 189.914 519.752 190.366L518.039 200.174L518.039 200.174C517.961 200.64 518.079 201.118 518.363 201.497C518.648 201.875 519.074 202.12 519.541 202.172C519.976 202.222 520.412 202.094 520.749 201.816C521.137 201.504 521.383 201.048 521.434 200.549L522.205 192.541C522.257 192.091 522.659 191.768 523.107 191.817C523.556 191.866 523.886 192.267 523.848 192.719L523.852 192.717ZM525.491 158.223C523.616 157.949 521.723 158.84 520.169 160.731L520.169 160.731C518.603 162.753 517.618 165.17 517.319 167.723C516.831 171.309 517.524 174.765 519.177 176.965C519.556 177.476 519.803 178.073 519.898 178.702C519.968 179.157 520.391 179.471 520.842 179.403C521.294 179.336 521.602 178.913 521.532 178.458C521.395 177.557 521.039 176.702 520.495 175.97C519.122 174.14 518.533 171.072 518.957 167.96C519.211 165.715 520.069 163.587 521.436 161.804C522.617 160.373 523.971 159.688 525.258 159.878C526.546 160.068 527.667 161.109 528.416 162.822L528.417 162.821C529.256 164.927 529.513 167.217 529.158 169.448C528.751 172.556 527.347 175.346 525.537 176.709C524.833 177.246 524.27 177.948 523.896 178.754C523.794 178.974 523.705 179.201 523.63 179.432C523.514 179.859 523.752 180.306 524.171 180.446C524.591 180.587 525.043 180.372 525.199 179.959C525.258 179.789 525.327 179.623 525.406 179.462C525.665 178.899 526.056 178.409 526.546 178.034C528.726 176.389 530.311 173.261 530.807 169.68C531.202 167.143 530.903 164.541 529.941 162.151C528.938 159.899 527.358 158.5 525.491 158.223L525.491 158.223ZM516.503 179.965C516.438 179.922 516.399 179.848 516.402 179.77C516.281 177.952 515.218 176.325 513.603 175.489L502.289 169.675C502.093 169.568 501.863 169.546 501.651 169.612C501.439 169.678 501.263 169.828 501.163 170.027C501.063 170.226 501.048 170.458 501.12 170.67C501.192 170.882 501.347 171.057 501.547 171.154L512.854 176.972C513.948 177.537 514.668 178.639 514.748 179.869C514.767 180.207 514.877 180.535 515.065 180.817C515.253 181.099 515.513 181.326 515.818 181.472L536.077 190.971L536.077 190.97C536.476 191.15 536.785 191.486 536.933 191.9C537.081 192.314 537.054 192.77 536.858 193.16C536.662 193.551 536.315 193.841 535.897 193.965C535.48 194.089 535.029 194.035 534.65 193.815L515.084 182.913C514.787 182.748 514.452 182.666 514.114 182.677C513.776 182.687 513.448 182.789 513.164 182.973C512.136 183.635 510.832 183.699 509.735 183.141L498.451 177.34C498.255 177.233 498.025 177.21 497.813 177.277C497.6 177.343 497.425 177.493 497.325 177.692C497.225 177.891 497.21 178.123 497.282 178.335C497.354 178.547 497.508 178.722 497.709 178.819L509.011 184.635C510.633 185.463 512.563 185.368 514.084 184.386C514.147 184.34 514.23 184.33 514.303 184.361L533.853 195.266C534.623 195.701 535.534 195.801 536.374 195.542C536.564 195.484 536.747 195.409 536.922 195.318C537.64 194.942 538.189 194.309 538.462 193.542C538.735 192.775 538.711 191.932 538.396 191.177C538.081 190.422 537.497 189.811 536.759 189.466L516.503 179.965ZM510.797 180.407C511.07 180.266 511.241 179.982 511.24 179.671C511.239 179.361 511.066 179.075 510.792 178.931L500.363 173.427C499.958 173.212 499.459 173.368 499.249 173.774C499.039 174.179 499.197 174.682 499.603 174.897L510.032 180.401C510.271 180.529 510.557 180.532 510.796 180.407L510.797 180.407Z" fill="#4EC41F"/>
<path opacity="0.2" d="M231.185 36.2205L230.397 44.2133C230.302 45.1522 229.838 46.0116 229.109 46.6016C228.936 46.7412 228.749 46.8632 228.552 46.9662C227.977 47.2664 227.324 47.3853 226.679 47.3069C225.759 47.2011 224.923 46.7128 224.374 45.9608C223.822 45.2138 223.597 44.2739 223.752 43.3613L225.462 33.5727C225.542 33.1211 225.971 32.8231 226.42 32.9064C226.869 32.9898 227.17 33.4234 227.09 33.8746L225.379 43.6631L225.379 43.6633C225.302 44.1277 225.419 44.6054 225.703 44.9829C225.987 45.3605 226.413 45.6046 226.879 45.6569C227.314 45.707 227.749 45.579 228.086 45.3015C228.473 44.9897 228.719 44.5349 228.77 44.0374L229.54 36.0448C229.592 35.5955 229.993 35.2739 230.441 35.3224C230.889 35.3709 231.219 35.7714 231.181 36.2224L231.185 36.2205ZM232.821 1.79484C230.949 1.52151 229.059 2.41017 227.507 4.29817L227.507 4.29833C225.943 6.31584 224.959 8.72827 224.661 11.276C224.173 14.8553 224.865 18.3037 226.516 20.4996C226.894 21.0102 227.141 21.6059 227.236 22.2336C227.306 22.687 227.728 23.0004 228.179 22.9332C228.63 22.8659 228.938 22.4435 228.868 21.9901C228.731 21.0907 228.375 20.2372 227.832 19.5067C226.461 17.6801 225.872 14.6182 226.296 11.5128C226.55 9.27234 227.406 7.14842 228.772 5.36847C229.951 3.94086 231.303 3.25727 232.589 3.44665C233.875 3.63586 234.994 4.67471 235.743 6.38436L235.744 6.38421C236.582 8.48523 236.838 10.7711 236.484 12.9977C236.077 16.099 234.676 18.8835 232.868 20.2441C232.165 20.7802 231.602 21.4808 231.229 22.2856C231.127 22.5052 231.038 22.7312 230.964 22.9621C230.847 23.3883 231.085 23.8339 231.504 23.9741C231.923 24.1146 232.375 23.9003 232.531 23.4875C232.589 23.318 232.658 23.1524 232.737 22.9915C232.996 22.4301 233.386 21.9413 233.875 21.5663C236.052 19.9251 237.635 16.8026 238.131 13.2288C238.525 10.6971 238.226 8.09986 237.266 5.7152C236.265 3.46707 234.686 2.07127 232.821 1.79456L232.821 1.79484ZM223.845 23.4941C223.78 23.4511 223.742 23.3769 223.744 23.2988C223.623 21.4844 222.561 19.8606 220.949 19.0267L209.649 13.2242C209.453 13.1178 209.223 13.0951 209.012 13.161C208.8 13.2273 208.625 13.3764 208.525 13.5755C208.425 13.7742 208.41 14.0055 208.482 14.2175C208.554 14.4292 208.708 14.6034 208.908 14.7006L220.201 20.5069C221.293 21.0709 222.012 22.1701 222.093 23.3982C222.112 23.7357 222.221 24.0626 222.409 24.344C222.597 24.6257 222.857 24.8517 223.161 24.9981L243.394 34.4776L243.394 34.4773C243.793 34.6569 244.102 34.9925 244.249 35.4053C244.397 35.8187 244.369 36.2732 244.174 36.6626C243.978 37.0526 243.631 37.3428 243.215 37.4665C242.798 37.59 242.348 37.5355 241.97 37.316L222.428 26.4364C222.132 26.2714 221.797 26.1896 221.459 26.2002C221.122 26.2107 220.794 26.3126 220.511 26.4958C219.484 27.1567 218.182 27.2204 217.086 26.6634L205.816 20.874C205.62 20.7675 205.39 20.7447 205.178 20.8107C204.967 20.8767 204.791 21.0262 204.691 21.2248C204.592 21.4236 204.576 21.6551 204.649 21.8669C204.721 22.0786 204.875 22.2528 205.075 22.3503L216.362 28.1546C217.983 28.9807 219.91 28.8865 221.429 27.9065C221.492 27.8597 221.575 27.8505 221.648 27.8815L241.173 38.7648C241.942 39.1987 242.852 39.2982 243.691 39.0398C243.88 38.9822 244.063 38.9075 244.238 38.8165C244.955 38.4415 245.503 37.8092 245.776 37.0441C246.048 36.2789 246.025 35.4369 245.71 34.6836C245.395 33.9303 244.812 33.3208 244.076 32.9755L223.845 23.4941ZM218.146 23.9353C218.419 23.7937 218.59 23.5106 218.589 23.2009C218.588 22.8908 218.415 22.606 218.141 22.4621L207.726 16.9687C207.321 16.7546 206.823 16.9094 206.613 17.3147C206.404 17.7196 206.562 18.2217 206.966 18.4358L217.382 23.9292C217.621 24.0568 217.906 24.0593 218.146 23.9353L218.146 23.9353Z" fill="#4EC41F"/>
</svg>
