<svg width="139" height="202" viewBox="0 0 139 202" fill="none" xmlns="http://www.w3.org/2000/svg">
<path d="M95.5446 69.0376C95.5446 69.0376 88.2966 62.3061 85.5283 64.2101C85.5283 64.2101 81.9043 72.3836 80.2363 73.0153C79.5465 75.0196 78.5509 76.9278 77.1668 76.8625C77.0145 77.5356 77.0295 78.2355 77.2105 78.9015C77.5074 80.1214 74.678 85.4629 72.7918 84.9402C70.9055 84.4173 68.2115 79.6465 68.9974 76.9583C69.0468 76.7762 69.0862 76.5915 69.1153 76.405C69.0149 76.209 65.6921 69.9306 65.3559 66.6543C65.011 63.3257 63.5701 64.7677 63.5701 64.7677C63.5701 64.7677 65.4825 66.4495 62.5003 67.774C59.5138 69.1029 52.1041 70.1398 55.0558 67.3863C55.0558 67.3863 54.6235 66.0967 53.1783 67.2729C53.1783 67.2729 52.1347 68.6454 54.6497 73.3116C54.6497 73.3116 58.5444 93.3053 57.8502 98.3114C57.8502 98.3114 56.7543 111.038 57.9899 112.249C58.5794 112.828 66.1681 114.985 73.6738 114.767C78.4451 114.654 83.179 113.896 87.7464 112.515L87.2967 94.9871C87.1996 91.2556 87.8868 87.5452 89.3139 84.0949L95.5446 69.0376ZM71.2723 106.829C69.7467 106.515 68.3221 105.832 67.1243 104.838C65.9352 103.835 65.004 102.562 64.4084 101.126C63.8102 99.7271 63.5242 98.2152 63.5701 96.695C63.8592 98.1369 64.3485 99.5315 65.0241 100.838C65.6806 102.114 66.5844 103.247 67.6831 104.171C68.2231 104.636 68.8185 105.033 69.4559 105.352C69.7659 105.535 70.1021 105.661 70.4252 105.814C70.7658 105.927 71.0976 106.08 71.4469 106.171C72.8646 106.582 74.3228 106.837 75.7958 106.934C74.2949 107.184 72.76 107.149 71.2723 106.829Z" fill="black"/>
<path d="M81.3454 68.7848L81.3235 68.7935C81.472 66.0574 80.0791 60.1538 80.0791 60.1538C80.0791 60.1538 72.652 60.5154 71.6434 60.254C71.6434 60.254 69.4297 60.2104 69.6436 66.8764C69.6436 66.8764 67.3208 64.6587 67.8491 67.4428C67.9451 67.9483 68.0456 68.3883 68.1503 68.7674C63.7185 65.9354 69.0629 54.2415 69.0847 55.261C69.1202 55.5777 69.2653 55.872 69.4952 56.0931C70.4121 57.1214 71.8399 55.9973 73.1192 55.5529C73.3768 55.4614 73.6257 55.383 73.8702 55.3134C74.8301 55.0434 75.8391 54.9952 76.8204 55.1726C77.8017 55.35 78.7296 55.7483 79.5336 56.3371C80.3376 56.926 80.9965 57.6899 81.4602 58.571C81.9239 59.452 82.1803 60.4269 82.2099 61.4216C82.3011 63.9057 82.0095 66.389 81.3454 68.7848Z" fill="black"/>
<path d="M72.5819 75.4842C71.8906 75.1069 71.2794 74.5993 70.7822 73.9894C70.5319 73.6822 70.3193 73.3463 70.1491 72.9887C69.9826 72.6293 69.8888 72.2407 69.873 71.845C69.9933 72.2079 70.1511 72.5574 70.344 72.8876C70.5416 73.2103 70.761 73.5193 71.0006 73.8124C71.4952 74.3994 72.0232 74.9576 72.5819 75.4842Z" fill="black"/>
<path d="M74.7434 76.344C74.9359 76.412 75.1377 76.4504 75.3418 76.458C75.5425 76.4776 75.7429 76.5052 75.9457 76.5308C76.1469 76.565 76.3504 76.5973 76.5537 76.6494C76.7654 76.6972 76.971 76.7687 77.1667 76.8624C76.7521 76.9975 76.311 77.0315 75.8805 76.9613C75.6638 76.9299 75.4522 76.8704 75.2509 76.7843C75.1408 76.7491 75.0391 76.6919 74.9518 76.6162C74.8645 76.5405 74.7936 76.4479 74.7434 76.344Z" fill="black"/>
<path d="M81.3517 68.7952C81.3486 68.9968 81.333 69.1979 81.305 69.3975C81.2714 69.6012 81.223 69.79 81.181 69.9869L80.912 71.1562C80.7288 71.938 80.5054 72.7098 80.2425 73.4686C79.9879 74.2413 79.6471 74.9831 79.2267 75.6801C79.0075 76.0416 78.7296 76.3642 78.4044 76.6348C78.0562 76.9299 77.6131 77.0902 77.1563 77.0863L77.3817 76.9275C77.2803 77.4181 77.2718 77.9233 77.3569 78.417C77.378 78.5425 77.4016 78.6676 77.4314 78.7913C77.4494 78.8691 77.4622 78.948 77.4698 79.0274C77.4738 79.1052 77.4725 79.1832 77.466 79.2608C77.4372 79.5445 77.3784 79.8243 77.2904 80.0956C76.9423 81.1313 76.447 82.1118 75.8196 83.0071C75.514 83.4631 75.1629 83.8869 74.7715 84.272C74.3781 84.6954 73.871 84.9971 73.3106 85.141C73.1565 85.1707 72.998 85.1694 72.8445 85.1372C72.6996 85.1013 72.5592 85.0496 72.4257 84.9832C72.1752 84.8535 71.943 84.6915 71.7349 84.5014C71.3279 84.1366 70.968 83.7227 70.6635 83.2691C70.0465 82.3828 69.5576 81.4142 69.2112 80.3919C69.0371 79.8814 68.9112 79.3557 68.8351 78.8217C68.7449 78.2846 68.7502 77.7359 68.851 77.2007C69.0717 76.1592 69.2363 75.1067 69.3442 74.0477C69.469 72.9894 69.5847 71.9299 69.6914 70.8692L69.8952 71.0625C69.708 71.0983 69.5147 71.0872 69.3328 71.0303C69.1536 70.9685 68.9911 70.8663 68.8578 70.7317C68.6207 70.4798 68.4327 70.1861 68.3033 69.8655C68.0549 69.2609 67.8649 68.634 67.7358 67.9933C67.6475 67.6753 67.5819 67.3515 67.5392 67.0242C67.5174 66.8465 67.5157 66.6669 67.5341 66.4887C67.5405 66.3731 67.5716 66.2602 67.6251 66.1575C67.6787 66.0547 67.7535 65.9645 67.8446 65.8929C67.9471 65.8318 68.0622 65.7947 68.1811 65.7845C68.3 65.7743 68.4197 65.7911 68.5312 65.8338C68.7034 65.8918 68.8682 65.9696 69.0223 66.0657C69.3108 66.2448 69.5814 66.4511 69.8302 66.6819L69.3739 66.8851C69.3639 66.2665 69.3421 65.6483 69.373 65.0268C69.3903 64.4022 69.4485 63.7794 69.5472 63.1624C69.639 62.5284 69.8198 61.9106 70.0843 61.327C70.1567 61.1796 70.2419 61.0355 70.3258 60.892C70.421 60.7491 70.5282 60.6145 70.6463 60.4897C70.768 60.3567 70.909 60.2427 71.0645 60.1514C71.1457 60.1014 71.2319 60.0601 71.3218 60.0283C71.4267 59.9893 71.5372 59.9674 71.6491 59.9635L71.6639 59.9644L71.7167 59.9728L71.935 60.0077L72.1871 60.0268C72.3531 60.0429 72.5309 60.0421 72.7022 60.0506C73.0492 60.0597 73.3981 60.0636 73.7488 60.0625L75.853 60.0375C77.2574 60.0171 78.6639 59.9788 80.0682 59.9306L80.0748 59.9302C80.1262 59.9285 80.1767 59.9448 80.2173 59.9763C80.258 60.0078 80.2863 60.0525 80.2973 60.1027C80.6122 61.5342 80.8602 62.9736 81.0718 64.421C81.1791 65.1441 81.2605 65.8709 81.3158 66.6014C81.3826 67.3307 81.3946 68.0639 81.3517 68.795C81.3514 68.7987 81.3504 68.8023 81.3488 68.8056C81.3471 68.8089 81.3448 68.8118 81.342 68.8142C81.3392 68.8166 81.3359 68.8185 81.3324 68.8196C81.3289 68.8208 81.3251 68.8212 81.3214 68.8209C81.3143 68.8203 81.3076 68.8169 81.3028 68.8116C81.2979 68.8062 81.2953 68.7993 81.2955 68.7921C81.2963 68.0651 81.2426 67.3392 81.1348 66.6202C81.0378 65.9 80.9145 65.1832 80.7843 64.4677C80.5245 63.0374 80.1968 61.6163 79.8611 60.2052L80.0901 60.3772C78.6828 60.4599 77.2754 60.5297 75.8676 60.5868C75.1631 60.6174 74.4578 60.6263 73.7506 60.6327C73.3971 60.6359 73.0424 60.6337 72.6864 60.6261C72.5064 60.6183 72.3317 60.6202 72.1472 60.6039L71.8731 60.5842L71.5703 60.5354L71.6377 60.5446C71.5393 60.5628 71.4454 60.6001 71.3613 60.6542C71.2525 60.7191 71.1544 60.8004 71.0704 60.8951C70.9786 60.9937 70.895 61.0997 70.8206 61.212C70.752 61.3334 70.6806 61.4541 70.6186 61.5813C70.3844 62.1188 70.2196 62.6838 70.1282 63.2628C70.0256 63.8544 69.9618 64.4522 69.9371 65.0521C69.8988 65.6546 69.9121 66.2615 69.9135 66.8678V66.8735C69.9136 66.9263 69.8982 66.9779 69.8692 67.0221C69.8402 67.0663 69.7989 67.101 69.7504 67.1221C69.7019 67.1431 69.6482 67.1495 69.5961 67.1404C69.544 67.1313 69.4956 67.1073 69.4571 67.0711C69.2384 66.8634 69.0006 66.6767 68.7468 66.5136C68.63 66.4381 68.5049 66.3761 68.3741 66.3288C68.2542 66.2899 68.1544 66.2925 68.1341 66.3163C68.1005 66.3261 68.0529 66.4293 68.0368 66.5562C68.0195 66.6963 68.0175 66.8378 68.0306 66.9783C68.0624 67.2867 68.1157 67.5925 68.1902 67.8935C68.2954 68.5116 68.4592 69.1184 68.6793 69.7057C68.8982 70.2661 69.2732 70.8287 69.8374 70.716C69.8641 70.7106 69.8918 70.7117 69.918 70.7191C69.9442 70.7265 69.9683 70.7401 69.9883 70.7586C70.0083 70.7771 70.0235 70.8002 70.0328 70.8257C70.0421 70.8513 70.0452 70.8787 70.0418 70.9057L70.0413 70.9092C69.9024 71.9685 69.7542 73.0259 69.5966 74.0815C69.4297 75.1352 69.2849 76.1972 69.0371 77.239C68.8744 78.2825 68.9967 79.3505 69.3911 80.3306C69.7383 81.33 70.239 82.2696 70.8754 83.1155C71.1829 83.5377 71.5417 83.9201 71.9438 84.2539C72.1362 84.417 72.3491 84.5544 72.5771 84.6626C72.6845 84.7109 72.7965 84.7483 72.9114 84.7739C73.0208 84.793 73.1329 84.7893 73.2407 84.7631C73.7139 84.6135 74.1354 84.3342 74.4571 83.9571C74.8138 83.5796 75.1376 83.1724 75.4251 82.74C76.0076 81.8728 76.4754 80.9341 76.8167 79.9472C76.8971 79.7121 76.9528 79.4692 76.9829 79.2225C76.9885 79.1674 76.9906 79.1119 76.989 79.0565C76.9845 79.0032 76.9764 78.9502 76.9648 78.898C76.9342 78.7619 76.9103 78.6245 76.8893 78.4868C76.8004 77.925 76.8217 77.3513 76.9519 76.7975C76.9638 76.7503 76.9918 76.7085 77.031 76.6795C77.0703 76.6504 77.1184 76.6358 77.1672 76.6382L77.1775 76.6387C77.5284 76.6432 77.8692 76.5217 78.1378 76.2963C78.4291 76.0559 78.6828 75.7734 78.8904 75.4582C79.3194 74.8001 79.6733 74.0962 79.9457 73.3596C80.2317 72.6202 80.4779 71.8639 80.7114 71.1019L81.0453 69.9528C81.0968 69.7615 81.1592 69.5662 81.2058 69.3787C81.2478 69.1851 81.2777 68.9891 81.2955 68.7919C81.2962 68.7846 81.2996 68.7779 81.3052 68.7731C81.3108 68.7684 81.3179 68.766 81.3252 68.7664C81.3325 68.7669 81.3394 68.7701 81.3443 68.7755C81.3492 68.7809 81.3519 68.788 81.3517 68.7953L81.3517 68.7952Z" fill="black"/>
<path d="M81.1002 64.8277C80.8408 64.698 80.5996 64.5722 80.3592 64.4626C80.1326 64.3527 79.8922 64.2739 79.6445 64.2282C79.4153 64.1869 79.1792 64.2106 78.9629 64.2965C78.7227 64.4091 78.5008 64.557 78.3047 64.7354C78.3753 64.4402 78.5491 64.1798 78.7947 64.0008C79.0631 63.8154 79.3938 63.7428 79.7154 63.7986C80.0154 63.8543 80.2971 63.983 80.5355 64.1732C80.7695 64.3475 80.9623 64.5709 81.1002 64.8277Z" fill="black"/>
<path d="M74.4823 64.3032C73.9313 64.0223 73.3142 63.8958 72.6969 63.9373C72.4023 63.9698 72.1162 64.0555 71.8525 64.1904C71.7088 64.2455 71.5859 64.3433 71.4425 64.4153C71.3072 64.4999 71.1797 64.5984 71.0286 64.6816C71.1077 64.5326 71.1985 64.3901 71.3002 64.2554C71.4109 64.1239 71.536 64.0052 71.673 63.9014C71.9554 63.6819 72.2931 63.5446 72.6487 63.5046C73.0042 63.4656 73.3637 63.5232 73.6891 63.6711C74.0049 63.8081 74.2786 64.0262 74.4823 64.3032Z" fill="black"/>
<path d="M78.3951 68.817C78.3605 69.0357 78.2662 69.2406 78.1227 69.4093C77.9791 69.5781 77.7917 69.7041 77.5811 69.7736C77.3707 69.8482 77.1451 69.8699 76.9244 69.8366C76.7096 69.808 76.5065 69.7226 76.3359 69.5892C76.5519 69.5459 76.7419 69.532 76.9233 69.4967C77.0969 69.468 77.2675 69.4236 77.4331 69.364C77.5985 69.3068 77.7576 69.2329 77.9079 69.1432C78.0757 69.0427 78.2383 68.9339 78.3951 68.817Z" fill="black"/>
<path d="M79.2143 67.1475C79.3841 67.1416 79.5449 67.0701 79.6629 66.9482C79.7809 66.8263 79.8468 66.6635 79.8468 66.494C79.8468 66.3245 79.7809 66.1617 79.6629 66.0398C79.5449 65.9179 79.3841 65.8464 79.2143 65.8405C79.0446 65.8464 78.8837 65.9179 78.7657 66.0398C78.6477 66.1617 78.5818 66.3245 78.5818 66.494C78.5818 66.6635 78.6477 66.8263 78.7657 66.9482C78.8837 67.0701 79.0446 67.1416 79.2143 67.1475Z" fill="black"/>
<path d="M73.4528 67.0779C73.6226 67.072 73.7834 67.0006 73.9014 66.8787C74.0194 66.7568 74.0853 66.5939 74.0853 66.4245C74.0853 66.255 74.0194 66.0921 73.9014 65.9702C73.7834 65.8483 73.6226 65.7769 73.4528 65.771C73.2831 65.7769 73.1222 65.8483 73.0043 65.9702C72.8863 66.0921 72.8203 66.255 72.8203 66.4245C72.8203 66.5939 72.8863 66.7568 73.0043 66.8787C73.1222 67.0006 73.2831 67.072 73.4528 67.0779Z" fill="black"/>
<path d="M75.5433 71.1278C75.4588 71.3759 75.4714 71.6468 75.5788 71.8859C75.6757 72.1071 75.8256 72.3011 76.0152 72.4509C76.2002 72.6045 76.421 72.7091 76.6572 72.7552C76.7842 72.7803 76.915 72.7801 77.0419 72.7546C77.1688 72.7291 77.2894 72.6787 77.3968 72.6064C77.3322 72.7521 77.2265 72.8759 77.0926 72.9626C76.9587 73.0494 76.8024 73.0954 76.6428 73.0949C76.3146 73.1062 75.9936 72.9974 75.7402 72.7891C75.4853 72.5847 75.3119 72.2962 75.2514 71.9755C75.2158 71.8211 75.2242 71.6598 75.2758 71.51C75.3274 71.3601 75.4201 71.2277 75.5433 71.1278Z" fill="black"/>
<path d="M63.5454 64.7798L61.0331 59.8449L58.4926 54.9279C57.639 53.2934 56.7696 51.6669 55.8574 50.0677C55.4064 49.2656 54.9493 48.4671 54.4633 47.6899C54.2201 47.3019 53.9698 46.9186 53.7049 46.5506C53.4664 46.1897 53.1778 45.8642 52.8478 45.584L52.8403 45.5786C52.8165 45.5616 52.7963 45.54 52.7809 45.5152C52.7654 45.4903 52.755 45.4627 52.7503 45.4338C52.7455 45.4049 52.7466 45.3754 52.7532 45.3469C52.7599 45.3185 52.7722 45.2916 52.7893 45.2678C52.8081 45.242 52.8321 45.2204 52.8598 45.2044C52.977 45.1197 53.0689 45.0046 53.1255 44.8717C53.1901 44.7169 53.2265 44.5519 53.2331 44.3844C53.238 44.0227 53.1807 43.6628 53.0635 43.3204C52.9426 42.9652 52.7935 42.6201 52.6177 42.2884C52.4471 41.9505 52.2426 41.6292 52.0431 41.3046L52.0381 41.2964C52.0293 41.2821 52.0233 41.2662 52.0205 41.2496L51.6825 39.2562L51.6004 38.7568L51.5604 38.5058L51.5421 38.3801C51.5357 38.3471 51.5264 38.3147 51.5142 38.2833C51.4622 38.1423 51.3782 38.0152 51.2687 37.9119C51.1593 37.8087 51.0274 37.7321 50.8833 37.6882C50.6072 37.641 50.356 37.9251 50.3381 38.2226C50.3301 38.5388 50.3391 38.8899 50.3413 39.2217C50.3464 39.5578 50.3489 39.8947 50.3682 40.2286C50.3875 40.3244 50.3821 40.4236 50.3527 40.5168C50.3232 40.6101 50.2706 40.6943 50.1997 40.7618C50.0472 40.8795 49.8565 40.9368 49.6642 40.9228C49.3088 40.8966 48.9668 40.7766 48.6733 40.5749C48.5264 40.4827 48.3898 40.3649 48.2619 40.2729C48.1286 40.1783 47.987 40.0915 47.8427 40.0085C47.2556 39.6844 46.6494 39.396 46.0275 39.1447L45.0913 38.7685C44.7911 38.6385 44.481 38.5324 44.1641 38.4512C44.0297 38.4146 43.8876 38.4173 43.7547 38.459C43.6218 38.5007 43.5038 38.5796 43.4146 38.6864C43.3164 38.9646 43.3285 39.2698 43.4482 39.5395C43.4578 39.5698 43.4586 39.6022 43.4503 39.6329C43.4421 39.6636 43.4252 39.6913 43.4017 39.7127C43.3781 39.7342 43.3489 39.7484 43.3175 39.7538C43.2861 39.7591 43.2539 39.7554 43.2245 39.743L43.2221 39.742L42.4114 39.3986C42.1709 39.2713 41.9073 39.1931 41.6361 39.1686C41.3948 39.1494 41.155 39.2219 40.9649 39.3715C40.8281 39.4976 40.8511 39.7307 40.9554 39.9731C40.9707 40.0088 40.9757 40.0481 40.9697 40.0865C40.9636 40.1249 40.9469 40.1608 40.9214 40.1901C40.8959 40.2194 40.8626 40.241 40.8254 40.2523C40.7882 40.2637 40.7485 40.2643 40.7109 40.2542L40.7034 40.2522C40.3984 40.1695 40.0887 40.1046 39.7761 40.058C39.4873 40.003 39.191 40.0005 38.9013 40.0505C38.7858 40.0861 38.6805 40.1487 38.594 40.2331C38.5076 40.3175 38.4425 40.4212 38.4043 40.5357C38.3512 40.7328 38.487 40.9512 38.6993 41.1392C38.7458 41.1804 38.7755 41.2372 38.7828 41.2988C38.7902 41.3604 38.7746 41.4226 38.739 41.4734L38.7353 41.4786C38.6601 41.5717 38.605 41.6792 38.5734 41.7945C38.5418 41.9098 38.5345 42.0304 38.5518 42.1487C38.5952 42.298 38.8525 42.4112 39.1401 42.4441C39.3093 42.458 39.4774 42.4819 39.6438 42.5156C39.8126 42.5558 39.9788 42.6066 40.1412 42.6679C40.4553 42.7873 40.7609 42.9276 41.0561 43.088C41.6336 43.4041 42.1919 43.7539 42.7281 44.1358C43.2644 44.5135 43.7816 44.9052 44.2913 45.3256L44.26 45.3024C45.1558 45.8711 46.0507 46.4457 46.9544 46.9993C47.4054 47.2743 47.8613 47.5536 48.3144 47.7978L48.4799 47.8817L48.728 47.991C48.7762 48.0343 48.8168 48.0852 48.8483 48.1418L48.9052 48.241L49.0016 48.4279C49.1228 48.6737 49.2325 48.9174 49.3413 49.1623C50.2023 51.1187 50.9531 53.1078 51.6883 55.1055C52.4225 57.1027 53.1151 59.1156 53.7327 61.153C54.0416 62.1715 54.3396 63.1941 54.5849 64.2311C54.8619 65.2621 55.0292 66.3194 55.084 67.3854C55.0841 67.3891 55.0834 67.3927 55.0821 67.3962C55.0807 67.3996 55.0787 67.4027 55.0761 67.4053C55.0735 67.408 55.0704 67.4101 55.067 67.4115C55.0636 67.413 55.06 67.4138 55.0563 67.4138C55.0489 67.4135 55.0419 67.4105 55.0366 67.4054C55.0313 67.4002 55.0282 67.3933 55.0277 67.3859C54.924 66.3321 54.7094 65.292 54.3874 64.283C54.0894 63.2659 53.7691 62.2554 53.4262 61.2514C52.7378 59.245 51.997 57.2559 51.2337 55.2762C50.4618 53.3009 49.6644 51.3303 48.8173 49.3947C48.7096 49.1546 48.5999 48.9142 48.4852 48.6841L48.3983 48.5171L48.3558 48.4436C48.3516 48.4296 48.3078 48.3841 48.3581 48.4347C48.3827 48.4492 48.3553 48.4439 48.4473 48.4819C48.4731 48.4896 48.5001 48.4933 48.5271 48.493L48.5075 48.4916C48.4811 48.4892 48.455 48.4852 48.4291 48.4796C48.4015 48.4726 48.3743 48.4638 48.3478 48.4534C48.2991 48.4361 48.273 48.4216 48.2346 48.4053L48.0438 48.3098C47.5592 48.051 47.1066 47.7754 46.6482 47.4988C45.737 46.9421 44.8336 46.3795 43.9384 45.7998L43.9101 45.7791L43.907 45.7765C42.9387 44.9482 41.8965 44.21 40.7935 43.5711C40.5218 43.4194 40.2403 43.2861 39.9507 43.1722C39.811 43.1176 39.668 43.0719 39.5224 43.0354C39.3719 43.0037 39.2196 42.981 39.0663 42.9673C38.8777 42.9441 38.694 42.8908 38.5222 42.8096C38.312 42.7143 38.1475 42.5405 38.0642 42.3256C37.9972 42.1176 37.9996 41.8936 38.071 41.6872C38.1288 41.5055 38.2147 41.334 38.3255 41.1788L38.3614 41.518C38.2154 41.3883 38.0942 41.2332 38.0036 41.0603C37.9045 40.8615 37.8791 40.6342 37.932 40.4185C37.9896 40.2171 38.1032 40.0361 38.2598 39.8965C38.4058 39.7575 38.5844 39.6571 38.7792 39.6045C39.1321 39.5426 39.4937 39.5492 39.8442 39.6239C40.1742 39.681 40.5007 39.7575 40.8217 39.8529L40.5698 40.1319C40.5024 39.9716 40.4659 39.7999 40.4622 39.626C40.4616 39.5263 40.4811 39.4274 40.5196 39.3354C40.5582 39.2433 40.6149 39.1599 40.6865 39.0903C40.8205 38.9794 40.9752 38.8962 41.1417 38.8454C41.3082 38.7947 41.4832 38.7774 41.6564 38.7947C41.9712 38.828 42.2761 38.9232 42.5538 39.0747L43.3561 39.4372L43.13 39.6396C43.0587 39.4625 43.0236 39.273 43.0268 39.0823C43.03 38.8915 43.0713 38.7032 43.1484 38.5286C43.2043 38.4405 43.2774 38.3645 43.3633 38.3051C43.4492 38.2457 43.5463 38.2042 43.6486 38.1831C43.8333 38.1408 44.0246 38.1369 44.2109 38.1717C44.546 38.2633 44.8729 38.383 45.188 38.5293L46.1201 38.9316C46.7365 39.2114 47.3516 39.4955 47.9433 39.836C48.0906 39.9226 48.236 40.0133 48.3767 40.1153C48.5212 40.2219 48.6392 40.3269 48.7774 40.4156C49.0408 40.6009 49.3486 40.7135 49.6695 40.7421C49.8171 40.7557 49.9646 40.7153 50.0845 40.6285C50.136 40.5789 50.1735 40.5167 50.1932 40.448C50.2129 40.3793 50.2141 40.3067 50.1966 40.2374L50.1637 39.225C50.1577 38.8837 50.1433 38.5611 50.1487 38.2044C50.1633 38.0134 50.2411 37.8327 50.3699 37.6908C50.4373 37.6165 50.5214 37.5593 50.6154 37.5239C50.7094 37.4886 50.8104 37.4761 50.9102 37.4876C51.0998 37.5203 51.2736 37.614 51.4049 37.7544C51.5362 37.8825 51.6413 38.0349 51.7143 38.203C51.7334 38.2499 51.7477 38.2986 51.757 38.3483L51.7766 38.4721L51.8191 38.7196L51.9121 39.2151L52.3117 41.1946L52.2891 41.1397C52.5034 41.4647 52.7227 41.7868 52.9106 42.1313C53.1063 42.4744 53.274 42.8327 53.4119 43.2027C53.5555 43.586 53.6312 43.9913 53.6355 44.4004C53.6452 44.6304 53.5982 44.8592 53.4985 45.0668C53.3988 45.2744 53.2495 45.4543 53.0638 45.5908L53.0758 45.2113C53.4692 45.5069 53.8099 45.8666 54.0836 46.2752C54.3616 46.6539 54.62 47.0417 54.8707 47.4333C55.3698 48.2177 55.8423 49.0148 56.2974 49.821C57.1955 51.4398 58.0474 53.0801 58.8832 54.728C59.7249 56.3729 60.513 58.044 61.3061 59.7116C62.0962 61.3809 62.8596 63.0623 63.5964 64.756C63.5994 64.7627 63.5996 64.7703 63.597 64.7772C63.5944 64.784 63.5892 64.7896 63.5826 64.7927C63.5759 64.7959 63.5683 64.7962 63.5614 64.7938C63.5544 64.7914 63.5487 64.7864 63.5454 64.7798L63.5454 64.7798Z" fill="black"/>
<path d="M50.2592 47.5151C49.7767 47.9552 49.1816 48.2536 48.5398 48.3774C48.5088 48.3833 48.4768 48.383 48.4459 48.3766C48.4149 48.3701 48.3856 48.3577 48.3594 48.3399C48.3333 48.3221 48.311 48.2994 48.2936 48.273C48.2763 48.2466 48.2644 48.2171 48.2586 48.1861C48.2527 48.1551 48.253 48.1232 48.2595 48.0924C48.266 48.0615 48.2785 48.0322 48.2963 48.0062C48.3142 47.9801 48.337 47.9578 48.3635 47.9406C48.3899 47.9234 48.4196 47.9115 48.4506 47.9057C48.4713 47.902 48.4923 47.9008 48.5132 47.9022C49.1198 47.9355 49.7239 47.8016 50.2592 47.5151Z" fill="black"/>
<path d="M49.8191 41.8616C49.9703 42.3207 50.0796 42.7695 50.2336 43.2008C50.3044 43.4162 50.3907 43.6263 50.4918 43.8293C50.5945 44.0366 50.725 44.2289 50.8799 44.4008C50.649 44.3069 50.4498 44.1491 50.3057 43.9459C50.1595 43.747 50.0455 43.5265 49.9677 43.2925C49.8067 42.8336 49.7559 42.3436 49.8191 41.8616Z" fill="black"/>
<path d="M46.7513 41.1315L43.12 39.7198C43.0852 39.7063 43.0572 39.6795 43.0422 39.6454C43.0271 39.6113 43.0263 39.5726 43.0399 39.5379C43.0534 39.5031 43.0803 39.4752 43.1145 39.4602C43.1487 39.4452 43.1875 39.4444 43.2223 39.4579L43.2316 39.4619L46.7513 41.1315Z" fill="black"/>
<path d="M44.996 41.8266L40.7097 40.2194C40.6923 40.2129 40.6763 40.2031 40.6627 40.1906C40.6491 40.178 40.6381 40.1628 40.6304 40.146C40.6227 40.1291 40.6184 40.1109 40.6178 40.0924C40.6171 40.0739 40.6202 40.0555 40.6267 40.0382C40.6332 40.0208 40.6431 40.005 40.6558 39.9915C40.6685 39.978 40.6837 39.9671 40.7007 39.9595C40.7176 39.9519 40.7358 39.9477 40.7544 39.9471C40.7729 39.9466 40.7914 39.9497 40.8087 39.9563L40.8168 39.9595L44.996 41.8266Z" fill="black"/>
<path d="M43.1023 42.5005C42.3529 42.2477 41.5958 42.0175 40.8332 41.8152C40.4513 41.7169 40.0682 41.6239 39.6831 41.5516C39.3125 41.4687 38.9317 41.4403 38.5528 41.4673L38.537 41.4695C38.5187 41.472 38.5001 41.4708 38.4822 41.4661C38.4643 41.4614 38.4475 41.4532 38.4328 41.4421C38.418 41.4309 38.4057 41.4169 38.3964 41.401C38.387 41.385 38.381 41.3674 38.3785 41.3491C38.376 41.3308 38.3771 41.3122 38.3818 41.2944C38.3866 41.2765 38.3948 41.2598 38.406 41.2451C38.4172 41.2304 38.4311 41.218 38.4471 41.2088C38.4631 41.1995 38.4808 41.1934 38.4991 41.1909L38.508 41.19C38.9203 41.1793 39.3317 41.2318 39.728 41.3457C40.1156 41.4426 40.4954 41.559 40.873 41.6806C41.6264 41.9289 42.3695 42.2023 43.1023 42.5005Z" fill="black"/>
<path d="M93.5524 67.3674L95.1652 61.3848L95.9591 58.3923C96.0855 57.893 96.2134 57.3924 96.3231 56.8935C96.4263 56.3939 96.503 55.8893 96.5529 55.3817C96.7837 53.3356 96.9736 51.2774 97.1889 49.2226C97.2945 48.1947 97.4105 47.1669 97.5369 46.1391C97.6007 45.6253 97.6729 45.1112 97.7535 44.5969C97.8028 44.3391 97.8455 44.0829 97.9026 43.8237L97.9989 43.433C98.0438 43.2902 98.0966 43.1501 98.1572 43.0133C98.1715 42.977 98.1987 42.9474 98.2335 42.93L98.2664 42.9136C98.7285 42.6761 99.1679 42.397 99.579 42.0795C99.9981 41.7632 100.392 41.4152 100.758 41.0386C101.492 40.2856 102.113 39.4308 102.602 38.5007L102.605 38.4947C102.614 38.4768 102.627 38.4604 102.641 38.4461L105.317 35.812C105.4 35.7145 105.453 35.596 105.471 35.4699C105.495 35.3312 105.499 35.1896 105.482 35.0498C105.473 34.9327 105.419 34.8235 105.33 34.7459C105.231 34.6814 105.112 34.6565 104.995 34.6762C104.867 34.6977 104.748 34.7552 104.651 34.8422L104.319 35.1666C104.092 35.3863 103.861 35.6025 103.625 35.8131C103.161 36.2582 102.639 36.6381 102.073 36.9425C101.99 36.9788 101.902 37.0022 101.811 37.0117C101.753 37.0192 101.695 37.0109 101.641 36.9876C101.587 36.9643 101.541 36.9269 101.507 36.8795C101.465 36.7945 101.442 36.7018 101.438 36.6073C101.435 36.5128 101.451 36.4186 101.485 36.3306C101.598 36.0246 101.758 35.738 101.96 35.4814C102.345 34.9775 102.767 34.503 103.222 34.0619C103.692 33.6603 104.062 33.156 104.303 32.5883C104.411 32.3087 104.375 31.9913 104.099 31.8856C103.965 31.8329 103.82 31.8162 103.678 31.837C103.536 31.8578 103.401 31.9155 103.289 32.0042C102.768 32.3415 102.301 32.7536 101.901 33.2272C101.695 33.461 101.493 33.6997 101.302 33.947C101.103 34.1882 100.94 34.4529 100.711 34.6941C100.598 34.8129 100.473 34.9197 100.338 35.0129C100.269 35.0621 100.196 35.1055 100.12 35.1426C100.072 35.173 100.017 35.1912 99.9599 35.1954C99.903 35.1996 99.8458 35.1898 99.7935 35.1668C99.7602 35.1453 99.7331 35.1154 99.715 35.0801C99.7039 35.0514 99.6954 35.0218 99.6896 34.9915C99.6844 34.9434 99.6852 34.8949 99.6918 34.847C99.7025 34.7626 99.721 34.6793 99.7473 34.5984C99.7948 34.4438 99.8514 34.2922 99.9169 34.1443C100.046 33.8502 100.2 33.5678 100.378 33.3003L100.914 32.5241C101.264 32.0123 101.571 31.4723 101.832 30.9097C101.96 30.648 102.036 30.3636 102.054 30.0728C102.053 30.0151 102.04 29.9583 102.015 29.906C101.991 29.8537 101.956 29.8071 101.912 29.7693C101.874 29.7308 101.827 29.7023 101.775 29.6866C101.723 29.6708 101.668 29.6683 101.615 29.6791C101.349 29.7606 101.113 29.9197 100.937 30.136C100.734 30.3603 100.555 30.605 100.403 30.8662C100.241 31.1293 100.111 31.3961 99.9706 31.6861C99.8268 31.9737 99.67 32.2505 99.5064 32.5233C99.1823 33.0763 98.815 33.6029 98.4079 34.0981C98.3539 34.1605 98.297 34.2224 98.2341 34.2831C98.2017 34.3152 98.1677 34.3457 98.1321 34.3743C98.1085 34.3964 98.082 34.4151 98.0533 34.4301C98.0309 34.4422 98.0078 34.4528 97.984 34.4619C97.943 34.4718 97.9005 34.4742 97.8585 34.4689C97.7843 34.4563 97.7178 34.4157 97.6726 34.3557C97.6476 34.3225 97.6279 34.2856 97.6143 34.2464C97.596 34.1946 97.5828 34.1412 97.5749 34.0869C97.5633 33.9997 97.5569 33.912 97.5558 33.8241C97.5555 33.5003 97.574 33.1767 97.6114 32.855C97.7096 32.226 97.8419 31.6028 98.0076 30.9881C98.0737 30.7012 98.1049 30.4074 98.1007 30.1131C98.1036 29.8332 98.0547 29.5551 97.9566 29.2929C97.909 29.1819 97.8322 29.1054 97.8208 29.1141C97.8141 29.122 97.8157 29.1116 97.8041 29.1145C97.7919 29.1227 97.7778 29.1278 97.7631 29.1293C97.7184 29.1573 97.6765 29.1897 97.6382 29.226C97.4446 29.4384 97.2806 29.6758 97.1506 29.932C96.858 30.4639 96.6319 31.0297 96.4775 31.6166C96.399 31.9114 96.3343 32.2103 96.2794 32.5139C96.2192 32.823 96.1904 33.113 96.1049 33.4647C95.9409 34.0974 95.6999 34.7078 95.3875 35.2822C95.216 35.6221 94.9403 35.8984 94.6005 36.0711C94.4888 36.1156 94.3685 36.1344 94.2485 36.1262C94.1877 36.1232 94.1272 36.1154 94.0675 36.1029L93.9121 36.0361C93.7356 35.9484 93.5792 35.8251 93.4529 35.6741C92.9679 35.1031 92.8626 34.4218 92.5555 33.9922C92.492 33.8943 92.4074 33.8116 92.308 33.7503C92.2086 33.6889 92.0967 33.6504 91.9806 33.6375C91.8514 33.6213 91.7207 33.6229 91.592 33.6419L91.3926 33.6771C91.3428 33.6988 91.2774 33.7134 91.2384 33.7347C91.1543 33.79 91.1737 33.7752 91.1666 33.8347C91.1856 33.9454 91.2272 34.051 91.2889 34.1449C91.4303 34.3885 91.6225 34.6371 91.8055 34.9029C91.9031 35.0398 91.9923 35.1825 92.0726 35.3302C92.1595 35.4898 92.2247 35.6602 92.2667 35.837C92.3433 36.1679 92.3822 36.4817 92.4244 36.7981L92.6436 38.6671C92.6857 38.9738 92.7303 39.2801 92.793 39.5743C92.8219 39.7168 92.8596 39.8574 92.9057 39.9952C92.9347 40.0958 92.9804 40.1908 93.041 40.2763L93.106 40.3771C93.1249 40.4066 93.1372 40.4397 93.1422 40.4743C93.1471 40.5089 93.1445 40.5442 93.1346 40.5777C92.5475 42.5419 91.9267 44.4962 91.3244 46.4558L89.5045 52.3309L87.6845 58.206L85.8204 64.0678C85.8182 64.0749 85.8133 64.0807 85.8067 64.0842C85.8002 64.0877 85.7926 64.0884 85.7855 64.0863C85.7784 64.0842 85.7724 64.0794 85.7689 64.0729C85.7653 64.0665 85.7644 64.0589 85.7664 64.0518L87.437 58.132L89.1518 52.2255L90.8666 46.319C91.4425 44.3515 92 42.3784 92.5911 40.4154L92.6847 40.7168C92.5992 40.6371 92.5286 40.5428 92.4763 40.4382C92.4316 40.3567 92.3954 40.2708 92.3686 40.1818C92.3142 40.0221 92.2698 39.8592 92.2356 39.6941C92.1666 39.3741 92.1201 39.0585 92.0757 38.7432L91.8503 36.8707C91.809 36.565 91.7678 36.2549 91.7016 35.9738C91.6252 35.7051 91.4971 35.4538 91.3244 35.234C91.1512 34.9824 90.9549 34.7346 90.7788 34.4354C90.6698 34.2646 90.6014 34.0711 90.579 33.8698C90.5691 33.8036 90.574 33.736 90.5934 33.672C90.6044 33.6007 90.632 33.533 90.6739 33.4742C90.7444 33.3649 90.8425 33.2759 90.9583 33.2163C91.0507 33.1727 91.1461 33.136 91.2439 33.1065L91.5088 33.0575C91.6914 33.0301 91.8768 33.028 92.06 33.051C92.2567 33.0755 92.446 33.1414 92.6152 33.2444C92.7845 33.3475 92.9299 33.4852 93.0417 33.6486C93.4485 34.2577 93.546 34.8943 93.8974 35.2873C93.9714 35.3789 94.0633 35.4545 94.1675 35.5096C94.1879 35.5187 94.2076 35.5292 94.2266 35.5409C94.2456 35.5451 94.2621 35.54 94.2791 35.544C94.3126 35.5611 94.3496 35.5318 94.3877 35.53C94.6048 35.4024 94.7803 35.2148 94.8928 34.9898C95.1836 34.4603 95.4094 33.8978 95.5653 33.3145C95.6314 33.0563 95.6747 32.7205 95.7358 32.4136C95.7951 32.0996 95.8657 31.7849 95.9514 31.4732C96.1222 30.8453 96.3695 30.2407 96.6878 29.6729C96.8455 29.3697 97.0456 29.0905 97.2821 28.8435C97.3583 28.7725 97.4433 28.7114 97.5349 28.6618C97.5948 28.6387 97.6559 28.6189 97.718 28.6025C97.7904 28.5941 97.8636 28.5962 97.9354 28.6087C98.0487 28.6445 98.1521 28.7061 98.2376 28.7886C98.323 28.8711 98.3881 28.9722 98.4277 29.084C98.5529 29.4104 98.6143 29.7577 98.6087 30.1071C98.6098 30.4413 98.5694 30.7744 98.4886 31.0988C98.3171 31.6941 98.1772 32.2981 98.0697 32.9082C98.0294 33.2099 98.0065 33.5136 98.0011 33.8178C98.0007 33.8869 98.0043 33.956 98.0118 34.0247C98.0149 34.0481 98.0197 34.0712 98.0262 34.0939C98.0291 34.1083 98.0279 34.095 98.0203 34.0894C97.9961 34.0627 97.9637 34.0447 97.9283 34.0381C97.9059 34.0333 97.8827 34.0352 97.8614 34.0435C97.8554 34.0433 97.8495 34.0448 97.8443 34.0478C97.8258 34.0629 97.8511 34.0431 97.8604 34.0348C97.8865 34.0146 97.9115 33.993 97.9352 33.97C97.9862 33.9224 98.0367 33.8696 98.0866 33.8139C98.4854 33.3437 98.8468 32.8432 99.1675 32.3168C99.3315 32.0536 99.4892 31.7858 99.6309 31.5137C99.7692 31.241 99.9195 30.9447 100.092 30.6751C100.262 30.3961 100.46 30.1354 100.684 29.8972C100.913 29.6272 101.222 29.436 101.566 29.3507C101.669 29.3344 101.774 29.3425 101.872 29.3744C101.971 29.4062 102.061 29.4608 102.135 29.5338C102.207 29.6007 102.264 29.681 102.305 29.7701C102.347 29.862 102.369 29.9616 102.37 30.0625C102.35 30.4001 102.26 30.7298 102.106 31.0309C101.828 31.6042 101.503 32.1534 101.133 32.6726C100.747 33.1601 100.411 33.6846 100.128 34.2383C100.064 34.3765 100.008 34.5184 99.9603 34.6632C99.9366 34.7313 99.9194 34.8013 99.9088 34.8726C99.9012 34.9101 99.901 34.9487 99.9082 34.9863C99.9512 34.9851 99.9933 34.9734 100.031 34.9524C100.096 34.9207 100.159 34.8836 100.219 34.8415C100.343 34.7571 100.459 34.66 100.563 34.5519C100.77 34.3382 100.943 34.0668 101.145 33.8239C101.34 33.5752 101.546 33.3345 101.757 33.0985C102.173 32.6128 102.659 32.1914 103.198 31.848C103.341 31.7599 103.498 31.6961 103.662 31.6591C103.836 31.626 104.016 31.6505 104.175 31.7289C104.259 31.7648 104.334 31.8202 104.393 31.8906C104.452 31.9609 104.493 32.0442 104.514 32.1335C104.543 32.3043 104.526 32.4797 104.465 32.6419C104.22 33.2381 103.84 33.7694 103.354 34.1941C102.91 34.6319 102.499 35.1021 102.125 35.6009C101.94 35.8408 101.793 36.1077 101.689 36.3924C101.642 36.5093 101.641 36.6392 101.686 36.7569C101.709 36.8189 101.857 36.7974 101.988 36.7389C102.525 36.4372 103.018 36.0616 103.451 35.6232C103.679 35.4104 103.902 35.1914 104.122 34.969L104.457 34.6273C104.593 34.4999 104.763 34.4143 104.947 34.3805C105.144 34.3437 105.347 34.3848 105.514 34.4952C105.672 34.6187 105.774 34.7996 105.799 34.9984C105.825 35.1701 105.825 35.3448 105.8 35.5166C105.776 35.7038 105.701 35.8808 105.583 36.0279L102.943 38.7451L102.982 38.6906C102.738 39.1811 102.458 39.6529 102.145 40.1023C101.83 40.5513 101.48 40.9744 101.098 41.3676C100.718 41.7637 100.309 42.1302 99.8734 42.4638C99.4369 42.8058 98.9693 43.1064 98.4767 43.3616L98.5858 43.2621C98.5535 43.3672 98.509 43.4511 98.4785 43.5691L98.3922 43.931C98.3399 44.1762 98.2993 44.43 98.2533 44.6796C98.1709 45.185 98.094 45.6925 98.0263 46.203C97.8902 47.2233 97.7658 48.2465 97.6531 49.2727C97.4157 51.3232 97.2235 53.378 96.953 55.4319C96.8908 55.9508 96.8012 56.4661 96.6846 56.9756C96.5617 57.483 96.4233 57.9803 96.2858 58.4793L95.4279 61.4587C94.8339 63.4379 94.2219 65.411 93.6063 67.3831C93.6042 67.3901 93.5993 67.396 93.5928 67.3995C93.5863 67.403 93.5787 67.4038 93.5716 67.4017C93.5645 67.3997 93.5585 67.3949 93.5549 67.3885C93.5513 67.382 93.5504 67.3745 93.5523 67.3674L93.5524 67.3674Z" fill="black"/>
<path d="M100.362 37.756C99.9902 37.3271 99.5928 36.9208 99.1722 36.5392C98.967 36.3549 98.7419 36.1941 98.5009 36.0597C98.254 35.9255 97.9851 35.8363 97.7068 35.7965C98.0012 35.7281 98.3094 35.7502 98.591 35.8598C98.8723 35.9682 99.1316 36.1264 99.3563 36.3269C99.803 36.7147 100.148 37.2052 100.362 37.756Z" fill="black"/>
<path d="M96.7195 36.5848C96.793 37.038 96.7937 37.5 96.7217 37.9534C96.6881 38.181 96.6351 38.4053 96.5633 38.6239C96.4976 38.8494 96.3822 39.0574 96.2256 39.2327C96.2819 39.0156 96.3233 38.795 96.3497 38.5724L96.4434 37.9119C96.503 37.4634 96.5953 37.0199 96.7195 36.5848Z" fill="black"/>
<path d="M94.5734 41.1403C94.2417 41.1789 93.9061 41.1671 93.578 41.1053C93.2076 41.0446 92.8673 40.8647 92.6089 40.5931L92.5979 40.581C92.5726 40.5531 92.5531 40.5206 92.5404 40.4853C92.5277 40.4499 92.5222 40.4124 92.524 40.3748C92.5259 40.3373 92.5352 40.3005 92.5513 40.2666C92.5674 40.2327 92.5901 40.2022 92.618 40.177C92.646 40.1518 92.6786 40.1324 92.7141 40.1198C92.7495 40.1072 92.7871 40.1017 92.8247 40.1036C92.8623 40.1056 92.8992 40.1149 92.9332 40.131C92.9672 40.1472 92.9976 40.1698 93.0228 40.1978C93.0433 40.2205 93.06 40.2462 93.0725 40.2741C93.2046 40.5228 93.4146 40.7215 93.6704 40.8401C93.9546 40.9849 94.259 41.0862 94.5734 41.1403Z" fill="black"/>
<path d="M57.5301 112.716C57.5395 115.413 57.5405 118.11 57.5065 120.806C57.4776 123.502 57.459 126.198 57.3979 128.893L57.2371 136.978C57.1719 139.673 57.0813 142.368 56.965 145.061L56.8586 144.835C58.0321 145.739 59.2974 146.519 60.6335 147.161C61.9683 147.821 63.3867 148.298 64.8499 148.577C66.3129 148.859 67.8183 148.838 69.2729 148.516C70.7204 148.177 72.0697 147.509 73.2152 146.564C73.231 146.551 73.2493 146.541 73.269 146.535C73.2887 146.529 73.3094 146.528 73.3298 146.53L73.3377 146.531C74.9331 146.72 76.5386 146.81 78.1451 146.803C79.7472 146.8 81.3472 146.689 82.9342 146.471C84.5084 146.264 86.0508 145.864 87.526 145.278C88.9816 144.727 90.2644 143.8 91.243 142.592L91.1647 142.871L90.28 135.287L89.4403 127.697L88.5945 120.108C88.3051 117.579 88.0216 115.049 87.7084 112.522C87.7071 112.512 87.7098 112.502 87.7159 112.493C87.722 112.485 87.7311 112.48 87.7411 112.478C87.7512 112.477 87.7615 112.479 87.7698 112.485C87.7782 112.491 87.7839 112.499 87.7859 112.509C88.2755 115.011 88.6858 117.526 89.0717 120.045C89.4701 122.561 89.809 125.086 90.1521 127.61C90.5011 130.134 90.8088 132.662 91.1149 135.19C91.4093 137.72 91.6849 140.252 91.9417 142.787L91.9423 142.793C91.952 142.891 91.9237 142.988 91.8633 143.066C90.7876 144.368 89.3842 145.36 87.797 145.942C86.2586 146.525 84.6514 146.908 83.0149 147.082C81.3965 147.265 79.7666 147.328 78.1389 147.268C76.5157 147.222 74.8966 147.08 73.2902 146.843L73.4126 146.81C72.2145 147.756 70.819 148.423 69.3288 148.761C67.8395 149.072 66.3043 149.097 64.8055 148.835C63.3109 148.577 61.854 148.135 60.4677 147.521C59.0722 146.914 57.7454 146.161 56.5095 145.274C56.4764 145.25 56.4494 145.219 56.4309 145.183C56.4123 145.146 56.4027 145.106 56.4028 145.065L56.403 145.048C56.4253 142.352 56.4691 139.656 56.5344 136.961L56.7771 128.877C56.8504 126.183 56.9663 123.489 57.0719 120.795C57.1724 118.101 57.3079 115.408 57.4517 112.715C57.4523 112.704 57.4568 112.695 57.4643 112.688C57.4718 112.681 57.4817 112.677 57.4919 112.678C57.5021 112.678 57.5118 112.682 57.5189 112.689C57.5261 112.696 57.5301 112.706 57.5302 112.716L57.5301 112.716Z" fill="black"/>
<path d="M76.5327 121.016C77.1588 120.806 77.7736 120.58 78.3859 120.356C78.9959 120.127 79.6021 119.891 80.188 119.616C80.7787 119.356 81.3489 119.052 81.8938 118.706C82.4447 118.362 82.9427 117.941 83.3724 117.455C83.0549 118.044 82.6104 118.557 82.0711 118.955C81.5397 119.36 80.9624 119.701 80.351 119.972C79.7466 120.247 79.1209 120.472 78.4799 120.646C77.8431 120.827 77.1915 120.95 76.5327 121.016Z" fill="black"/>
<path d="M73.314 146.687C73.4401 144.466 73.6598 142.252 73.9131 140.042C74.1654 137.832 74.4923 135.631 74.8491 133.434C75.2329 131.242 75.649 129.053 76.1948 126.893C76.6991 124.723 77.3956 122.601 78.2761 120.553L77.7373 122.13L77.2783 123.73C76.993 124.802 76.713 125.875 76.4885 126.962C76.2467 128.045 76.0296 129.133 75.8108 130.22C75.6143 131.313 75.4079 132.403 75.2355 133.499C74.8473 135.685 74.5269 137.882 74.211 140.081C74.0494 141.18 73.8972 142.28 73.7542 143.382L73.314 146.687Z" fill="black"/>
<path d="M77.2022 147.012L77.5143 141.149C77.6106 139.195 77.7188 137.242 77.7684 135.288C77.8494 133.335 77.8788 131.382 77.8565 129.429C77.8458 128.453 77.815 127.476 77.733 126.505C77.6888 125.529 77.5102 124.564 77.2021 123.638C77.5839 124.545 77.8273 125.505 77.9243 126.485C78.0458 127.46 78.1107 128.44 78.1581 129.42C78.2451 131.381 78.2105 133.343 78.16 135.301C78.0774 137.26 77.975 139.216 77.814 141.168C77.6531 143.121 77.4642 145.07 77.2022 147.012Z" fill="black"/>
<path d="M57.0333 126.473C58.2973 126.319 59.5684 126.231 60.8415 126.208C60.88 126.208 60.9183 126.214 60.9542 126.228C60.9901 126.242 61.023 126.263 61.0508 126.289C61.0787 126.316 61.1011 126.347 61.1166 126.382C61.1322 126.418 61.1407 126.455 61.1416 126.494L61.1417 126.495L61.1419 126.508C61.1542 127.151 61.1693 127.794 61.1408 128.437C61.114 129.08 61.0603 129.723 61.0188 130.366C60.9254 131.65 60.9248 132.939 61.0167 134.223C61.0504 134.866 61.1036 135.509 61.1308 136.152C61.1583 136.795 61.1706 137.438 61.1864 138.081C61.2305 139.367 61.2241 140.653 61.1817 141.939L61.1807 141.967C61.1782 142.043 61.1483 142.116 61.0966 142.172C61.0449 142.228 60.9746 142.264 60.8987 142.273C60.5185 142.32 60.1357 142.343 59.7526 142.34C59.37 142.34 58.9881 142.31 58.6106 142.248C58.2258 142.19 57.852 142.074 57.5018 141.905C57.3222 141.824 57.1609 141.707 57.0278 141.562C56.8946 141.417 56.7923 141.246 56.7271 141.06C56.7258 141.056 56.7255 141.051 56.7261 141.047C56.7267 141.042 56.7282 141.037 56.7306 141.033C56.7329 141.029 56.736 141.026 56.7397 141.023C56.7433 141.02 56.7476 141.018 56.7521 141.017C56.7596 141.015 56.7676 141.016 56.7748 141.019C56.7821 141.022 56.7881 141.027 56.792 141.034C56.98 141.332 57.2761 141.546 57.6187 141.632C57.9557 141.733 58.3051 141.787 58.657 141.793C59.0142 141.797 59.3714 141.783 59.7273 141.752C60.0816 141.716 60.4462 141.671 60.7843 141.604L60.5015 141.939C60.459 140.653 60.4526 139.367 60.4967 138.081C60.5125 137.438 60.5248 136.795 60.5524 136.152C60.5796 135.509 60.6328 134.866 60.6664 134.223C60.7584 132.939 60.7577 131.65 60.6644 130.366C60.6228 129.723 60.5691 129.08 60.5423 128.437C60.5138 127.794 60.5289 127.151 60.5412 126.508L60.8415 126.808C59.5684 126.786 58.2972 126.697 57.0333 126.543C57.0248 126.542 57.0169 126.538 57.0112 126.532C57.0056 126.525 57.0024 126.517 57.0024 126.508C57.0024 126.5 57.0056 126.491 57.0112 126.485C57.0169 126.478 57.0248 126.474 57.0333 126.473L57.0333 126.473Z" fill="black"/>
<path d="M56.9812 129.279C57.638 129.248 58.2963 129.291 58.9435 129.406C59.5937 129.505 60.2305 129.677 60.8416 129.919C60.1848 129.951 59.5265 129.909 58.8793 129.792C58.2293 129.693 57.5926 129.521 56.9812 129.279Z" fill="black"/>
<path d="M58.2747 145.862C57.8124 146.368 57.375 146.895 56.9589 147.434C56.5673 148.003 56.1379 148.545 55.6736 149.057C55.4278 149.306 55.1674 149.536 54.8998 149.759C54.6212 149.982 54.3332 150.174 54.0477 150.367L52.3372 151.502C50.0726 153.008 47.9405 154.703 45.9639 156.569C44.978 157.501 44.0412 158.483 43.1387 159.496C42.2448 160.523 41.4055 161.569 40.5617 162.662C39.7076 163.745 38.794 164.781 37.8252 165.763C36.8637 166.759 35.7756 167.593 34.7524 168.51C35.1615 167.957 35.624 167.443 36.0725 166.926C36.5176 166.403 36.9884 165.908 37.4414 165.403C38.3548 164.395 39.2048 163.334 40.0199 162.248C41.6078 159.99 43.4222 157.9 45.435 156.01C46.4399 155.061 47.4992 154.172 48.6075 153.346C49.7093 152.516 50.8538 151.744 52.0364 151.033C52.6225 150.674 53.2227 150.336 53.8113 149.991C54.1051 149.819 54.395 149.643 54.6674 149.459C54.9404 149.262 55.2083 149.055 55.4592 148.833C55.948 148.362 56.4048 147.858 56.8265 147.326C57.2809 146.811 57.7644 146.322 58.2747 145.862Z" fill="black"/>
<path d="M38.468 176.579C39.1352 175.913 39.8221 175.267 40.5168 174.63C41.2124 173.993 41.9046 173.352 42.6209 172.738C44.0509 171.508 45.502 170.3 46.9952 169.14C48.4926 167.976 50.0543 166.897 51.673 165.907C52.4932 165.407 53.3475 164.964 54.2296 164.582C54.4505 164.484 54.6874 164.41 54.9178 164.326C55.1415 164.246 55.3508 164.18 55.5662 164.097C55.9925 163.93 56.4158 163.75 56.8305 163.545C60.1486 161.829 63.1939 159.631 65.8673 157.025C67.219 155.734 68.4428 154.315 69.5218 152.789C70.6425 151.282 71.4145 149.545 71.7821 147.704C71.6256 149.594 70.794 151.369 69.8076 152.976C68.7824 154.575 67.5926 156.062 66.2576 157.414C64.9389 158.78 63.5152 160.042 61.9994 161.188C60.4896 162.355 58.8713 163.374 57.1667 164.233C56.7376 164.448 56.2951 164.64 55.8446 164.819C55.6212 164.907 55.3813 164.984 55.1623 165.065C54.9508 165.144 54.7372 165.211 54.5283 165.306C53.6781 165.667 52.8542 166.087 52.0625 166.562C50.4617 167.513 48.9077 168.566 47.3913 169.67C45.8612 170.757 44.3644 171.896 42.8869 173.059C41.4001 174.213 39.9331 175.392 38.468 176.579Z" fill="black"/>
<path d="M59.42 153.453C59.0332 154.093 58.6281 154.69 58.3043 155.321C58.1366 155.627 58.0064 155.952 57.9168 156.289C57.8208 156.631 57.8245 156.992 57.9272 157.331C57.8018 157.181 57.7091 157.007 57.6552 156.819C57.6014 156.632 57.5875 156.435 57.6145 156.242C57.6549 155.856 57.7708 155.483 57.9556 155.142C58.3044 154.472 58.806 153.894 59.42 153.453Z" fill="black"/>
<path d="M38.8305 176.971C38.4649 176.679 38.0055 176.531 37.5381 176.552C36.5512 176.578 34.3899 176.352 33.6215 174.047C33.4569 173.494 33.4065 172.914 33.4733 172.341C33.5401 171.768 33.7227 171.215 34.0101 170.714C34.5733 169.682 35.1715 168.143 34.3637 167.246C33.0626 165.817 30.3817 168.518 30.3817 168.518C30.3817 168.518 28.5522 169.803 27.024 169.673C26.3988 169.612 25.7681 169.699 25.1826 169.926C24.5972 170.153 24.0733 170.514 23.6532 170.98C22.531 172.23 21.9372 174.195 24.5133 176.866C24.5133 176.866 26.4607 178.613 27.5086 185.109C28.5565 191.605 31.1763 199.609 35.7304 197.243C35.9064 197.111 36.0508 196.942 36.1528 196.748C36.2548 196.553 36.3119 196.338 36.3199 196.119C36.2847 195.911 36.198 195.715 36.0676 195.549C35.9372 195.384 35.7672 195.253 35.5732 195.169C35.3841 195.079 35.1798 195.024 34.9707 195.008C34.7535 194.996 34.5356 195.004 34.3201 195.034C33.8434 195.053 33.3679 194.975 32.9229 194.803C32.0491 194.421 31.3111 193.785 30.8052 192.978C30.3081 192.197 29.923 191.351 29.6612 190.464L29.6525 190.446V190.433C29.3076 188.817 28.9408 187.201 28.5216 185.606C28.312 184.809 28.0893 184.011 27.8361 183.231C27.6158 182.458 27.2927 181.718 26.8755 181.031C26.4359 180.299 26.0842 179.518 25.8276 178.705C25.5569 177.912 25.3299 177.106 25.1377 176.291C24.9477 175.475 24.8164 174.646 24.7448 173.812C24.6329 172.98 24.7075 172.133 24.9631 171.333C24.7972 172.143 24.7972 172.979 24.9631 173.79C25.1026 174.602 25.2833 175.406 25.5045 176.199C25.7316 176.992 25.9892 177.772 26.2904 178.535C26.5744 179.293 26.9327 180.021 27.3602 180.709C27.4606 180.857 27.596 181.079 27.7051 181.262C27.8012 181.458 27.9016 181.65 27.9846 181.846C28.1549 182.238 28.2989 182.635 28.4343 183.035C28.7007 183.833 28.9321 184.634 29.1504 185.44C29.5652 187.057 29.9363 188.673 30.2419 190.316C30.4758 191.149 30.8132 191.949 31.2462 192.699C31.6661 193.449 32.3039 194.055 33.0757 194.437C33.4646 194.611 33.8854 194.701 34.3113 194.703C34.5444 194.687 34.7784 194.694 35.01 194.725C35.249 194.763 35.4786 194.845 35.6868 194.969C35.9002 195.081 36.082 195.244 36.2155 195.444C36.349 195.645 36.43 195.875 36.4509 196.115C36.4263 196.346 36.3485 196.568 36.2235 196.763C36.0985 196.959 35.9297 197.123 35.7304 197.243C35.7304 197.243 37.4769 197.208 37.4726 192.925C37.4682 190.398 37.525 186.573 37.5686 183.867C37.1713 183.698 36.8089 183.501 36.4508 183.31L35.3942 182.739C35.0554 182.558 34.7054 182.4 34.3463 182.264C33.986 182.112 33.5859 182.082 33.2066 182.177C33.3598 182.007 33.5546 181.879 33.7719 181.807C33.9893 181.734 34.2218 181.719 34.4467 181.763C34.886 181.814 35.3114 181.949 35.6998 182.16C36.0774 182.36 36.4281 182.607 36.7434 182.896C37.0696 183.173 37.3483 183.501 37.5686 183.867C37.6035 181.99 37.6297 180.648 37.6297 180.648C37.2979 180.356 37.0228 180.064 36.7172 179.807C36.4253 179.549 36.1128 179.316 35.7828 179.11C35.1029 178.688 34.3622 178.374 33.5865 178.177C34.0059 178.033 34.4559 177.999 34.892 178.081C35.3335 178.154 35.7555 178.316 36.1321 178.556C36.5108 178.792 36.8388 179.1 37.097 179.463C37.3565 179.816 37.5381 180.22 37.6297 180.648C37.6297 180.648 40.5246 178.387 38.8305 176.971ZM30.0804 178.151C29.3076 178.33 27.8623 177.201 28.2989 175.646C28.8054 173.838 28.5391 172.679 29.3119 172.5C30.0847 172.322 30.8838 173.446 31.0934 175.006C31.3073 176.565 30.8532 177.973 30.0804 178.151ZM34.3987 185.048C34.8516 185.073 35.2939 185.195 35.6955 185.405C36.0903 185.607 36.4501 185.87 36.7608 186.185C37.0774 186.486 37.3338 186.844 37.5162 187.24C36.7652 186.8 36.1059 186.342 35.3985 185.989C35.0523 185.812 34.6915 185.665 34.3201 185.549C33.9256 185.452 33.5213 185.399 33.115 185.392C33.4946 185.143 33.9448 185.022 34.3987 185.048Z" fill="black"/>
<path d="M78.2404 146.793C77.8565 147.361 77.5003 147.945 77.1668 148.539C76.8621 149.158 76.5161 149.757 76.131 150.33C75.924 150.613 75.6997 150.878 75.4674 151.137C75.2241 151.398 74.9671 151.63 74.7126 151.862L73.185 153.232C71.1632 155.05 69.2999 157.035 67.6153 159.168C66.7752 160.232 65.991 161.34 65.2452 162.472C64.51 163.618 63.8315 164.775 63.1555 165.978C62.4678 167.173 61.7143 168.33 60.8985 169.443C60.0918 170.567 59.1364 171.549 58.2573 172.605C58.5817 171.999 58.9645 171.423 59.3333 170.846C59.6977 170.265 60.0915 169.706 60.4664 169.141C61.2237 168.012 61.9105 166.839 62.5592 165.647C63.8023 163.183 65.2939 160.853 67.0107 158.691C67.8673 157.607 68.7862 156.574 69.7627 155.597C70.7322 154.616 71.7525 153.686 72.8193 152.812C73.3471 152.371 73.8918 151.951 74.4241 151.525C74.6898 151.312 74.951 151.096 75.1938 150.874C75.4353 150.64 75.6703 150.396 75.8863 150.14C76.3015 149.603 76.6803 149.039 77.0202 148.451C77.395 147.876 77.8023 147.322 78.2404 146.793Z" fill="black"/>
<path d="M63.106 180.051C65.5319 176.861 68.1533 173.824 70.9552 170.957C72.3584 169.508 73.8624 168.161 75.4561 166.923C75.8629 166.619 76.2789 166.323 76.7145 166.049C77.139 165.773 77.6416 165.532 78.0463 165.315C78.8963 164.831 79.7037 164.275 80.4597 163.655C81.9934 162.404 83.4196 161.027 84.7235 159.539C86.0384 158.056 87.2301 156.468 88.2868 154.791C89.3497 153.119 90.183 151.312 90.7644 149.418C91.3834 147.52 91.4337 145.483 90.9091 143.556C91.6396 145.436 91.5506 147.552 91.081 149.502C90.5738 151.458 89.787 153.332 88.7448 155.064C86.695 158.553 84.0536 161.659 80.9384 164.245C80.1509 164.898 79.3092 165.483 78.4223 165.993C77.9459 166.248 77.5481 166.447 77.1293 166.711C76.7163 166.966 76.3143 167.247 75.9186 167.539C74.3476 168.751 72.8492 170.053 71.4311 171.439C69.992 172.815 68.5839 174.227 67.2069 175.676C65.8259 177.118 64.459 178.576 63.106 180.051Z" fill="black"/>
<path d="M80.4765 154.138C80.1867 154.827 79.8727 155.476 79.6441 156.148C79.5226 156.475 79.4411 156.815 79.4014 157.162C79.356 157.513 79.4121 157.871 79.5631 158.191C79.4171 158.061 79.3001 157.902 79.2195 157.724C79.139 157.546 79.0966 157.353 79.0953 157.158C79.0793 156.771 79.1397 156.385 79.2731 156.021C79.5208 155.308 79.933 154.663 80.4765 154.138Z" fill="black"/>
<path d="M64.4958 196.367C64.2643 194.803 63.9805 192.729 63.7142 190.738C62.9064 190.407 62.186 190.05 61.4393 189.806C61.0709 189.681 60.6926 189.588 60.3085 189.527C59.9031 189.485 59.4942 189.491 59.0902 189.544C59.4303 189.245 59.8568 189.06 60.3085 189.017C60.7605 188.982 61.215 189.038 61.6446 189.183C62.0645 189.324 62.4584 189.533 62.8104 189.802C63.1679 190.054 63.4745 190.372 63.7142 190.738C63.557 189.553 63.4042 188.394 63.2776 187.392C62.8748 187.283 62.4784 187.152 62.0899 187L60.9634 186.591C60.6007 186.462 60.2303 186.355 59.8544 186.272C59.4747 186.173 59.0728 186.201 58.7104 186.351C58.8395 186.162 59.0147 186.009 59.2194 185.906C59.424 185.803 59.6515 185.754 59.8805 185.763C60.3225 185.751 60.7626 185.823 61.1774 185.976C61.5817 186.118 61.9662 186.312 62.3213 186.551C62.6815 186.781 63.004 187.065 63.2776 187.392C63.0331 185.532 62.8671 184.199 62.8671 184.199C62.5003 183.959 62.1816 183.706 61.841 183.497C61.5149 183.286 61.1734 183.1 60.8193 182.939C60.0841 182.624 59.3054 182.421 58.5095 182.338C58.9014 182.132 59.3418 182.034 59.7845 182.055C60.2316 182.065 60.6724 182.162 61.0815 182.343C61.4906 182.523 61.86 182.782 62.1685 183.105C62.4764 183.416 62.7145 183.789 62.8671 184.199C62.8671 184.199 65.4039 181.541 63.5221 180.386C63.1181 180.15 62.6411 180.069 62.1816 180.16C61.2079 180.325 59.0422 180.417 57.9419 178.247C57.6993 177.723 57.5657 177.156 57.5492 176.58C57.5327 176.003 57.6336 175.429 57.8459 174.892C58.2519 173.79 58.6187 172.178 57.6887 171.411C56.1954 170.183 53.9336 173.245 53.9336 173.245C53.9336 173.245 52.3094 174.783 50.7768 174.875C50.15 174.905 49.5391 175.082 48.9931 175.391C48.4471 175.699 47.9813 176.132 47.633 176.653C46.7074 178.055 46.4061 180.081 49.3402 182.356C49.3402 182.356 51.5191 183.802 53.5014 190.076C55.4837 196.354 59.2387 203.892 63.3998 200.89C63.5551 200.735 63.6735 200.547 63.7461 200.341C63.8186 200.134 63.8436 199.914 63.819 199.696C63.7548 199.496 63.6412 199.314 63.4887 199.169C63.3361 199.024 63.1494 198.919 62.9457 198.864C62.7456 198.8 62.5352 198.775 62.3257 198.79C62.1083 198.81 61.8933 198.85 61.6838 198.912C61.2139 198.999 60.7312 198.99 60.2648 198.886C59.346 198.633 58.5245 198.111 57.907 197.387C57.3011 196.685 56.797 195.902 56.4093 195.06L56.4006 195.047L56.3962 195.034C55.8199 193.488 55.2217 191.941 54.5755 190.42C54.2524 189.662 53.9162 188.908 53.5538 188.172C53.2214 187.44 52.7943 186.754 52.2832 186.133C51.7418 185.473 51.2801 184.752 50.9078 183.985C50.5261 183.239 50.1822 182.474 49.8773 181.693C49.5687 180.915 49.3176 180.116 49.1263 179.301C48.8958 178.493 48.8467 177.643 48.9822 176.814C48.9355 177.64 49.0557 178.466 49.3359 179.245C49.594 180.027 49.8913 180.797 50.2266 181.55C50.5628 182.299 50.934 183.035 51.3444 183.75C51.7347 184.457 52.1939 185.124 52.7154 185.741C52.8377 185.876 53.0036 186.076 53.1389 186.242C53.2568 186.421 53.3878 186.599 53.5014 186.782C53.724 187.144 53.9249 187.514 54.117 187.889C54.4969 188.638 54.8418 189.401 55.1737 190.168C55.8199 191.705 56.4224 193.257 56.9638 194.834C57.3155 195.624 57.7643 196.367 58.2999 197.047C58.827 197.727 59.5464 198.234 60.3652 198.502C60.7759 198.615 61.2052 198.643 61.6271 198.585C61.8552 198.535 62.0878 198.509 62.3213 198.507C62.5623 198.509 62.8007 198.556 63.0243 198.646C63.2523 198.726 63.4563 198.862 63.6173 199.042C63.7784 199.222 63.8913 199.439 63.9456 199.674C63.9563 199.905 63.9124 200.136 63.8176 200.347C63.7229 200.558 63.5797 200.744 63.3998 200.89C63.3998 200.89 65.1202 200.602 64.4958 196.367ZM55.034 182.822C54.296 183.105 52.7023 182.203 52.9075 180.6C53.1477 178.735 52.7154 177.628 53.4533 177.341C54.1912 177.053 55.1475 178.047 55.5841 179.559C56.0164 181.075 55.7719 182.534 55.034 182.822Z" fill="black"/>
<path d="M28.8024 53.7131C29.0427 55.7799 29.3999 57.8314 29.8721 59.858C30.3296 61.8681 30.9649 63.8337 31.7706 65.7318C32.1648 66.6764 32.6305 67.5897 33.1637 68.4638C33.6839 69.3419 34.2832 70.1711 34.954 70.9409C35.6321 71.7077 36.3882 72.4023 37.2101 73.0133C38.059 73.6112 38.9666 74.1213 39.9191 74.5356C38.8894 74.2839 37.8993 73.8924 36.9763 73.372C36.0577 72.823 35.2111 72.1622 34.4559 71.4049C32.9721 69.8604 31.7896 68.0535 30.9692 66.0767C30.144 64.1249 29.5525 62.0828 29.2068 59.9926C28.8374 57.9211 28.7018 55.8148 28.8024 53.7131Z" fill="black"/>
<path d="M26.3647 67.6948C27.0278 69.5818 27.8149 71.423 28.721 73.2065C29.1819 74.0872 29.657 74.958 30.1907 75.7908C30.7074 76.6308 31.2797 77.4355 31.9038 78.1995C33.1133 79.7464 34.5839 81.071 36.2494 82.1138C37.0953 82.6162 37.992 83.0279 38.9247 83.342C39.8773 83.6445 40.8568 83.8554 41.8496 83.972C40.8321 84.0335 39.8109 83.9606 38.8126 83.7551C37.8064 83.5294 36.833 83.1772 35.9158 82.7068C35.0041 82.2199 34.1475 81.6366 33.3607 80.967C32.5856 80.2893 31.8707 79.546 31.2238 78.7454C29.9554 77.1415 28.9072 75.3758 28.1069 73.4951C27.2885 71.6408 26.7034 69.6926 26.3647 67.6948Z" fill="black"/>
<path d="M9.10476 154.878C8.47403 156.861 7.95608 158.878 7.55336 160.92C7.14397 162.94 6.91503 164.993 6.86926 167.053C6.84039 168.076 6.88953 169.1 7.01626 170.115C7.1296 171.129 7.33512 172.131 7.6303 173.107C7.93335 174.084 8.33724 175.027 8.83549 175.921C9.36374 176.814 9.98176 177.651 10.68 178.418C9.84448 177.767 9.1025 177.005 8.4748 176.152C7.86291 175.276 7.36256 174.326 6.98525 173.327C6.26721 171.31 5.93194 169.179 5.99662 167.04C6.04675 164.922 6.34704 162.818 6.89128 160.77C7.40626 158.73 8.14872 156.753 9.10476 154.878Z" fill="black"/>
<path d="M1.13225 166.63C0.960921 168.623 0.921586 170.624 1.01451 172.622C1.07266 173.613 1.14782 174.602 1.29207 175.58C1.41791 176.558 1.60894 177.526 1.8639 178.478C2.33078 180.384 3.12712 182.194 4.21714 183.827C4.78193 184.631 5.43042 185.374 6.15176 186.042C6.89615 186.708 7.70262 187.302 8.56016 187.814C7.60694 187.454 6.70565 186.969 5.87972 186.373C5.05494 185.755 4.31214 185.035 3.66913 184.231C3.03792 183.414 2.49657 182.531 2.05442 181.598C1.62632 180.663 1.27999 179.692 1.01931 178.697C0.522128 176.715 0.29225 174.676 0.335764 172.633C0.352027 170.607 0.619561 168.591 1.13225 166.63Z" fill="black"/>
<path d="M112.256 100.661C112.344 102.764 112.196 104.869 111.815 106.939C111.457 109.027 110.853 111.065 110.017 113.012C109.184 114.984 107.991 116.784 106.499 118.32C105.739 119.073 104.888 119.729 103.967 120.272C103.041 120.787 102.048 121.173 101.017 121.418C101.972 121.01 102.883 120.505 103.735 119.912C104.56 119.306 105.321 118.616 106.003 117.853C106.679 117.087 107.283 116.261 107.808 115.386C108.346 114.515 108.817 113.605 109.217 112.662C110.034 110.769 110.681 108.807 111.15 106.8C111.634 104.776 112.003 102.727 112.256 100.661Z" fill="black"/>
<path d="M114.612 114.657C114.261 116.653 113.665 118.598 112.835 120.447C112.024 122.323 110.965 124.083 109.688 125.679C109.036 126.476 108.317 127.215 107.538 127.888C106.747 128.553 105.887 129.131 104.972 129.613C104.052 130.078 103.077 130.425 102.07 130.644C101.07 130.844 100.048 130.911 99.0312 130.843C100.025 130.733 101.005 130.528 101.96 130.231C102.894 129.922 103.794 129.515 104.642 129.018C106.314 127.985 107.792 126.669 109.011 125.129C109.639 124.369 110.216 123.568 110.738 122.731C111.277 121.901 111.757 121.033 112.223 120.155C113.14 118.377 113.937 116.54 114.612 114.657Z" fill="black"/>
<path d="M29.0311 18.2846C29.035 18.19 29.0195 18.0955 28.9857 18.007C28.9518 17.9185 28.9002 17.8378 28.8341 17.7698L26.1836 15.2827C25.9804 15.1123 25.7215 15.1957 25.5898 15.4667C25.5254 15.6031 25.5011 15.7549 25.5195 15.9046C25.538 16.0542 25.5985 16.1956 25.6941 16.3124L27.7924 18.2846L25.6941 20.2569C25.5672 20.3985 25.4971 20.5818 25.4971 20.7718C25.4971 20.9617 25.5672 21.145 25.6941 21.2866L27.7924 23.2589L25.6941 25.2311C25.5672 25.3727 25.4971 25.556 25.4971 25.746C25.4971 25.9359 25.5672 26.1192 25.6941 26.2608L28.3446 28.7479C28.5478 28.9369 28.8208 28.8598 28.9551 28.5776C29.0226 28.4385 29.0471 28.2825 29.0255 28.1295C29.004 27.9765 28.9373 27.8334 28.8341 27.7183L26.7357 25.746L28.8341 23.7737C28.9609 23.6321 29.031 23.4488 29.031 23.2589C29.031 23.069 28.9609 22.8857 28.8341 22.7441L26.7357 20.7717L28.8341 18.7995C28.9002 18.7315 28.9518 18.6508 28.9857 18.5623C29.0195 18.4738 29.035 18.3793 29.031 18.2846L29.0311 18.2846Z" fill="black"/>
<path d="M13.2371 126.049C13.2301 126.229 13.2861 126.405 13.3955 126.549L15.0822 128.464L13.3955 130.379C13.3151 130.499 13.265 130.637 13.2495 130.781C13.2341 130.925 13.2537 131.07 13.3067 131.205C13.4119 131.473 13.6256 131.554 13.789 131.379L15.9195 128.964C16.0226 128.817 16.0779 128.643 16.0779 128.464C16.0779 128.285 16.0226 128.11 15.9195 127.964L14.2328 126.049L15.9195 124.134C16.0226 123.987 16.0779 123.813 16.0779 123.634C16.0779 123.455 16.0226 123.28 15.9195 123.134L14.2328 121.219L15.9195 119.304C15.9999 119.183 16.05 119.045 16.0655 118.901C16.081 118.758 16.0613 118.612 16.0083 118.478C15.9032 118.21 15.6894 118.129 15.5261 118.304L13.3955 120.719C13.2925 120.865 13.2371 121.04 13.2371 121.219C13.2371 121.398 13.2925 121.572 13.3955 121.719L15.0822 123.634L13.3955 125.549C13.2849 125.691 13.2288 125.869 13.2371 126.049Z" fill="black"/>
<path d="M3.19418 53.691C3.18715 53.8709 3.24315 54.0477 3.35257 54.1909L5.03922 56.106L3.35257 58.0212C3.27211 58.1415 3.22201 58.2795 3.20655 58.4233C3.19109 58.5671 3.21072 58.7125 3.26377 58.8471C3.36888 59.1152 3.58264 59.1961 3.74599 59.021L5.87653 56.6059C5.9796 56.4595 6.03491 56.285 6.03491 56.106C6.03491 55.9271 5.9796 55.7526 5.87653 55.6061L4.18987 53.691L5.87653 51.7759C5.9796 51.6295 6.03491 51.4549 6.03491 51.276C6.03491 51.097 5.9796 50.9225 5.87653 50.776L4.18987 48.8609L5.87653 46.9458C5.95698 46.8255 6.00707 46.6875 6.02253 46.5437C6.03799 46.3998 6.01836 46.2544 5.96531 46.1198C5.8602 45.8518 5.64644 45.7708 5.4831 45.9459L3.35257 48.361C3.24949 48.5074 3.19418 48.682 3.19418 48.8609C3.19418 49.0398 3.24949 49.2144 3.35257 49.3608L5.03922 51.276L3.35257 53.1911C3.24195 53.3336 3.1858 53.5109 3.19418 53.691Z" fill="black"/>
<path d="M124.43 148.948C124.423 149.137 124.491 149.322 124.618 149.462L126.62 151.435L124.618 153.407C124.524 153.525 124.464 153.667 124.445 153.817C124.426 153.968 124.45 154.12 124.512 154.258C124.637 154.534 124.891 154.617 125.085 154.437L127.614 151.95C127.736 151.805 127.803 151.623 127.803 151.435C127.803 151.246 127.736 151.064 127.614 150.92L125.612 148.948L127.614 146.975C127.736 146.831 127.803 146.649 127.803 146.46C127.803 146.272 127.736 146.09 127.614 145.946L125.612 143.973L127.614 142.001C127.709 141.883 127.769 141.741 127.787 141.591C127.806 141.44 127.783 141.288 127.72 141.15C127.595 140.874 127.341 140.791 127.147 140.971L124.618 143.459C124.496 143.603 124.43 143.785 124.43 143.973C124.43 144.162 124.496 144.344 124.618 144.488L126.62 146.46L124.618 148.433C124.554 148.502 124.505 148.583 124.473 148.671C124.44 148.76 124.426 148.854 124.43 148.948Z" fill="black"/>
<path d="M131.383 71.2324L129.81 72.6503C129.422 73.0588 129.206 73.6002 129.206 74.1629C129.206 74.7257 129.422 75.2671 129.81 75.6756L130.263 76.0883C130.391 76.2244 130.463 76.4042 130.463 76.5909C130.463 76.7777 130.391 76.9574 130.263 77.0935L129.81 77.5063C129.422 77.9148 129.206 78.4562 129.206 79.0189C129.206 79.5817 129.422 80.1231 129.81 80.5316L130.263 80.9443C130.391 81.0804 130.463 81.2601 130.463 81.4469C130.463 81.6337 130.391 81.8134 130.263 81.9495L129.81 82.3623C129.422 82.7708 129.206 83.3121 129.206 83.8749C129.206 84.4377 129.422 84.979 129.81 85.3875L130.263 85.8003C130.391 85.9364 130.463 86.1161 130.463 86.3029C130.463 86.4897 130.391 86.6694 130.263 86.8055L128.686 88.2283C128.587 88.3396 128.523 88.4783 128.503 88.6263C128.483 88.7743 128.507 88.9249 128.574 89.0587C128.593 89.1183 128.627 89.1722 128.672 89.2157C128.717 89.2592 128.772 89.291 128.833 89.3083C128.893 89.3255 128.956 89.3277 129.018 89.3147C129.079 89.3017 129.136 89.2738 129.184 89.2335L130.758 87.8156C131.145 87.407 131.362 86.8657 131.362 86.3029C131.362 85.7402 131.145 85.1988 130.758 84.7903L130.305 84.3775C130.239 84.312 130.187 84.2334 130.153 84.1469C130.12 84.0603 130.104 83.9677 130.109 83.8749C130.104 83.7818 130.12 83.6888 130.154 83.6022C130.188 83.5155 130.241 83.4372 130.308 83.3723L130.761 82.9596C131.147 82.5499 131.362 82.009 131.362 81.4469C131.362 80.8848 131.147 80.3439 130.761 79.9343L130.308 79.5216C130.18 79.3855 130.109 79.2057 130.109 79.019C130.109 78.8322 130.18 78.6524 130.308 78.5164L130.761 78.1036C131.147 77.694 131.362 77.153 131.362 76.5909C131.362 76.0289 131.147 75.4879 130.761 75.0783L130.308 74.6656C130.18 74.5295 130.109 74.3497 130.109 74.1629C130.109 73.9762 130.18 73.7964 130.308 73.6603L131.881 72.2376C131.986 72.1273 132.054 71.9879 132.076 71.8379C132.099 71.688 132.075 71.5347 132.008 71.3987C131.989 71.3373 131.954 71.2818 131.907 71.2373C131.861 71.1929 131.804 71.1608 131.741 71.1443C131.679 71.1277 131.614 71.1271 131.551 71.1425C131.488 71.1579 131.431 71.1888 131.383 71.2324V71.2324Z" fill="black"/>
<path d="M112.842 17.8497L111.18 16.3922C111.046 16.2547 110.97 16.0699 110.97 15.8774C110.97 15.685 111.046 15.5002 111.18 15.3626L111.658 14.9398C112.066 14.5268 112.295 13.9702 112.295 13.3903C112.295 12.8104 112.066 12.2538 111.658 11.8408L111.18 11.4181C111.046 11.2805 110.97 11.0957 110.97 10.9032C110.97 10.7108 111.046 10.526 111.18 10.3884L111.658 9.96554C112.066 9.55258 112.295 8.99598 112.295 8.41609C112.295 7.83619 112.066 7.27959 111.658 6.86663L111.18 6.44383C111.046 6.30623 110.97 6.12143 110.97 5.92898C110.97 5.73653 111.046 5.55172 111.18 5.41412L111.658 4.99135C112.066 4.57839 112.295 4.02178 112.295 3.44188C112.295 2.86198 112.066 2.30538 111.658 1.89241L110 0.439937C109.949 0.398536 109.889 0.369911 109.825 0.356477C109.761 0.343043 109.695 0.345195 109.632 0.362753C109.568 0.38031 109.511 0.412758 109.463 0.457355C109.415 0.501951 109.378 0.557388 109.356 0.618985C109.286 0.755764 109.26 0.910745 109.281 1.0629C109.302 1.21506 109.37 1.35704 109.475 1.46957L111.137 2.92705C111.272 3.06463 111.347 3.24943 111.347 3.44188C111.347 3.63433 111.272 3.81913 111.137 3.95672L110.659 4.37948C110.251 4.79244 110.023 5.34905 110.023 5.92897C110.023 6.50889 110.251 7.06551 110.659 7.47846L111.137 7.90127C111.272 8.03885 111.347 8.22364 111.347 8.41609C111.347 8.60853 111.272 8.79333 111.137 8.9309L110.659 9.35374C110.251 9.76669 110.023 10.3233 110.023 10.9032C110.023 11.4831 110.251 12.0397 110.659 12.4527L111.137 12.8755C111.272 13.013 111.347 13.1979 111.347 13.3903C111.347 13.5828 111.272 13.7676 111.137 13.9052L110.659 14.328C110.251 14.7409 110.023 15.2975 110.023 15.8774C110.023 16.4573 110.251 17.0139 110.659 17.4269L112.318 18.8794C112.368 18.9231 112.428 18.9539 112.493 18.9692C112.558 18.9844 112.626 18.9836 112.69 18.9668C112.755 18.95 112.814 18.9178 112.863 18.8728C112.912 18.8279 112.95 18.7717 112.972 18.709C113.044 18.5705 113.071 18.4127 113.047 18.2583C113.024 18.1039 112.952 17.9609 112.842 17.8497H112.842Z" fill="black"/>
<path d="M81.7029 9.00847C81.7366 9.50667 81.6193 10.0035 81.3663 10.4343C81.1132 10.8651 80.7362 11.21 80.2841 11.4241C79.832 11.6383 79.3258 11.7118 78.8312 11.6351C78.3367 11.5583 77.8768 11.335 77.5112 10.994C77.1456 10.653 76.8912 10.2102 76.7812 9.72304C76.6712 9.23592 76.7106 8.72704 76.8943 8.26256C77.078 7.79808 77.3975 7.39947 77.8113 7.11857C78.225 6.83766 78.7139 6.68744 79.2144 6.68743C79.8525 6.66724 80.4727 6.90015 80.9391 7.33517C81.4055 7.77018 81.6801 8.37185 81.7029 9.00847Z" fill="black"/>
<path d="M110.649 165.692C110.683 166.192 110.565 166.691 110.311 167.123C110.057 167.555 109.679 167.901 109.225 168.116C108.772 168.331 108.264 168.404 107.768 168.327C107.272 168.25 106.81 168.026 106.444 167.684C106.077 167.342 105.822 166.898 105.711 166.409C105.601 165.921 105.641 165.41 105.825 164.944C106.009 164.478 106.33 164.078 106.745 163.796C107.16 163.515 107.65 163.364 108.152 163.364C108.792 163.344 109.415 163.577 109.882 164.014C110.35 164.45 110.626 165.054 110.649 165.692Z" fill="black"/>
<path d="M138.983 47.5149C139.01 47.9153 138.916 48.3145 138.713 48.6607C138.51 49.0069 138.207 49.2841 137.843 49.4562C137.48 49.6283 137.073 49.6873 136.676 49.6257C136.278 49.564 135.909 49.3846 135.615 49.1105C135.321 48.8365 135.117 48.4806 135.028 48.0892C134.94 47.6977 134.972 47.2888 135.119 46.9155C135.267 46.5422 135.524 46.2219 135.856 45.9962C136.189 45.7705 136.581 45.6497 136.984 45.6497C137.496 45.6333 137.995 45.8203 138.37 46.17C138.745 46.5196 138.965 47.0032 138.983 47.5149Z" fill="black"/>
<path d="M48.3049 130.705C48.332 131.105 48.2377 131.505 48.0344 131.851C47.8311 132.197 47.528 132.474 47.1647 132.646C46.8014 132.818 46.3946 132.877 45.9972 132.816C45.5998 132.754 45.2302 132.575 44.9364 132.301C44.6426 132.027 44.4382 131.671 44.3498 131.279C44.2614 130.888 44.2931 130.479 44.4407 130.106C44.5883 129.732 44.8451 129.412 45.1776 129.186C45.5101 128.961 45.9029 128.84 46.3051 128.84C46.818 128.823 47.3165 129.01 47.6914 129.36C48.0662 129.71 48.2869 130.193 48.3049 130.705Z" fill="black"/>
<path d="M69.873 45.7079C71.5587 45.7079 71.5615 43.094 69.873 43.094C68.1873 43.094 68.1845 45.7079 69.873 45.7079Z" fill="black"/>
<path d="M22.6945 90.6336C24.3803 90.6336 24.383 88.0197 22.6945 88.0197C21.0088 88.0197 21.006 90.6336 22.6945 90.6336Z" fill="black"/>
<path d="M124.43 124.057C126.116 124.057 126.118 121.443 124.43 121.443C122.744 121.443 122.741 124.057 124.43 124.057Z" fill="black"/>
<path d="M103.766 81.5416C105.452 81.5416 105.455 78.9277 103.766 78.9277C102.081 78.9277 102.078 81.5416 103.766 81.5416Z" fill="black"/>
</svg>
