<svg width="43" height="50" viewBox="0 0 43 50" fill="none" xmlns="http://www.w3.org/2000/svg">
<path fill-rule="evenodd" clip-rule="evenodd" d="M21.4368 16.561C19.0243 16.561 17.0618 18.5235 17.0618 20.9385C17.0618 23.351 19.0243 25.311 21.4368 25.311C23.8493 25.311 25.8118 23.351 25.8118 20.9385C25.8118 18.5235 23.8493 16.561 21.4368 16.561ZM21.4368 29.061C16.9568 29.061 13.3118 25.4185 13.3118 20.9385C13.3118 16.456 16.9568 12.811 21.4368 12.811C25.9168 12.811 29.5618 16.456 29.5618 20.9385C29.5618 25.4185 25.9168 29.061 21.4368 29.061Z" fill="white"/>
<mask id="mask0_845_38" style="mask-type:luminance" maskUnits="userSpaceOnUse" x="0" y="0" width="43" height="50">
<path fill-rule="evenodd" clip-rule="evenodd" d="M0.810547 0.311035H42.0593V49.061H0.810547V0.311035Z" fill="white"/>
</mask>
<g mask="url(#mask0_845_38)">
<path fill-rule="evenodd" clip-rule="evenodd" d="M21.4343 4.06104C12.1293 4.06104 4.55933 11.7035 4.55933 21.0935C4.55933 33.041 18.6193 44.681 21.4343 45.301C24.2493 44.6785 38.3093 33.0385 38.3093 21.0935C38.3093 11.7035 30.7393 4.06104 21.4343 4.06104ZM21.4343 49.061C16.9493 49.061 0.809326 35.181 0.809326 21.0935C0.809326 9.63353 10.0618 0.311035 21.4343 0.311035C32.8068 0.311035 42.0593 9.63353 42.0593 21.0935C42.0593 35.181 25.9193 49.061 21.4343 49.061Z" fill="white"/>
</g>
</svg>
