<svg width="56" height="50" viewBox="0 0 56 50" fill="none" xmlns="http://www.w3.org/2000/svg">
<path fill-rule="evenodd" clip-rule="evenodd" d="M27.7594 28.973C26.0451 28.973 24.3359 28.4205 22.906 27.3155L11.4132 18.2755C10.5855 17.6255 10.4574 16.443 11.1211 15.638C11.7899 14.8355 12.9994 14.708 13.8245 15.3555L25.3071 24.3855C26.7497 25.5005 28.7818 25.5005 30.2347 24.3755L41.602 15.3605C42.4271 14.703 43.6366 14.828 44.308 15.633C44.9768 16.4355 44.8512 17.6155 44.0287 18.2705L32.6409 27.3005C31.2008 28.4155 29.4788 28.973 27.7594 28.973Z" fill="white"/>
<mask id="mask0_850_49" style="mask-type:luminance" maskUnits="userSpaceOnUse" x="0" y="0" width="56" height="50">
<path fill-rule="evenodd" clip-rule="evenodd" d="M0.143555 0.311035H55.2371V49.061H0.143555V0.311035Z" fill="white"/>
</mask>
<g mask="url(#mask0_850_49)">
<path fill-rule="evenodd" clip-rule="evenodd" d="M15.1058 45.311H40.2695C40.2746 45.306 40.2951 45.311 40.3105 45.311C43.2343 45.311 45.8276 44.291 47.8161 42.3535C50.1249 40.111 51.3933 36.8885 51.3933 33.281V16.111C51.3933 9.12854 46.7142 4.06104 40.2695 4.06104H15.1109C8.66619 4.06104 3.98706 9.12854 3.98706 16.111V33.281C3.98706 36.8885 5.25806 40.111 7.56431 42.3535C9.55281 44.291 12.1486 45.311 15.0699 45.311H15.1058ZM15.0622 49.061C11.1082 49.061 7.57712 47.661 4.85062 45.011C1.81406 42.056 0.143311 37.891 0.143311 33.281V16.111C0.143311 7.10354 6.57775 0.311035 15.1109 0.311035H40.2695C48.8026 0.311035 55.2371 7.10354 55.2371 16.111V33.281C55.2371 37.891 53.5663 42.056 50.5298 45.011C47.8058 47.6585 44.2721 49.061 40.3105 49.061H40.2695H15.1109H15.0622Z" fill="white"/>
</g>
</svg>
