<svg width="56" height="80" viewBox="0 0 56 80" fill="none" xmlns="http://www.w3.org/2000/svg">
<path d="M29.1139 57.2338L29.1538 57.2516L29.1951 57.2658C29.3551 57.3207 29.5075 57.3953 29.649 57.4878L30.1682 57.9032C30.4169 58.1615 30.6173 58.4624 30.7599 58.7917C30.9882 59.337 31.0504 59.9375 30.9386 60.5181C30.8285 61.0892 30.5549 61.6158 30.1513 62.034C29.8367 62.3082 29.488 62.5407 29.1137 62.7255C28.5734 62.9384 27.9827 62.9899 27.4133 62.8736C26.8334 62.755 26.3015 62.4676 25.8846 62.0475C25.4677 61.6274 25.1844 61.0933 25.0703 60.5125C24.9562 59.9319 25.0164 59.3305 25.2433 58.784C25.3986 58.413 25.6148 58.0708 25.8831 57.7714C26.2322 57.4297 26.6596 57.1783 27.1281 57.0393C27.573 56.9073 28.042 56.8804 28.4982 56.9602L29.1139 57.2338ZM12 1H44C46.9174 1 49.7153 2.15893 51.7782 4.22183C53.8411 6.28473 55 9.08262 55 12V68C55 70.9174 53.8411 73.7153 51.7782 75.7782C49.7153 77.8411 46.9174 79 44 79H12C9.08262 79 6.28473 77.8411 4.22183 75.7782C2.15893 73.7153 1 70.9174 1 68V12C1 9.08262 2.15893 6.28473 4.22183 4.22183C6.28473 2.15893 9.08262 1 12 1ZM47.5355 71.5355C48.4732 70.5979 49 69.3261 49 68V12C49 10.6739 48.4732 9.40215 47.5355 8.46447C46.5979 7.52678 45.3261 7 44 7H12C10.6739 7 9.40215 7.52678 8.46447 8.46447C7.52678 9.40215 7 10.6739 7 12V68C7 69.3261 7.52678 70.5979 8.46447 71.5355C9.40215 72.4732 10.6739 73 12 73H44C45.3261 73 46.5979 72.4732 47.5355 71.5355Z" fill="white" stroke="#F6B76C" stroke-width="2"/>
</svg>
