<svg width="82" height="74" viewBox="0 0 82 74" fill="none" xmlns="http://www.w3.org/2000/svg">
<path d="M69 1H13C9.8174 1 6.76516 2.26428 4.51472 4.51472C2.26428 6.76516 1 9.8174 1 13V45C1 48.1826 2.26428 51.2348 4.51472 53.4853C6.76516 55.7357 9.8174 57 13 57H37V65H21C19.9391 65 18.9217 65.4214 18.1716 66.1716C17.4214 66.9217 17 67.9391 17 69C17 70.0609 17.4214 71.0783 18.1716 71.8284C18.9217 72.5786 19.9391 73 21 73H61C62.0609 73 63.0783 72.5786 63.8284 71.8284C64.5786 71.0783 65 70.0609 65 69C65 67.9391 64.5786 66.9217 63.8284 66.1716C63.0783 65.4214 62.0609 65 61 65H45V57H69C72.1826 57 75.2348 55.7357 77.4853 53.4853C79.7357 51.2348 81 48.1826 81 45V13C81 9.8174 79.7357 6.76516 77.4853 4.51472C75.2348 2.26428 72.1826 1 69 1ZM73 45C73 46.0609 72.5786 47.0783 71.8284 47.8284C71.0783 48.5786 70.0609 49 69 49H13C11.9391 49 10.9217 48.5786 10.1716 47.8284C9.42143 47.0783 9 46.0609 9 45V13C9 11.9391 9.42143 10.9217 10.1716 10.1716C10.9217 9.42143 11.9391 9 13 9H69C70.0609 9 71.0783 9.42143 71.8284 10.1716C72.5786 10.9217 73 11.9391 73 13V45Z" fill="white" stroke="#AFD3AA" stroke-width="2"/>
</svg>
