<svg width="48" height="48" viewBox="0 0 48 48" fill="none" xmlns="http://www.w3.org/2000/svg">
<path d="M2.94377 2.94377C2.01961 3.86765 1.50028 5.12078 1.5 6.42754V8.8913C1.5 29.3012 18.0467 45.8478 38.4565 45.8478H40.9203C42.2272 45.8478 43.4805 45.3287 44.4046 44.4046C45.3287 43.4805 45.8478 42.2272 45.8478 40.9203V32.8416C45.848 32.3243 45.6852 31.8201 45.3828 31.4004C45.0803 30.9808 44.6534 30.6669 44.1626 30.5035L33.0929 26.8128C32.5303 26.6258 31.9192 26.6479 31.3716 26.875C30.824 27.1022 30.3767 27.5192 30.1117 28.0496L27.3277 33.6103C21.2951 30.8846 16.4632 26.0528 13.7375 20.0201L19.2983 17.2361C19.8286 16.9711 20.2456 16.5238 20.4728 15.9762C20.7 15.4286 20.7221 14.8175 20.5351 14.2549L16.8443 3.18522C16.681 2.69482 16.3676 2.26821 15.9484 1.96578C15.5292 1.66334 15.0256 1.50039 14.5087 1.5H6.42754C5.12078 1.50028 3.86765 2.01961 2.94377 2.94377V2.94377Z" stroke="white" stroke-width="3" stroke-linecap="round" stroke-linejoin="round"/>
</svg>
