<svg width="43" height="47" viewBox="0 0 43 47" fill="none" xmlns="http://www.w3.org/2000/svg">
<path opacity="0.3" d="M27.2221 35.2205L26.4332 43.2133C26.3378 44.1523 25.8737 45.0116 25.1439 45.6016C24.9702 45.7412 24.7835 45.8632 24.5857 45.9662C24.0101 46.2664 23.3566 46.3853 22.7101 46.3069C21.7896 46.2012 20.9524 45.7129 20.4026 44.9608C19.8497 44.2138 19.6244 43.274 19.7795 42.3613L21.4923 32.5728C21.572 32.1211 22.0012 31.8231 22.4511 31.9065C22.901 31.9899 23.2016 32.4234 23.1222 32.8746L21.4093 42.6632L21.409 42.6633C21.3315 43.1278 21.4489 43.6054 21.7334 43.9829C22.0175 44.3605 22.4437 44.6046 22.9108 44.657C23.346 44.707 23.7817 44.5791 24.1193 44.3015C24.5066 43.9897 24.7531 43.535 24.8043 43.0374L25.5748 35.0448C25.6269 34.5955 26.0285 34.2739 26.4771 34.3224C26.9257 34.3709 27.2559 34.7714 27.2184 35.2224L27.2221 35.2205ZM28.8607 0.794873C26.986 0.521537 25.0932 1.4102 23.5394 3.2982L23.5391 3.29836C21.9734 5.31587 20.9881 7.7283 20.6894 10.2761C20.2008 13.8554 20.8939 17.3037 22.5473 19.4997C22.9259 20.0102 23.1733 20.6059 23.268 21.2336C23.3384 21.687 23.7612 22.0005 24.2124 21.9332C24.6636 21.866 24.9722 21.4435 24.9018 20.9901C24.7646 20.0908 24.4088 19.2372 23.8651 18.5067C22.4924 16.6802 21.9027 13.6182 22.3267 10.5129C22.5814 8.27237 23.4386 6.14845 24.8065 4.3685C25.9867 2.94089 27.3407 2.2573 28.628 2.44668C29.9157 2.63589 31.0365 3.67474 31.7864 5.3844L31.7867 5.38424C32.626 7.48526 32.8825 9.77115 32.5281 11.9977C32.1208 15.0991 30.7172 17.8835 28.9075 19.2441C28.2033 19.7802 27.6402 20.4808 27.2662 21.2857C27.1639 21.5052 27.0754 21.7312 27.0004 21.9621C26.8842 22.3883 27.1222 22.834 27.5415 22.9742C27.9609 23.1147 28.4134 22.9004 28.5694 22.4875C28.628 22.318 28.697 22.1524 28.7762 21.9916C29.0354 21.4301 29.4264 20.9414 29.916 20.5664C32.0955 18.9251 33.6806 15.8027 34.1766 12.2288C34.5719 9.6971 34.2726 7.09989 33.3106 4.71523C32.3082 2.4671 30.7278 1.0713 28.8605 0.794593L28.8607 0.794873ZM19.8732 22.4942C19.8079 22.4512 19.7693 22.3769 19.7716 22.2988C19.6511 20.4844 18.5876 18.8606 16.9734 18.0268L5.65914 12.2242C5.46281 12.1178 5.2326 12.0951 5.02056 12.1611C4.80869 12.2273 4.633 12.3765 4.5331 12.5755C4.43304 12.7742 4.41772 13.0055 4.49008 13.2175C4.56229 13.4293 4.71651 13.6035 4.91724 13.7006L16.2243 19.507C17.3176 20.071 18.0377 21.1701 18.1183 22.3982C18.1372 22.7358 18.2467 23.0626 18.4349 23.3441C18.6232 23.6258 18.8832 23.8517 19.1877 23.9981L39.4469 33.4776L39.4468 33.4773C39.846 33.657 40.1554 33.9925 40.3031 34.4054C40.4507 34.8187 40.4235 35.2732 40.2277 35.6627C40.0317 36.0526 39.6846 36.3428 39.2673 36.4666C38.8499 36.59 38.3994 36.5355 38.0205 36.3161L18.4541 25.4365C18.1572 25.2714 17.8219 25.1896 17.4842 25.2003C17.146 25.2108 16.8178 25.3127 16.5341 25.4958C15.506 26.1568 14.2023 26.2204 13.1053 25.6634L1.8208 19.874C1.62477 19.7675 1.39456 19.7448 1.18252 19.8107C0.970493 19.8767 0.794662 20.0263 0.694903 20.2249C0.594845 20.4236 0.57968 20.6552 0.651884 20.8669C0.724089 21.0786 0.878314 21.2528 1.0792 21.3503L12.3806 27.1546C14.003 27.9807 15.9329 27.8865 17.4537 26.9065C17.5171 26.8597 17.6004 26.8505 17.6732 26.8815L37.2228 37.7648C37.9934 38.1987 38.9044 38.2982 39.7443 38.0398C39.9335 37.9822 40.1169 37.9075 40.2922 37.8166C41.0097 37.4416 41.5589 36.8093 41.8318 36.0441C42.1046 35.2789 42.0811 34.4369 41.7659 33.6836C41.4507 32.9303 40.8666 32.3208 40.1292 31.9756L19.8732 22.4942ZM14.1665 22.9353C14.44 22.7938 14.6111 22.5106 14.6101 22.2009C14.609 21.8909 14.4363 21.6061 14.1619 21.4622L3.73289 15.9688C3.32802 15.7546 2.82929 15.9095 2.61937 16.3147C2.40933 16.7196 2.56747 17.2218 2.97266 17.4358L13.4016 22.9292C13.6412 23.0568 13.9268 23.0593 14.1665 22.9353L14.1665 22.9353Z" fill="#4EC41F"/>
</svg>
