<svg width="147" height="179" viewBox="0 0 147 179" fill="none" xmlns="http://www.w3.org/2000/svg">
<path d="M36.5518 151.417L35.2357 126.153C34.8267 123.917 34.4605 121.682 34.0728 119.446L32.9781 112.73C32.2497 108.25 31.5768 103.766 30.8995 99.278C30.2392 94.7896 29.5833 90.3013 28.9741 85.8088L28.0626 79.0634C27.7985 76.9171 27.5131 74.7749 27.2661 72.6285C27.0488 72.5646 26.8358 72.5009 26.6229 72.4287L26.6143 72.4967L26.559 73.1257C26.5206 73.5422 26.5078 73.963 26.4908 74.3838C26.444 75.2211 26.4312 76.0627 26.4056 76.9042C26.3758 78.5832 26.3631 80.2663 26.3588 81.9494C26.3375 85.3115 26.3418 88.6764 26.3716 92.044C26.4099 98.7723 26.444 105.501 26.5206 112.229L26.6612 132.422L26.7124 142.517V152.611C34.7543 151.893 36.5518 151.417 36.5518 151.417ZM50.5018 80.6106C49.962 79.869 49.5304 79.0548 49.2197 78.1922C48.8875 77.3421 48.6021 76.475 48.3422 75.5995C47.8226 73.8525 47.4094 72.0802 47.0346 70.3036C46.6682 68.5183 46.3403 66.7332 46.0762 64.9353C45.7993 63.1375 45.5849 61.3325 45.433 59.5204C45.433 59.5204 42.2724 57.6631 41.3949 56.7875C40.7773 56.1712 39.6485 56.1031 39.0309 56.1202C38.847 56.1301 38.6632 56.1003 38.4919 56.0328C38.3206 55.9653 38.1659 55.8618 38.0384 55.7292C37.9632 55.6661 37.905 55.5853 37.8691 55.4941C37.8333 55.4028 37.8209 55.304 37.8332 55.2068C37.8455 55.1095 37.882 55.0169 37.9395 54.9374C37.9969 54.8578 38.0734 54.794 38.162 54.7516C38.3989 54.5848 38.6864 54.5052 38.9755 54.5263C39.7294 54.5688 41.3992 54.7133 42.1872 55.2275C41.9193 55.0118 41.636 54.8158 41.3396 54.641C32.2667 52.4011 17.3541 54.0716 17.3541 54.0716C17.3541 54.0716 17.0858 56.0309 16.681 59.6139C17.0901 58.8608 17.5439 58.1327 18.0399 57.4336C18.2827 57.0893 18.5254 56.7449 18.7768 56.4049C19.0316 56.0524 19.3046 55.7134 19.5946 55.3891C19.5365 55.8299 19.413 56.2596 19.2283 56.6642C19.0542 57.067 18.8401 57.4514 18.5894 57.8118C18.3398 58.1726 18.056 58.5085 17.7418 58.8149C17.4291 59.1314 17.0717 59.4006 16.681 59.6139C15.1519 73.028 11.6335 109.198 12.6771 150.218C17.0675 152.22 21.905 153.045 26.7123 152.611C26.5803 149.249 26.4951 145.883 26.3886 142.521L26.1544 132.426C26.0095 125.698 25.9371 118.966 25.8562 112.237C25.8264 105.505 25.7923 98.7723 25.8562 92.0397C25.8945 88.6735 25.9456 85.3115 26.0351 81.9452C26.0861 80.2621 26.1514 78.5789 26.231 76.8958C26.2821 76.0585 26.3162 75.217 26.3886 74.3754C26.4227 73.9545 26.4525 73.538 26.5121 73.1172L26.5888 72.4924L26.6016 72.4202C26.4099 72.3565 26.2182 72.2927 26.0265 72.2247C25.4557 72.0079 24.8892 71.7827 24.3355 71.5191C23.7739 71.2638 23.2315 70.9683 22.7126 70.635C23.3229 70.7281 23.9262 70.8616 24.5187 71.0346C25.1065 71.2003 25.6815 71.4002 26.2566 71.5998C26.8231 71.8167 27.3896 72.0377 27.9476 72.2884C28.5056 72.535 29.0508 72.807 29.596 73.1087C28.9785 73.0612 28.3676 72.9501 27.7729 72.7772C27.6068 72.7347 27.445 72.6837 27.2831 72.637C27.6665 74.7579 28.0157 76.8873 28.3863 79.0125L29.481 85.728C30.2094 90.2079 30.8824 94.6919 31.5597 99.1803C32.2157 103.669 32.8759 108.157 33.485 112.654L34.3922 119.399C34.6734 121.647 34.9758 123.896 35.2356 126.153L39.4355 151.175C39.4355 151.175 52.9936 154.171 61.994 151.294C61.9941 151.294 54.2673 108.467 50.5018 80.6106ZM26.2054 61.7901C26.1543 62.7635 26.0946 63.7326 25.9924 64.7015C25.8987 65.6706 25.7794 66.6397 25.5963 67.6003C25.5026 66.6227 25.477 65.6494 25.4728 64.6761C25.4685 63.7028 25.5026 62.7294 25.5409 61.7603C25.5963 60.787 25.6559 59.818 25.7539 58.8488C25.8519 57.8798 25.9712 56.915 26.1543 55.9502C26.2438 56.9276 26.2693 57.901 26.2736 58.8743C26.2778 59.8477 26.248 60.821 26.2054 61.7901ZM26.1543 55.4104C26.0248 55.4056 25.9021 55.3509 25.8122 55.2578C25.7222 55.1646 25.6719 55.0403 25.6719 54.9109C25.6719 54.7816 25.7222 54.6573 25.8122 54.5641C25.9021 54.471 26.0248 54.4163 26.1543 54.4115C26.2839 54.4163 26.4065 54.471 26.4965 54.5641C26.5865 54.6573 26.6367 54.7816 26.6367 54.9109C26.6367 55.0403 26.5865 55.1646 26.4965 55.2578C26.4065 55.3509 26.2839 55.4056 26.1543 55.4104ZM43.7845 63.3372C43.318 63.2481 42.8572 63.1317 42.4044 62.9887C41.4879 62.6844 40.6317 62.2227 39.8743 61.6244C39.1283 60.9998 38.5229 60.2249 38.098 59.3505C37.6666 58.4957 37.4655 57.5436 37.5145 56.5877C37.7202 57.479 38.0713 58.3305 38.5538 59.1082C39.0265 59.8645 39.6159 60.5415 40.3002 61.1143C40.6471 61.3948 41.0145 61.6491 41.3992 61.8751C41.782 62.1115 42.1805 62.3217 42.5918 62.5042C42.7966 62.6043 43.0071 62.6923 43.2223 62.7678L43.8654 63.0185C44.3042 63.1587 44.7472 63.2863 45.1945 63.452C44.7259 63.4308 44.2574 63.3925 43.7845 63.3372ZM48.4913 60.5235C48.4828 59.8732 48.4956 59.3122 48.5339 58.8447L47.8694 59.2739C47.1073 59.6241 46.25 59.7109 45.433 59.5204C45.8377 61.2928 46.221 63.0666 46.5831 64.8419L47.6863 70.1675C48.0483 71.9399 48.4345 73.7066 48.8449 75.4677C49.0578 76.3433 49.2751 77.223 49.5264 78.0901C49.7511 78.9656 50.0785 79.8116 50.5018 80.6106C49.3134 71.8167 48.5211 64.5146 48.4913 60.5235H48.4913Z" fill="black"/>
<path d="M47.2601 53.3277C47.2102 51.9793 46.6412 50.702 45.6713 49.7616C44.0782 48.869 45.1687 51.4107 45.2283 51.5553C45.207 51.534 45.1176 51.4405 44.9685 51.3088C44.8748 50.8455 44.7896 50.3566 44.7087 49.8551L44.6959 49.7787C44.4659 48.3336 44.2699 46.7524 44.1123 45.099C44.113 45.0833 44.1116 45.0676 44.1081 45.0522C43.9656 41.9142 44.3324 38.7738 45.1943 35.7526C45.8247 33.3214 47.2346 33.2405 47.2346 33.2405L55.7537 42.6975L47.5923 52.2778C47.3769 52.5858 47.2609 52.9521 47.2601 53.3277Z" fill="black"/>
<path d="M146.946 103.396C146.946 103.396 140.229 121.001 127.748 118.608C126.48 118.37 125.187 118.289 123.898 118.366C121.363 116.964 118.859 115.523 116.35 114.09C113.845 112.645 111.362 111.179 108.917 109.645C106.459 108.131 104.053 106.542 101.727 104.85C101.143 104.425 100.551 104.013 99.9976 103.554C99.4396 103.103 98.856 102.678 98.3151 102.206L96.6879 100.778C96.1938 100.26 95.6884 99.7441 95.1715 99.2312C96.8583 101.603 99.0605 103.562 101.322 105.377C101.889 105.832 102.455 106.291 103.052 106.708L104.819 107.983C106.025 108.794 107.23 109.602 108.466 110.367C110.936 111.893 113.453 113.338 116.031 114.668C118.603 116.012 121.219 117.257 123.898 118.366C112.389 119.008 100.245 130.875 98.9497 133.455C97.51 136.328 68.9498 105.679 62.4071 86.357C60.4691 80.636 55.396 70.6817 48.5764 60.668C48.544 60.6223 48.5156 60.5739 48.4913 60.5234C48.3464 60.2684 48.1207 59.805 47.8694 59.2737L48.5338 58.8446C48.9418 58.5135 49.2719 58.0971 49.5008 57.6247C49.7222 57.8755 49.8713 58.0242 49.8713 58.0242C49.8713 58.0242 61.6319 49.4046 64.2729 46.2891C66.9138 43.1778 64.2729 40.0623 64.2729 40.0623C64.2729 40.0623 56.4736 27.9701 52.5122 24.0215C51.2389 22.8285 49.6702 21.9953 47.9673 21.6074C57.0316 23.367 78.3634 30.7498 100.871 61.7773C130.628 102.806 146.946 103.396 146.946 103.396Z" fill="black"/>
<path d="M9.55067 176.82C9.85734 176.808 10.164 176.799 10.4664 176.774C6.53914 177.173 1.73437 176.642 0.294678 172.15C0.628151 171.572 1.06905 171.063 1.59375 170.649C1.69564 170.555 1.81635 170.483 1.94803 170.438C2.0797 170.393 2.2194 170.376 2.35802 170.388C2.49664 170.401 2.63109 170.442 2.75262 170.51C2.87414 170.578 2.98002 170.67 3.06337 170.781C3.46441 171.286 3.79668 171.842 4.05151 172.435C4.35392 173.038 4.6607 173.654 5.01417 174.266C5.38108 174.905 5.86518 175.468 6.44117 175.928C7.04449 176.365 7.74964 176.642 8.48992 176.731C8.84118 176.784 9.19552 176.814 9.55067 176.82Z" fill="black"/>
<path d="M31.5467 164.801C31.1634 164.3 30.8184 163.398 30.7374 161.775C30.533 157.724 27.5768 159.994 27.5768 159.994C22.5463 162.651 21.1662 158.536 20.7914 157.886C20.4165 157.24 17.2773 156.874 16.0293 158.812C15.5758 159.434 15.0147 159.969 14.3722 160.394C14.9382 160.462 15.4908 160.614 16.0122 160.844C16.5371 161.062 17.0358 161.339 17.4988 161.669C17.9767 161.999 18.3969 162.405 18.7425 162.872C19.131 163.329 19.3291 163.918 19.2963 164.516C19.0255 164.055 18.6717 163.647 18.2527 163.314C17.8566 162.978 17.4348 162.663 17.0003 162.357L15.6885 161.422C15.2455 161.103 14.8067 160.776 14.3722 160.398C13.4058 161.07 12.3907 161.669 11.3352 162.191C11.8929 162.189 12.4453 162.3 12.9581 162.519C13.4756 162.729 13.957 163.019 14.385 163.377C14.821 163.735 15.1864 164.17 15.4627 164.661C15.7481 165.144 15.9159 165.687 15.9525 166.246C15.5777 165.825 15.2881 165.413 14.9217 165.052C14.5818 164.688 14.219 164.346 13.8355 164.028C13.0731 163.377 12.2382 162.825 11.3352 162.191C10.5344 162.595 9.9594 162.846 9.9594 162.846C9.3077 163.05 8.69858 163.263 8.13204 163.475C8.69258 163.607 9.22876 163.827 9.72084 164.125C10.2206 164.414 10.6815 164.766 11.0924 165.171C11.518 165.579 11.8696 166.058 12.1317 166.586C12.4097 167.115 12.5155 167.716 12.4342 168.308C12.1973 167.82 11.9058 167.361 11.5653 166.939C11.2324 166.529 10.8739 166.14 10.4918 165.775C9.74642 165.014 8.9201 164.321 8.12778 163.475C-0.991855 166.897 0.0346612 171.134 0.0346612 171.134C0.0987044 171.478 0.184028 171.817 0.290152 172.15C0.482551 171.469 0.83777 170.845 1.3253 170.331C1.60652 170.037 1.98816 169.86 2.39444 169.834C2.81465 169.844 3.21582 170.011 3.51892 170.301C3.79764 170.55 4.03739 170.84 4.23023 171.16C4.42625 171.466 4.58807 171.759 4.76267 172.061C5.09503 172.664 5.40161 173.268 5.74666 173.829C6.04965 174.385 6.45248 174.88 6.93508 175.291C7.05862 175.376 7.17364 175.478 7.30571 175.559L7.7146 175.78C8.0089 175.903 8.31218 176.004 8.62184 176.082C9.94171 176.338 11.2863 176.445 12.6301 176.4C14.6179 175.877 16.4931 174.995 18.1633 173.799C22.4952 170.769 27.334 170.93 30.5798 169.2C30.6479 169.162 30.7161 169.124 30.7842 169.09C31.1419 168.88 31.4497 168.595 31.6866 168.255C31.9234 167.916 32.0835 167.528 32.156 167.121C32.2285 166.713 32.2116 166.295 32.1064 165.894C32.0012 165.494 31.8102 165.121 31.5467 164.801ZM25.4641 165.332C24.9402 165.732 24.3992 166.11 23.8412 166.459C23.2832 166.807 22.7082 167.13 22.1204 167.424C21.527 167.73 20.9086 167.986 20.2717 168.189C20.7328 167.706 21.2329 167.263 21.7668 166.863C22.2908 166.463 22.8317 166.085 23.3897 165.736C23.9435 165.388 24.5185 165.069 25.1106 164.771C25.7037 164.464 26.3221 164.208 26.9592 164.006C26.4992 164.49 25.9991 164.933 25.4641 165.332Z" fill="black"/>
<path d="M10.4663 176.774C10.5685 176.766 10.6708 176.753 10.773 176.745C10.7134 176.749 10.658 176.757 10.5984 176.766C10.5557 176.77 10.5089 176.774 10.4663 176.774Z" fill="white"/>
<path d="M11.7909 176.587C11.7399 176.6 11.6845 176.609 11.6291 176.621C11.5184 176.643 11.4076 176.659 11.2969 176.672C11.463 176.647 11.6291 176.621 11.7909 176.587Z" fill="white"/>
<path d="M20.7922 157.887C20.8283 157.011 20.8941 156.154 20.9156 155.295C20.9514 154.435 20.9101 153.573 20.7922 152.72C21.1449 153.534 21.3012 154.419 21.2486 155.304C21.2284 156.183 21.0745 157.054 20.7922 157.887Z" fill="black"/>
<path d="M29.7837 159.491C29.6277 158.888 29.5162 158.278 29.4147 157.667C29.3103 157.056 29.2359 156.441 29.1708 155.825C29.1143 155.208 29.0626 154.59 29.0516 153.969C29.0299 153.349 29.047 152.727 29.1028 152.108L29.3074 153.952L29.5023 155.792C29.5587 156.406 29.6243 157.02 29.6681 157.637C29.7165 158.253 29.7638 158.869 29.7837 159.491Z" fill="black"/>
<path d="M25.3492 5.98706C25.3246 6.97204 25.2066 7.95248 24.9966 8.91525C24.8767 9.38032 24.7999 9.85544 24.7673 10.3346C24.7374 10.8202 24.7401 11.3072 24.7752 11.7925C24.6113 11.3218 24.5209 10.8288 24.5072 10.3307C24.4925 9.83017 24.5477 9.32999 24.6711 8.8446C24.8807 7.89374 25.0738 6.93584 25.3492 5.98706Z" fill="black"/>
<path d="M24.4565 9.08239C24.4565 9.08239 26.9188 8.35638 27.8858 9.89505C27.8858 9.89505 28.9695 9.67924 29.4778 10.2009C30.0099 9.82558 30.6482 9.62965 31.2997 9.64162C31.9512 9.65359 32.5819 9.87283 33.0998 10.2674C33.0998 10.2674 33.2549 12.8437 31.2103 12.9343C31.2103 12.9343 29.1274 12.5223 29.4369 10.6096C29.4369 10.6096 29.0659 9.8949 27.845 10.3031C27.845 10.3031 26.9632 12.6289 25.4763 11.8626C23.9894 11.0963 24.4565 9.08239 24.4565 9.08239Z" fill="black"/>
<path d="M27.6706 22.7892C28.458 22.8666 29.2403 22.9893 30.0136 23.1565C30.8144 23.31 31.604 23.5167 32.3771 23.7752L32.8 23.9259L32.4951 24.1957C31.9645 24.665 31.4073 25.1084 30.9087 25.6086C30.4095 26.1098 29.9361 26.6359 29.4903 27.1848L29.4057 27.2861L29.2591 27.2169C28.8474 27.0225 28.4344 26.8306 28.0315 26.621L26.8288 25.982C26.4276 25.7696 26.0282 25.5539 25.6364 25.3253C25.2432 25.099 24.8574 24.8598 24.472 24.6199L23.9456 24.2921L24.489 24.0486C25.5271 23.5746 26.5891 23.1543 27.6706 22.7892ZM27.6777 22.8554C26.687 23.5267 25.7385 24.0964 24.7798 24.629L24.7967 24.0577C25.198 24.2701 25.5988 24.4833 25.9922 24.7092C26.3869 24.9329 26.7742 25.1694 27.1596 25.4094L28.3167 26.1272C28.7004 26.3699 29.074 26.6302 29.4489 26.8882L29.2179 26.9202C29.756 26.4608 30.2704 25.9746 30.7592 25.4634C31.2471 24.9527 31.6765 24.3851 32.1326 23.8435L32.2505 24.2639C31.4793 24.1239 30.7187 23.9306 29.9744 23.6854C29.2192 23.4484 28.4626 23.189 27.6777 22.8554Z" fill="black"/>
<path d="M32.314 24.0197L29.354 27.0524L31.572 29.5269L36.3797 25.9048L32.314 24.0197Z" fill="black"/>
<path d="M26.3452 15.7037C26.6602 16.2415 26.9222 16.8086 27.1277 17.3968C27.3408 17.9835 27.5085 18.5856 27.6294 19.1979C27.7551 19.8099 27.828 20.4315 27.8473 21.056C27.8732 21.6789 27.8345 22.3028 27.7319 22.9178C27.7012 22.6065 27.7149 22.2991 27.6754 21.9919C27.6584 21.6849 27.6333 21.3792 27.5917 21.0751C27.5169 20.4671 27.4293 19.8616 27.3027 19.2628C27.1869 18.6621 27.0415 18.067 26.8842 17.4734C26.7242 16.8803 26.5419 16.2928 26.3452 15.7037Z" fill="black"/>
<path d="M34.5469 15.8202C34.5804 16.3341 34.6407 16.8399 34.7096 17.3403C34.7764 17.8379 34.8815 18.3297 35.0241 18.8111C35.1547 19.2893 35.3541 19.7461 35.6162 20.1672C35.8894 20.5886 36.2509 20.9459 36.6758 21.2145C36.1716 21.0494 35.7287 20.737 35.4045 20.3179C35.0831 19.8959 34.8456 19.4165 34.7047 18.9055C34.5577 18.4044 34.4727 17.8871 34.4517 17.3652C34.4224 16.8483 34.4543 16.3296 34.5469 15.8202Z" fill="black"/>
<path d="M24.6441 24.3708C23.8597 24.6683 23.0811 24.9716 22.3275 25.33C21.5681 25.6703 20.8267 26.0493 20.1063 26.4655C18.6596 27.2715 17.3091 28.2383 16.0804 29.3475C13.5887 31.5687 11.3896 34.0964 9.53552 36.87C9.07794 37.5656 8.66274 38.2882 8.29219 39.0336C8.20442 39.2135 8.1321 39.4004 8.07598 39.5924C8.02775 39.7889 7.99281 39.9884 7.97138 40.1896C7.92747 40.59 7.93856 40.9945 8.00435 41.392C8.03715 41.5892 8.08283 41.7841 8.1411 41.9754C8.17032 42.073 8.20152 42.1614 8.23563 42.2522L8.36781 42.5375L8.88111 43.6842C9.22679 44.4473 9.54926 45.2191 9.8835 45.9865C11.2259 49.0533 12.4274 52.1733 13.5359 55.3363L13.4061 55.2495C13.7258 55.2732 14.0434 55.3191 14.3566 55.3869L15.2774 55.5807L16.1946 55.7744C16.4979 55.842 16.8054 55.889 17.115 55.9152V55.9817C16.7996 55.9762 16.4848 55.9492 16.1731 55.9011L15.2438 55.7574L14.3181 55.6137C14.0164 55.5652 13.7117 55.5371 13.4061 55.5298L13.3178 55.53L13.2762 55.4429C11.8315 52.416 10.4795 49.3464 9.26857 46.2235C8.96447 45.4432 8.64856 44.6677 8.35593 43.8833L7.91167 42.709L7.80456 42.4139C7.77129 42.3066 7.73925 42.1955 7.71471 42.0908C7.5604 41.4536 7.5347 40.7921 7.63911 40.1448C7.67293 39.9312 7.72118 39.72 7.78355 39.5128C7.85439 39.3059 7.94323 39.1055 8.04905 38.9141C8.45015 38.1663 8.89376 37.4548 9.35956 36.7554C10.2939 35.3608 11.2551 33.9849 12.2811 32.6503C13.2973 31.3005 14.4351 30.0464 15.6804 28.9037C16.3132 28.3352 16.9836 27.8097 17.6871 27.331C18.3934 26.8623 19.1275 26.4365 19.8852 26.056C20.6408 25.677 21.4154 25.337 22.2059 25.0374C22.9974 24.7475 23.8051 24.5037 24.6248 24.3071L24.6441 24.3708Z" fill="black"/>
<path d="M21.9472 28.217C21.6391 30.3888 21.273 32.5482 20.8874 34.7036C20.4947 36.8576 20.0961 39.0098 19.6012 41.144C19.1245 43.2815 18.6408 45.4194 18.3114 47.5839C18.131 48.6633 17.9806 49.7478 17.8518 50.8335C17.7878 51.3761 17.7292 51.9195 17.6829 52.4614C17.6267 52.9881 17.6057 53.5179 17.6202 54.0473L17.3476 53.8066C19.3534 53.7146 21.3585 53.6674 23.3648 53.619C25.3708 53.5674 27.3778 53.5579 29.3851 53.5796C31.3925 53.6014 33.3998 53.6631 35.407 53.7649C36.4102 53.8263 37.4132 53.8969 38.4146 53.9983C38.9152 54.0515 39.4149 54.1165 39.9127 54.2001C40.4196 54.2565 40.9132 54.3992 41.3718 54.6221L41.3346 54.6774C41.1106 54.5771 40.8722 54.5121 40.6282 54.4849C40.383 54.4462 40.136 54.4164 39.8872 54.3956C39.3907 54.35 38.8911 54.3295 38.3918 54.3084C37.3934 54.2646 36.3924 54.2513 35.3915 54.2472C33.3901 54.2218 31.387 54.2461 29.384 54.2604L17.362 54.3385L17.0954 54.3402L17.0894 54.0977C17.0883 53.5318 17.1374 52.9669 17.2361 52.4096C17.316 51.864 17.4116 51.3233 17.5051 50.7824L18.0929 47.5468C18.5021 45.3944 18.8128 43.2251 19.1464 41.0586C19.4637 38.8891 19.8994 36.7417 20.3543 34.5988C20.8176 32.4576 21.3116 30.3225 21.8818 28.2036L21.9472 28.217Z" fill="black"/>
<path d="M15.5801 70.6184C15.0443 70.2079 14.6027 69.6879 14.2848 69.0932C14.1216 68.7983 13.9743 68.4949 13.8435 68.1844L13.6517 67.7158L13.4981 67.2358C13.1116 65.9509 12.8893 64.6225 12.8365 63.282C12.8082 62.6156 12.8223 61.9498 12.8326 61.2854C12.8924 60.6237 12.9105 59.9593 13.0074 59.3033C13.1032 58.6478 13.1949 57.9923 13.3284 57.345C13.4785 56.6999 13.6258 56.056 13.8108 55.4212C13.8127 56.086 13.7768 56.7416 13.7436 57.3958L13.6702 59.354L13.639 61.3028C13.6536 61.9497 13.6458 62.598 13.6869 63.2415L13.7395 64.2071C13.7571 64.529 13.8126 64.8453 13.8383 65.1662C13.8605 65.4883 13.9118 65.8042 13.9654 66.1204C14.0137 66.4382 14.0649 66.7548 14.1382 67.0662C14.3502 68.3419 14.8427 69.555 15.5801 70.6184Z" fill="black"/>
<path d="M15.8633 66.4269C15.4513 66.4164 15.0585 66.2512 14.7634 65.9642C14.4876 65.6913 14.294 65.3466 14.2047 64.9693C14.0677 64.2593 14.0455 63.532 14.139 62.815L14.4029 58.5853L14.3654 62.8215C14.3126 63.5103 14.365 64.2032 14.5208 64.8763C14.6074 65.1878 14.7801 65.4687 15.0192 65.6868C15.246 65.8878 15.5381 65.9999 15.8414 66.0024L15.8633 66.4269Z" fill="black"/>
<path d="M40.3981 178.355C40.0441 178.388 39.6882 178.395 39.3332 178.377C38.5872 178.363 37.857 178.16 37.212 177.786C36.5932 177.387 36.0556 176.875 35.6274 176.277C35.2099 175.703 34.8436 175.121 34.4773 174.551C34.1658 173.986 33.7789 173.466 33.3272 173.004C33.1341 172.814 32.8782 172.701 32.6074 172.686C32.3229 172.7 32.0539 172.819 31.8534 173.021C31.3749 173.489 30.9878 174.041 30.7119 174.649C32.6031 178.955 37.4036 179.01 41.2585 178.228C40.9774 178.275 40.6877 178.313 40.3981 178.355ZM61.0569 164.176C60.6266 163.713 60.1922 162.85 59.9451 161.248C59.3275 157.24 56.6184 159.79 56.6184 159.79C51.8861 162.944 50.0928 158.991 49.6541 158.383C49.2196 157.775 46.0548 157.733 45.0111 159.786C44.6234 160.448 44.1216 161.036 43.5288 161.524C44.0965 161.536 44.6592 161.632 45.1986 161.809C45.7425 161.974 46.2667 162.198 46.7618 162.476C47.2711 162.758 47.7314 163.119 48.1248 163.547C48.5561 163.965 48.8132 164.53 48.8447 165.129C48.5258 164.699 48.1319 164.33 47.6819 164.04C47.2517 163.747 46.8044 163.475 46.3401 163.216L44.9387 162.417C44.466 162.145 43.9974 161.864 43.5246 161.528C42.6328 162.294 41.6861 162.992 40.692 163.62C41.244 163.562 41.8019 163.617 42.3319 163.781C42.8683 163.94 43.3769 164.181 43.8398 164.495C44.3085 164.808 44.7169 165.202 45.0452 165.66C45.3766 166.113 45.5969 166.637 45.6884 167.19C45.2752 166.807 44.943 166.425 44.5426 166.106C44.1678 165.778 43.7723 165.474 43.3584 165.196C42.5321 164.627 41.6504 164.159 40.6877 163.624C39.9295 164.108 39.3843 164.414 39.3843 164.414C38.7581 164.686 38.1703 164.954 37.6251 165.226C38.198 165.3 38.7557 165.464 39.2778 165.711C39.8035 165.948 40.2972 166.251 40.7473 166.612C41.2133 166.974 41.6113 167.416 41.923 167.917C42.2543 168.413 42.4212 169 42.4001 169.596C42.1148 169.134 41.7775 168.706 41.3948 168.32C41.0223 167.948 40.6268 167.598 40.2107 167.275C39.3886 166.595 38.4984 165.987 37.6251 165.226C28.9016 169.549 30.3541 173.663 30.3541 173.663C30.4507 174 30.5702 174.329 30.7119 174.649C30.8341 173.952 31.1235 173.294 31.5553 172.732C31.8039 172.412 32.1643 172.196 32.5648 172.129C32.9855 172.098 33.4027 172.224 33.7361 172.482C34.0369 172.702 34.3038 172.966 34.5284 173.264C34.7542 173.548 34.9416 173.825 35.146 174.105C35.5422 174.67 35.9085 175.244 36.3089 175.767C36.6659 176.29 37.1165 176.742 37.6379 177.102C37.7699 177.174 37.8977 177.263 38.034 177.331L38.4642 177.51C38.7702 177.599 39.0818 177.669 39.397 177.718C40.7395 177.837 42.0911 177.805 43.4266 177.624C45.347 176.902 47.1195 175.836 48.6573 174.479C52.6613 171.028 57.4916 170.696 60.5414 168.648C60.6096 168.605 60.6735 168.558 60.7331 168.516C61.0682 168.272 61.3461 167.958 61.5476 167.596C61.7491 167.235 61.8695 166.834 61.9003 166.421C61.9311 166.008 61.8716 165.594 61.726 165.206C61.5803 164.818 61.352 164.467 61.0569 164.176ZM55.0594 165.32C54.5781 165.77 54.0783 166.198 53.56 166.603C53.0404 167.007 52.5037 167.381 51.9457 167.738C51.3868 168.102 50.7983 168.419 50.1865 168.686C50.5962 168.16 51.0477 167.668 51.5368 167.215C52.0181 166.765 52.5179 166.337 53.0361 165.932C53.5558 165.528 54.0939 165.15 54.6505 164.797C55.2094 164.429 55.7994 164.11 56.414 163.845C56.004 164.373 55.551 164.866 55.0594 165.32Z" fill="black"/>
<path d="M41.6291 178.151C41.5652 178.164 41.4971 178.181 41.4332 178.198C41.3863 178.207 41.3437 178.215 41.2969 178.219C41.4076 178.198 41.5184 178.177 41.6291 178.151Z" fill="white"/>
<path d="M40.6921 163.619L40.6879 163.624C40.6879 163.623 40.6878 163.623 40.6876 163.622C40.6874 163.622 40.6871 163.621 40.6867 163.621C40.6863 163.62 40.6858 163.62 40.6853 163.62C40.6847 163.62 40.6842 163.619 40.6836 163.619H40.6921Z" fill="white"/>
<path d="M43.5288 161.524L43.5245 161.528C43.5245 161.528 43.5244 161.527 43.5242 161.527C43.524 161.526 43.5237 161.526 43.5233 161.525C43.5229 161.525 43.5224 161.525 43.5219 161.524C43.5214 161.524 43.5208 161.524 43.5203 161.524H43.5288Z" fill="white"/>
<path d="M48.843 159.491L49.0437 157.761C49.106 157.186 49.1734 156.613 49.2211 156.04C49.2791 155.467 49.3038 154.893 49.3143 154.321C49.3362 153.746 49.2744 153.17 49.1309 152.613C49.3988 153.14 49.5488 153.72 49.5704 154.311C49.6156 154.896 49.6097 155.484 49.5529 156.069C49.5006 156.651 49.4147 157.229 49.2957 157.801C49.1825 158.374 49.0313 158.938 48.843 159.491Z" fill="black"/>
<path d="M58.7641 160.392C58.5618 159.731 58.4005 159.062 58.2474 158.39C58.0906 157.72 57.9629 157.044 57.8408 156.367C57.7265 155.688 57.6161 155.009 57.5416 154.323C57.4555 153.639 57.4052 152.951 57.3909 152.261C57.5345 152.936 57.6646 153.61 57.795 154.284C57.9288 154.958 58.0475 155.634 58.169 156.31C58.2825 156.987 58.4016 157.663 58.4982 158.344C58.5989 159.024 58.6967 159.704 58.7641 160.392Z" fill="black"/>
<path d="M24.4299 6.10647C24.4299 6.10647 25.2829 7.01573 25.9953 4.61396C25.9953 4.61396 26.4114 3.55151 27.6968 4.41554C27.6968 4.41554 28.614 4.97794 29.0579 4.08017C29.1598 3.96476 29.2844 3.87156 29.4241 3.80642C29.5637 3.74128 29.7153 3.70561 29.8694 3.70162C30.0235 3.69763 30.1767 3.72542 30.3196 3.78324C30.4624 3.84107 30.5917 3.92769 30.6995 4.03768C30.6995 4.03768 30.9945 4.33202 31.6751 4.01715C32.3556 3.70228 33.464 2.94432 33.9241 3.50533C34.3843 4.06633 33.7475 4.38558 34.288 5.02818C34.8285 5.67078 35.4652 5.49874 35.2886 6.23178C35.112 6.96481 35.6845 7.43402 35.5985 8.14666C35.5124 8.85931 35.2472 12.9836 34.6776 13.3684C34.1008 13.8598 33.5885 14.422 33.1531 15.0416C32.9165 15.3418 31.2428 15.5577 30.7725 14.9516C30.4329 14.5497 30.0137 14.2222 29.5412 13.9899C29.5412 13.9899 28.583 13.2468 27.8733 13.7059C27.8733 13.7059 26.4185 12.9133 25.5219 14.0604C25.5219 14.0604 24.8282 14.0648 24.7522 13.498C24.7153 12.9299 24.7231 12.3598 24.7754 11.7929C24.7754 11.7929 24.4219 11.6399 24.4105 13.8171C24.3991 15.9944 25.5242 19.639 25.7272 19.8211C25.9303 20.0033 27.6494 21.1019 31.2435 19.9734C34.8376 18.845 35.4025 16.7376 35.5748 16.1955C35.7596 15.0866 35.8716 13.967 35.9102 12.8436C35.9218 12.4326 35.7872 10.5352 36.9847 9.47702C36.9847 9.47702 37.7703 8.70162 38.1705 9.12419C38.1705 9.12419 39.0087 7.61583 38.7722 4.92229C38.7495 4.66485 38.6726 4.41509 38.5466 4.18931C38.4205 3.96352 38.2482 3.76678 38.0409 3.61191C38.003 3.58364 37.9648 3.55544 37.9266 3.52771C37.5737 3.26235 37.3369 2.87155 37.2654 2.43651C37.2457 2.29227 37.1978 2.15332 37.1242 2.02765C37.0506 1.90197 36.9528 1.79204 36.8365 1.70418C36.7202 1.61632 36.5877 1.55226 36.4465 1.51567C36.3053 1.47909 36.1583 1.47071 36.0138 1.491C34.419 1.50871 33.4371 1.00254 32.948 1.17269C32.459 1.34284 30.274 0.183097 28.2996 1.63486C27.407 2.35702 26.3921 2.91389 25.3029 3.27912C24.929 3.47739 23.1591 4.65514 24.4299 6.10647Z" fill="black"/>
<path d="M38.1706 9.12415C38.3843 9.27438 38.5303 9.50228 38.5774 9.75884C38.6184 10.023 38.5815 10.2933 38.4713 10.5369C38.2954 10.9909 38.1447 11.4542 38.0198 11.9247C37.864 12.4122 37.6134 12.8643 37.2823 13.2552C37.1057 13.456 36.8744 13.6015 36.6166 13.674C36.3611 13.7284 36.0943 13.6825 35.8718 13.5457C36.0996 13.6167 36.345 13.6072 36.5666 13.5187C36.773 13.4212 36.951 13.2729 37.0838 13.0876C37.3526 12.6964 37.5619 12.2677 37.7052 11.8154C37.791 11.5872 37.8486 11.3646 37.9286 11.1178C38.0106 10.8784 38.1139 10.6468 38.2373 10.4259C38.3643 10.2293 38.4262 9.99786 38.4142 9.76428C38.4022 9.53071 38.317 9.30679 38.1706 9.12415Z" fill="black"/>
<path d="M26.5569 10.2759C26.652 10.2726 26.7421 10.2326 26.8082 10.1643C26.8743 10.096 26.9113 10.0047 26.9113 9.90976C26.9113 9.81479 26.8743 9.72354 26.8082 9.65524C26.7421 9.58694 26.652 9.54693 26.5569 9.54364C26.4617 9.54693 26.3716 9.58694 26.3055 9.65524C26.2394 9.72354 26.2024 9.81479 26.2024 9.90976C26.2024 10.0047 26.2394 10.096 26.3055 10.1643C26.3716 10.2326 26.4617 10.2726 26.5569 10.2759Z" fill="black"/>
<path d="M31.0991 10.8758C31.1942 10.8725 31.2843 10.8325 31.3504 10.7642C31.4166 10.6959 31.4535 10.6046 31.4535 10.5096C31.4535 10.4147 31.4166 10.3234 31.3504 10.2551C31.2843 10.1868 31.1942 10.1468 31.0991 10.1435C31.004 10.1468 30.9138 10.1868 30.8477 10.2551C30.7816 10.3234 30.7446 10.4147 30.7446 10.5096C30.7446 10.6046 30.7816 10.6959 30.8477 10.7642C30.9138 10.8325 31.004 10.8725 31.0991 10.8758Z" fill="black"/>
<path d="M24.9897 8.11379C25.5144 7.98537 26.0617 7.98 26.5887 8.09813C26.8542 8.15651 27.1115 8.24722 27.3548 8.36821C27.5987 8.49149 27.8143 8.66403 27.9879 8.87487C27.514 8.67622 27.0217 8.52482 26.518 8.42289C26.0195 8.31322 25.5148 8.23479 24.9897 8.11379Z" fill="black"/>
<path d="M29.5945 9.03493C30.1608 8.84577 30.7599 8.77382 31.3551 8.82347C31.9577 8.84968 32.5413 9.04173 33.0413 9.37837C32.4759 9.26934 31.9044 9.1947 31.33 9.15487C30.7595 9.11036 30.1883 9.09241 29.5945 9.03493Z" fill="black"/>
<path d="M27.2037 12.2899C27.2826 12.4015 27.3752 12.5027 27.4792 12.5915C27.5728 12.6709 27.6736 12.7414 27.7804 12.8021C27.9926 12.9316 28.2335 13.0256 28.5007 13.1846C28.3557 13.2336 28.2016 13.2502 28.0494 13.2332C27.8945 13.2153 27.745 13.1659 27.6102 13.0879C27.4708 13.0062 27.355 12.8897 27.2744 12.7499C27.1908 12.6119 27.1654 12.4466 27.2037 12.2899Z" fill="black"/>
<path d="M37.4493 9.13037C36.76 9.43217 36.0467 9.67609 35.3168 9.85958C34.5906 10.0575 33.849 10.1939 33.0999 10.2674C33.7889 9.96486 34.5022 9.72093 35.2324 9.53815C35.9587 9.34092 36.7002 9.20452 37.4493 9.13037Z" fill="black"/>
<path d="M31.5719 29.5273C31.5719 29.5273 25.0613 42.6979 24.9878 45.9307L27.1827 49.0214L31.366 46.4097C31.366 46.4097 32.4698 32.2812 31.5719 29.5273Z" fill="black"/>
<path d="M45.2131 51.5614C44.9361 51.1652 44.7522 50.7118 44.6751 50.2349C44.6562 50.1053 44.6605 49.9733 44.688 49.8452C44.701 49.7679 44.7345 49.6954 44.785 49.6353C44.8355 49.5752 44.9012 49.5297 44.9753 49.5034C45.1098 49.4778 45.249 49.4975 45.3712 49.5593C45.486 49.6053 45.5902 49.6624 45.6966 49.717L45.7006 49.7191L45.704 49.7221C45.9655 49.9421 46.2071 50.1846 46.426 50.4469C46.6362 50.7186 46.815 51.0131 46.9589 51.3249C47.2302 51.9551 47.3412 52.6424 47.282 53.3257L47.2797 53.3177L47.2812 53.3528H47.2479L47.2409 53.337L47.2386 53.329C47.1885 53.1666 47.1505 53.0052 47.1081 52.8461C47.0555 52.6887 47.0208 52.5293 46.9677 52.3749C46.8737 52.0628 46.7487 51.765 46.6333 51.4645C46.5137 51.1639 46.3725 50.8723 46.2109 50.5919C46.0645 50.2991 45.8713 50.0321 45.639 49.8013L45.6463 49.8062C45.4589 49.6973 45.1957 49.6005 45.0429 49.683C44.9175 49.7522 44.9525 49.9908 44.9719 50.1982C45.0275 50.6345 45.1596 51.0815 45.2439 51.5488L45.2131 51.5614Z" fill="black"/>
<path d="M42.8565 53.6403C42.3219 53.1604 41.7979 52.6688 41.2484 52.2272C41.1159 52.1182 40.975 52.0198 40.8269 51.933C40.7625 51.8943 40.6919 51.8668 40.6183 51.8515L40.3594 51.802C40.0143 51.738 39.6656 51.6955 39.3152 51.6746C38.9631 51.6533 38.6008 51.6659 38.2361 51.6286C38.1369 51.6296 38.0388 51.6071 37.9501 51.5629C37.8613 51.5187 37.7843 51.454 37.7255 51.3743C37.6694 51.2926 37.6359 51.1975 37.6283 51.0986C37.6208 50.9998 37.6395 50.9008 37.6825 50.8114C37.8546 50.4735 38.1529 50.2167 38.5131 50.0963C38.8571 49.9645 39.2165 49.8771 39.5827 49.836L39.4726 49.998C39.4224 49.8355 39.4115 49.6635 39.4409 49.4961C39.4558 49.4054 39.4887 49.3186 39.5376 49.2408C39.5866 49.1629 39.6506 49.0956 39.726 49.0429C40.0175 48.8779 40.3573 48.819 40.6875 48.8764C41.2879 48.9637 41.8713 49.1429 42.4169 49.4078C42.9564 49.6656 43.4687 49.9767 43.9461 50.3363C44.4202 50.6936 44.8554 51.0996 45.2446 51.5476L45.221 51.5711C44.7724 51.196 44.2992 50.8513 43.8045 50.5393C43.3178 50.2254 42.8062 49.9518 42.2749 49.7209C41.7532 49.4887 41.2069 49.3162 40.6462 49.2068C40.3947 49.152 40.1321 49.1817 39.8992 49.2911C39.8069 49.3649 39.7396 49.4653 39.7064 49.5787C39.6733 49.692 39.6758 49.8128 39.7138 49.9246L39.7495 50.0799L39.6035 50.0868C39.2529 50.0941 38.9047 50.1472 38.5678 50.2448C38.4007 50.2845 38.244 50.3592 38.1081 50.4641C37.9722 50.5689 37.8602 50.7014 37.7797 50.8528C37.7447 50.9257 37.7301 51.0067 37.7374 51.0871C37.7447 51.1676 37.7736 51.2446 37.8212 51.31C37.8687 51.3754 37.933 51.4269 38.0074 51.4588C38.0818 51.4908 38.1634 51.5022 38.2437 51.4917C38.5964 51.4931 38.9516 51.4451 39.3172 51.4324C39.6843 51.4151 40.0522 51.4407 40.4134 51.5086C40.5042 51.5222 40.5928 51.5457 40.6821 51.5658C40.7834 51.5911 40.88 51.6323 40.9684 51.688C41.1264 51.7882 41.2761 51.9009 41.4161 52.025C41.9542 52.5081 42.4448 53.0414 42.881 53.6178L42.8565 53.6403Z" fill="black"/>
<path d="M42.8611 53.6454L42.8563 53.6416L42.8592 53.644C41.9826 53.2524 41.073 52.9388 40.1411 52.7069C39.6804 52.5703 39.2057 52.4857 38.726 52.4548C38.4864 52.4404 38.246 52.4524 38.009 52.4907C37.8991 52.4968 37.7915 52.5245 37.6924 52.5723C37.5933 52.62 37.5046 52.6869 37.4315 52.769C37.3458 52.9204 37.4845 53.1381 37.6308 53.2758C37.7899 53.4149 37.9899 53.4988 38.2008 53.5149C38.6966 53.5231 39.1892 53.5957 39.6662 53.731C40.6183 54.0126 41.4872 54.5218 42.1974 55.2144L42.1767 55.2403C41.372 54.7213 40.4929 54.3274 39.5695 54.0723C39.1112 53.9446 38.6414 53.8621 38.1669 53.826C37.8903 53.7932 37.6341 53.6643 37.4432 53.462C37.3474 53.3611 37.275 53.2405 37.231 53.1086C37.2035 53.0372 37.1934 52.9603 37.2014 52.8842C37.2095 52.8081 37.2355 52.735 37.2774 52.6708C37.4686 52.4839 37.7248 52.3778 37.9925 52.3748C38.2369 52.3505 38.4826 52.3413 38.7281 52.3471C39.2203 52.3342 39.7126 52.3641 40.1995 52.4366C41.1715 52.6175 42.0883 53.0207 42.8778 53.6147L42.8807 53.6168L42.8809 53.617L42.8846 53.6218L42.8611 53.6454Z" fill="black"/>
<path d="M49.5161 57.631C49.2024 58.4075 48.6152 59.0428 47.8648 59.4175C47.4835 59.5982 47.0731 59.71 46.6526 59.7476C46.2348 59.7806 45.8144 59.7476 45.407 59.6499L45.3799 59.6437L45.3655 59.6341L42.4798 57.7152C42.241 57.5527 41.9995 57.3927 41.7648 57.221C41.5283 57.0555 41.3081 56.8326 41.0931 56.6917C40.607 56.425 40.0614 56.285 39.5067 56.2848C39.3668 56.2782 39.2266 56.2784 39.0862 56.283C38.9281 56.2923 38.7694 56.2801 38.6146 56.2467C38.2853 56.181 37.9943 55.9906 37.8025 55.7155C37.6898 55.5631 37.6376 55.3745 37.6559 55.1861C37.6899 55.0033 37.7867 54.8381 37.9296 54.7189C38.1743 54.4957 38.4927 54.3702 38.8242 54.3665C39.4111 54.3952 39.9948 54.4702 40.5698 54.5908C41.1482 54.6878 41.7013 54.8994 42.1965 55.2131L42.2043 55.2274C42.2053 55.2223 42.1959 55.2131 42.1914 55.2151V55.2484C42.1822 55.2505 42.1686 55.2375 42.1699 55.2277L42.1777 55.2418C41.6578 55.0054 41.1019 54.8573 40.5331 54.8037C39.9711 54.7307 39.4052 54.6909 38.8385 54.6845C38.3538 54.705 37.7778 55.1519 38.0963 55.5158C38.2393 55.7176 38.4517 55.8598 38.693 55.9155C38.8197 55.9466 38.9501 55.96 39.0805 55.9552C39.2283 55.9547 39.3768 55.9587 39.5247 55.9699C40.1297 55.9872 40.7185 56.1698 41.2268 56.4977C41.4787 56.6952 41.6454 56.9068 41.871 57.0872C42.0919 57.2684 42.314 57.451 42.5489 57.6167C43.4895 58.2813 44.4757 58.8791 45.5002 59.4058L45.4589 59.3901C46.2288 59.5443 47.0271 59.4724 47.757 59.1831C48.1158 59.0243 48.4461 58.8078 48.7345 58.5421C49.0297 58.2732 49.2828 57.9617 49.4854 57.618L49.5161 57.631Z" fill="black"/>
<path d="M39.6184 49.7973C40.0291 49.8829 40.4334 49.9961 40.8287 50.1362C41.2229 50.2721 41.6062 50.4374 41.9754 50.6307C42.7298 50.9897 43.3619 51.562 43.7931 52.2764C43.3238 51.6032 42.6662 51.0828 41.9024 50.7802C41.5303 50.6162 41.1463 50.4805 40.7537 50.3742C40.3646 50.2651 39.9686 50.1822 39.5684 50.1261L39.6184 49.7973Z" fill="black"/>
<path d="M44.6978 49.9695L44.6737 49.864L44.673 49.8611C44.5009 49.0733 44.3469 48.2771 44.2308 47.476C44.1713 47.0756 44.1191 46.6739 44.074 46.2709L44.0127 45.666L43.9658 45.0879L43.9616 45.0595C43.8205 42.9104 43.9329 40.7522 44.2966 38.6294C44.478 37.5645 44.721 36.5265 45.0026 35.4778C45.1496 34.9301 45.3918 34.4123 45.7183 33.9481C45.8911 33.6934 46.1126 33.4752 46.3701 33.306C46.6276 33.1368 46.9159 33.02 47.2187 32.9622L47.3413 32.9431L47.4428 33.0542C48.8729 34.621 50.302 36.189 51.7087 37.7769L53.8277 40.1508L55.9244 42.5446L56.0585 42.6977L55.9286 42.8459L51.7793 47.5778L47.6691 52.3427L47.6746 52.3356C47.533 52.5564 47.4369 52.8032 47.392 53.0615C47.3471 53.3198 47.3542 53.5844 47.4129 53.84C47.5233 54.3677 47.7173 54.8746 47.9876 55.3415C48.5288 56.2882 49.1946 57.1583 49.9672 57.9288L49.7914 57.9154C53.1605 55.3604 56.5051 52.7653 59.7395 50.0508C60.5445 49.3689 61.3439 48.68 62.1226 47.9748C62.5159 47.6249 62.8954 47.2643 63.2649 46.8964C63.4578 46.7174 63.624 46.5233 63.7992 46.3345C63.884 46.2388 63.9776 46.1471 64.0553 46.0482L64.2773 45.747C64.5692 45.3489 64.7947 44.9064 64.9451 44.4366C65.0765 43.9664 65.128 43.4776 65.0975 42.9905C64.9942 42.0056 64.615 41.0698 64.0033 40.29L63.9833 40.2645L63.9759 40.2531C62.8403 38.5021 61.6833 36.7622 60.5049 35.0333C59.3305 33.3045 58.1197 31.6014 56.9028 29.9048C55.676 28.2173 54.4265 26.5397 53.0573 24.9796C52.7022 24.607 52.3638 24.2038 51.9879 23.8714C51.6096 23.5307 51.1991 23.2275 50.7622 22.9658C49.8748 22.4421 48.9194 22.0427 47.9229 21.7789L47.9674 21.7845L47.959 21.7844L47.934 21.7841L47.9144 21.7787C46.7434 21.4703 45.5452 21.2762 44.3367 21.199C43.1227 21.1147 41.9037 21.133 40.6927 21.2536L40.6831 21.1878C41.8963 21.0146 43.1219 20.9441 44.347 20.9772C45.5788 20.9982 46.8048 21.1521 48.0034 21.4361L47.959 21.4305L47.9674 21.4304L47.9877 21.4301L48.0121 21.4361C49.0522 21.6797 50.0537 22.0649 50.9885 22.5809C51.4588 22.8442 51.9024 23.1524 52.3131 23.5011C52.7316 23.8529 53.072 24.2517 53.4463 24.6291C54.8679 26.1915 56.152 27.8537 57.4164 29.5282C58.6817 31.2022 59.8783 32.9242 61.0702 34.6477C62.2567 36.3759 63.4233 38.1172 64.57 39.8716L64.5428 39.8348C65.2418 40.7314 65.6679 41.8096 65.7702 42.941C65.8014 43.5103 65.7355 44.0809 65.575 44.6281C65.3988 45.1646 65.1366 45.6691 64.7986 46.1219L64.5461 46.4559C64.4592 46.5635 64.3624 46.6568 64.271 46.7579C64.0848 46.955 63.9038 47.1605 63.7067 47.3397C63.3229 47.7143 62.931 48.0769 62.5312 48.4275C61.7385 49.1384 60.9152 49.8079 60.0922 50.4767C56.7844 53.1307 53.386 55.6552 49.9516 58.1331L49.8548 58.2031L49.7758 58.1197C49.394 57.715 49.0342 57.2901 48.6979 56.847C48.3589 56.4053 48.0542 55.9384 47.7864 55.4504C47.5086 54.9603 47.3111 54.4291 47.2013 53.8768C47.1401 53.594 47.1359 53.3018 47.189 53.0174C47.2421 52.733 47.3515 52.4619 47.5106 52.2201L47.5134 52.2161L47.5162 52.2129L51.5672 47.3977L55.5792 42.5494L55.5834 42.8505L53.4206 40.5159L51.28 38.1614C49.8471 36.597 48.4364 35.0126 47.027 33.4271L47.2509 33.5191C47.0379 33.5587 46.8367 33.6457 46.662 33.7735C46.4681 33.914 46.296 34.0822 46.1512 34.2727C45.8588 34.6826 45.6402 35.1403 45.5053 35.6252C45.2174 36.6353 44.9764 37.6803 44.7636 38.7149C44.3526 40.7987 44.182 42.9225 44.2551 45.045L44.2509 45.0168C44.2577 45.0769 44.2614 45.1372 44.262 45.1977L44.2671 45.3462L44.2803 45.6472L44.3159 46.2493C44.3435 46.6505 44.3785 47.0514 44.4211 47.4518C44.5068 48.2529 44.6189 49.0501 44.7448 49.8491L44.7442 49.8464L44.7626 49.9533L44.6978 49.9695Z" fill="black"/>
<path d="M36.6853 21.2468C35.9949 21.8323 35.3046 22.36 34.6039 22.8548C33.9144 23.3558 33.1982 23.8193 32.4586 24.2433L32.4265 23.778C33.0837 24.136 33.7276 24.5226 34.3933 24.8623C35.0618 25.1971 35.7474 25.4966 36.4473 25.7596L36.2616 25.7966L37.2599 24.5535C37.5959 24.1422 37.9475 23.7452 38.2987 23.3477C38.9958 22.548 39.7098 21.7636 40.4405 20.9946L40.6857 21.5519L36.6853 21.2468ZM36.6665 21.183L40.6865 20.8867L41.4802 20.8282L40.9318 21.4441C40.2263 22.2362 39.5048 23.0136 38.7671 23.7763C38.4006 24.1597 38.0345 24.5436 37.6529 24.9132L36.498 26.0128L36.4048 26.1015L36.3121 26.0498C35.6593 25.6856 34.9878 25.3558 34.3004 25.0619C33.6109 24.7731 32.8995 24.5313 32.2015 24.2609L31.7676 24.0928L32.1694 23.7956C32.8829 23.2852 33.6228 22.8125 34.386 22.3795C35.1392 21.9395 35.9028 21.5324 36.6665 21.183L36.6665 21.183Z" fill="black"/>
<path d="M19.6062 39.954C19.242 40.2716 18.8608 40.5692 18.4643 40.8456C18.0822 41.1022 17.7366 41.4093 17.4372 41.7586C17.1144 42.0976 16.8677 42.5014 16.7135 42.9431C16.5704 43.3937 16.5445 43.8732 16.6384 44.3365C16.8684 45.2356 17.165 46.1756 17.3702 47.106C17.5787 48.0462 17.7316 48.9979 17.8281 49.9561L17.7866 49.9657C17.4464 49.0645 17.1597 48.1442 16.9279 47.2094C16.8126 46.7436 16.7202 46.2723 16.6249 45.8017C16.5154 45.3277 16.4424 44.846 16.4065 44.3608C16.3948 43.8698 16.4534 43.3796 16.5807 42.9051C16.6885 42.4192 16.884 41.957 17.1576 41.5409C17.4528 41.1326 17.8398 40.7991 18.2876 40.5673C18.7074 40.3276 19.14 40.1109 19.5834 39.9181L19.6062 39.954Z" fill="black"/>
</svg>
