<svg width="144" height="193" viewBox="0 0 144 193" fill="none" xmlns="http://www.w3.org/2000/svg">
<path d="M69.9707 143.034C69.9707 143.034 72.3313 129.08 69.9707 124.874C67.6146 120.672 68.1164 111.089 68.1164 111.089C68.1164 111.089 69.4646 107.894 68.1164 91.3511C66.8172 75.3808 60.4117 67.5677 59.9727 67.0448C59.9681 67.0448 59.9594 67.0358 59.9548 67.0313C59.9525 67.0264 59.9495 67.0219 59.9458 67.0179C59.9452 67.0179 59.9447 67.018 59.9441 67.0183C59.9436 67.0185 59.9431 67.0188 59.9427 67.0192C59.9423 67.0197 59.9419 67.0202 59.9417 67.0207C59.9415 67.0213 59.9414 67.0218 59.9415 67.0224C59.7039 67.1744 59.453 67.3129 59.1888 67.447C56.5191 68.7656 52.519 69.1589 48.3845 69.0964L24.3525 103.629C24.2272 112.471 24.8005 119.394 25.1544 120.172C25.9964 122.022 25.1544 132.607 25.1544 132.607C25.1544 132.607 22.4578 143.034 24.3123 151.272C26.1622 159.51 22.2876 171.265 22.2876 171.265C34.4222 181.689 44.026 175.467 47.0586 173.951C48.4652 173.25 49.2581 173.42 49.697 173.8C50.9473 174.932 52.4607 175.735 54.1003 176.137C65.6437 178.663 75.3639 172.105 75.3639 172.105L69.9707 143.034ZM25.1141 171.372C24.9401 171.366 24.7752 171.293 24.6542 171.168C24.5333 171.043 24.4657 170.876 24.4657 170.702C24.4657 170.528 24.5333 170.361 24.6542 170.236C24.7752 170.111 24.9401 170.038 25.1141 170.032C25.2882 170.038 25.453 170.111 25.574 170.236C25.6949 170.361 25.7625 170.528 25.7625 170.702C25.7625 170.876 25.6949 171.043 25.574 171.168C25.453 171.293 25.2882 171.366 25.1141 171.372ZM28.0168 172.982C27.8427 172.975 27.6778 172.902 27.5568 172.777C27.4359 172.652 27.3683 172.485 27.3683 172.311C27.3683 172.137 27.4359 171.97 27.5568 171.845C27.6778 171.72 27.8427 171.647 28.0168 171.641C28.1908 171.647 28.3557 171.72 28.4767 171.845C28.5977 171.97 28.6653 172.137 28.6653 172.311C28.6653 172.485 28.5977 172.652 28.4767 172.777C28.3557 172.902 28.1908 172.975 28.0168 172.982ZM30.9194 174.591C30.7453 174.584 30.5805 174.511 30.4595 174.386C30.3386 174.261 30.271 174.094 30.271 173.92C30.271 173.746 30.3386 173.579 30.4595 173.454C30.5805 173.329 30.7453 173.256 30.9194 173.25C31.0934 173.256 31.2582 173.329 31.3792 173.454C31.5001 173.579 31.5676 173.746 31.5676 173.92C31.5676 174.094 31.5001 174.261 31.3792 174.386C31.2582 174.511 31.0934 174.584 30.9194 174.591V174.591ZM34.6282 175.717C34.4542 175.711 34.2893 175.638 34.1683 175.512C34.0474 175.387 33.9798 175.22 33.9798 175.047C33.9798 174.873 34.0474 174.706 34.1683 174.581C34.2893 174.456 34.4542 174.382 34.6282 174.376C34.8023 174.382 34.9671 174.456 35.088 174.581C35.209 174.706 35.2765 174.873 35.2765 175.047C35.2765 175.22 35.209 175.387 35.088 175.512C34.9671 175.637 34.8023 175.711 34.6282 175.717V175.717ZM38.8209 175.556C38.6469 175.55 38.482 175.477 38.3611 175.351C38.2402 175.226 38.1726 175.059 38.1726 174.886C38.1726 174.712 38.2402 174.545 38.3611 174.42C38.482 174.295 38.6469 174.221 38.8209 174.215C38.9949 174.221 39.1597 174.295 39.2806 174.42C39.4015 174.545 39.469 174.712 39.469 174.886C39.469 175.059 39.4015 175.226 39.2806 175.351C39.1597 175.476 38.9949 175.55 38.8209 175.556H38.8209ZM43.0138 174.269C42.8397 174.263 42.6749 174.189 42.5539 174.064C42.433 173.939 42.3654 173.772 42.3654 173.598C42.3654 173.425 42.433 173.258 42.5539 173.133C42.6749 173.007 42.8397 172.934 43.0138 172.928C43.1878 172.934 43.3526 173.008 43.4735 173.133C43.5944 173.258 43.662 173.425 43.662 173.598C43.662 173.772 43.5944 173.939 43.4735 174.064C43.3526 174.189 43.1878 174.263 43.0138 174.269V174.269ZM46.7226 172.499C46.5485 172.493 46.3837 172.419 46.2627 172.294C46.1418 172.169 46.0742 172.002 46.0742 171.828C46.0742 171.655 46.1418 171.488 46.2627 171.362C46.3837 171.237 46.5485 171.164 46.7226 171.158C46.8967 171.164 47.0615 171.237 47.1824 171.363C47.3033 171.488 47.3709 171.655 47.3709 171.828C47.3709 172.002 47.3033 172.169 47.1824 172.294C47.0615 172.419 46.8967 172.493 46.7226 172.499V172.499ZM50.7541 172.66C50.58 172.654 50.4152 172.58 50.2942 172.455C50.1733 172.33 50.1057 172.163 50.1057 171.989C50.1057 171.815 50.1733 171.648 50.2942 171.523C50.4152 171.398 50.58 171.325 50.7541 171.319C50.9281 171.325 51.0929 171.398 51.2138 171.523C51.3347 171.649 51.4023 171.815 51.4023 171.989C51.4023 172.163 51.3347 172.33 51.2138 172.455C51.0929 172.58 50.9281 172.653 50.7541 172.66V172.66ZM54.3017 174.591C54.1277 174.584 53.9629 174.511 53.8419 174.386C53.721 174.261 53.6534 174.094 53.6534 173.92C53.6534 173.746 53.721 173.579 53.8419 173.454C53.9629 173.329 54.1277 173.256 54.3017 173.25C54.4757 173.256 54.6405 173.329 54.7614 173.454C54.8823 173.579 54.9498 173.746 54.9498 173.92C54.9498 174.094 54.8823 174.261 54.7614 174.386C54.6405 174.511 54.4757 174.584 54.3017 174.591V174.591ZM58.3332 175.395C58.1592 175.389 57.9943 175.316 57.8734 175.191C57.7524 175.066 57.6849 174.899 57.6849 174.725C57.6849 174.551 57.7524 174.384 57.8734 174.259C57.9943 174.134 58.1592 174.06 58.3332 174.054C58.5072 174.061 58.6719 174.134 58.7928 174.259C58.9136 174.384 58.9812 174.551 58.9812 174.725C58.9812 174.898 58.9136 175.065 58.7928 175.19C58.6719 175.315 58.5072 175.389 58.3332 175.395V175.395ZM62.3647 175.395C62.1906 175.389 62.0258 175.316 61.9048 175.191C61.7839 175.066 61.7163 174.899 61.7163 174.725C61.7163 174.551 61.7839 174.384 61.9048 174.259C62.0258 174.134 62.1906 174.06 62.3647 174.054C62.5386 174.061 62.7034 174.134 62.8242 174.259C62.9451 174.384 63.0126 174.551 63.0126 174.725C63.0126 174.898 62.9451 175.065 62.8242 175.19C62.7034 175.315 62.5386 175.389 62.3647 175.395V175.395ZM66.8799 174.752C66.7059 174.745 66.541 174.672 66.42 174.547C66.2991 174.422 66.2315 174.255 66.2315 174.081C66.2315 173.907 66.2991 173.74 66.42 173.615C66.541 173.49 66.7059 173.417 66.8799 173.411C67.0539 173.417 67.2187 173.49 67.3396 173.615C67.4605 173.74 67.528 173.907 67.528 174.081C67.528 174.255 67.4605 174.422 67.3396 174.547C67.2187 174.672 67.0539 174.745 66.8799 174.752V174.752ZM70.589 173.142C70.4149 173.136 70.2501 173.063 70.1291 172.938C70.0082 172.813 69.9406 172.646 69.9406 172.472C69.9406 172.298 70.0082 172.131 70.1291 172.006C70.2501 171.881 70.4149 171.808 70.589 171.802C70.763 171.808 70.9277 171.881 71.0486 172.006C71.1695 172.131 71.237 172.298 71.237 172.472C71.237 172.646 71.1695 172.813 71.0486 172.938C70.9277 173.063 70.763 173.136 70.589 173.142V173.142ZM73.6528 171.212C73.4788 171.205 73.3139 171.132 73.193 171.007C73.072 170.882 73.0044 170.715 73.0044 170.541C73.0044 170.367 73.072 170.2 73.193 170.075C73.3139 169.95 73.4788 169.877 73.6528 169.871C73.8268 169.877 73.9916 169.95 74.1125 170.075C74.2333 170.2 74.3009 170.367 74.3009 170.541C74.3009 170.715 74.2333 170.882 74.1125 171.007C73.9916 171.132 73.8268 171.205 73.6528 171.212V171.212Z" fill="#020202"/>
<path d="M29.1546 54.1805C28.9965 53.3788 28.9452 52.5598 29.0021 51.7448C29.0245 51.3196 29.0694 50.8959 29.1366 50.4754C29.14 50.4408 29.146 50.4064 29.1546 50.3727C28.6048 50.3473 28.0588 50.2695 27.524 50.1402C26.8772 49.9953 26.2512 49.77 25.6605 49.4698L23.4702 53.0856L24.3033 54.2252C25.3873 53.9034 26.1443 53.7157 26.1443 53.7157C26.1443 53.7157 26.6952 55.5616 29.1589 56.1381C28.9315 55.5056 28.93 54.8141 29.1546 54.1805ZM24.9527 53.4252C24.7787 53.419 24.6139 53.3457 24.4929 53.2206C24.372 53.0956 24.3044 52.9286 24.3044 52.7548C24.3044 52.5811 24.372 52.4141 24.4929 52.289C24.6139 52.164 24.7787 52.0906 24.9527 52.0844C25.1268 52.0906 25.2916 52.164 25.4125 52.289C25.5334 52.4141 25.601 52.5811 25.601 52.7548C25.601 52.9286 25.5334 53.0956 25.4125 53.2206C25.2916 53.3457 25.1267 53.419 24.9527 53.4252H24.9527ZM27.6942 54.1493C27.5201 54.1431 27.3553 54.0697 27.2343 53.9447C27.1134 53.8196 27.0458 53.6526 27.0458 53.4789C27.0458 53.3051 27.1134 53.1381 27.2343 53.0131C27.3553 52.888 27.5201 52.8147 27.6942 52.8085C27.8682 52.8147 28.0331 52.888 28.154 53.0131C28.2749 53.1381 28.3425 53.3051 28.3425 53.4789C28.3425 53.6526 28.2749 53.8196 28.154 53.9447C28.033 54.0697 27.8682 54.1431 27.6941 54.1493H27.6942Z" fill="#020202"/>
<path d="M35.9363 43.333C36.9708 43.5156 37.9861 43.794 38.9689 44.1644C35.7349 46.7076 30.2745 52.7775 30.2745 52.7775C29.8058 53.0972 29.4364 53.5416 29.2083 54.0603C29.3069 53.296 29.4099 52.5496 29.5442 51.8076C29.6249 51.4053 29.6921 50.9986 29.7861 50.5963C29.8798 50.2005 29.9935 49.8096 30.1267 49.4252C30.3686 48.6296 30.6194 47.834 30.8345 47.0205C31.0606 46.2093 31.246 45.3874 31.3898 44.5577C30.9845 45.2977 30.6255 46.062 30.3148 46.8462C29.9922 47.6239 29.7146 48.4151 29.4548 49.2196C29.3651 49.5459 29.2577 49.8722 29.186 50.2208C28.684 50.0002 28.162 49.8281 27.6271 49.7068C26.9848 49.5424 26.3237 49.4627 25.6606 49.4699C25.6606 49.4699 25.2396 41.4021 31.1346 36.6105C31.1346 36.6105 33.3205 33.9243 40.2858 32.8336C39.9724 32.9275 37.4416 33.9555 35.9363 43.333Z" fill="#020202"/>
<path d="M53.0386 43.7538C52.9719 43.7503 52.9017 43.7468 52.835 43.7468" stroke="#020202" stroke-width="0.75838" stroke-linecap="round" stroke-linejoin="round"/>
<path d="M8.26268 33.1623C7.80499 32.8185 7.30943 32.528 6.78563 32.2965C6.26723 32.0538 5.73947 31.8317 5.20781 31.6191C4.1408 31.2043 3.07104 30.7883 1.98827 30.4245L2.07023 30.4389C1.90191 30.4443 1.73433 30.4635 1.56916 30.4963C1.42424 30.5328 1.2857 30.6019 1.2808 30.6475C1.26867 30.7427 1.29436 30.8389 1.35238 30.9155C1.43155 31.0476 1.52807 31.1686 1.63939 31.2752L3.32072 32.735C4.445 33.7043 5.54818 34.6963 6.66269 35.6759C6.72249 35.7285 6.76242 35.7999 6.77584 35.8783C6.78926 35.9567 6.77535 36.0373 6.73643 36.1067C6.69751 36.1761 6.63594 36.2301 6.56196 36.2597C6.48799 36.2893 6.40609 36.2927 6.3299 36.2694L6.30456 36.2615C5.84148 36.1331 5.35558 36.1091 4.88207 36.1914C4.39915 36.2645 3.87512 36.4517 3.78119 36.727C3.65931 36.9926 3.91073 37.4922 4.21086 37.8751C4.53051 38.279 4.89288 38.6472 5.29166 38.9734L5.29408 38.9755C5.35734 39.0281 5.39706 39.1036 5.40451 39.1854C5.41196 39.2673 5.38653 39.3487 5.33382 39.4118C5.30313 39.4483 5.26454 39.4773 5.22097 39.4967C4.95755 39.6047 4.70255 39.732 4.45809 39.8778C4.24083 40.0186 4.02512 40.2101 4.03441 40.3413C4.01352 40.466 4.18381 40.6789 4.41263 40.827C4.64934 40.9826 4.9041 41.109 5.17131 41.2034C5.21259 41.2184 5.24878 41.2447 5.27573 41.2794C5.30268 41.314 5.3193 41.3555 5.32368 41.3991C5.32807 41.4427 5.32003 41.4867 5.3005 41.5259C5.28098 41.5652 5.25075 41.5982 5.21329 41.6211L4.90118 41.8119C4.81195 41.8657 4.73683 41.9399 4.682 42.0283C4.62766 42.1164 4.59308 42.2152 4.58064 42.3179C4.5682 42.4206 4.57819 42.5248 4.60992 42.6233C4.64232 42.7248 4.6959 42.8183 4.76713 42.8977C4.83837 42.9771 4.92564 43.0405 5.02321 43.0838C5.2617 43.1743 5.50564 43.2497 5.75359 43.3097C6.24927 43.4522 6.76987 43.4866 7.28003 43.4104C7.5313 43.3674 7.76244 43.2461 7.9402 43.0637C8.11087 42.8661 8.2226 42.6247 8.26272 42.3669C8.24871 42.6364 8.15895 42.8966 8.00369 43.1176C7.83031 43.3361 7.58905 43.4908 7.31787 43.5575C6.78585 43.6813 6.2333 43.689 5.69805 43.5799C5.42726 43.5368 5.15962 43.4757 4.89692 43.3972C4.74817 43.3425 4.61318 43.256 4.50137 43.1438C4.38955 43.0317 4.30361 42.8965 4.24953 42.7478C4.19326 42.5966 4.17047 42.435 4.18273 42.2742C4.19499 42.1134 4.24201 41.9571 4.32056 41.8162C4.39893 41.6756 4.50783 41.5543 4.63928 41.4612L4.9929 41.2213L5.03486 41.6389C4.72172 41.5455 4.42137 41.4138 4.14068 41.2468C3.9879 41.1559 3.84928 41.0432 3.72924 40.9123C3.65858 40.838 3.60197 40.7516 3.56215 40.6573C3.51088 40.554 3.48606 40.4397 3.48991 40.3245C3.49342 40.2105 3.51915 40.0982 3.56565 39.994C3.61297 39.9056 3.66833 39.8218 3.73103 39.7436C3.84899 39.6109 3.98232 39.4927 4.1282 39.3915C4.40069 39.2151 4.68734 39.0615 4.98521 38.9323L4.91453 39.4555C4.46697 39.1083 4.05887 38.7133 3.69751 38.2774C3.50568 38.0472 3.34495 37.7929 3.21944 37.5209C3.13202 37.3631 3.08043 37.188 3.06832 37.0081C3.0562 36.8281 3.08385 36.6478 3.14932 36.4797C3.21479 36.3116 3.31648 36.1599 3.44719 36.0354C3.5779 35.9108 3.73444 35.8165 3.90573 35.759C4.18153 35.64 4.47133 35.5565 4.76819 35.5103C5.36319 35.3978 5.97673 35.4322 6.55535 35.6105L6.19722 36.1961C5.09356 35.1994 3.97856 34.2152 2.88467 33.2083L1.23871 31.7038C1.08648 31.548 0.957878 31.3708 0.856988 31.1779C0.798811 31.0696 0.75932 30.9523 0.740172 30.8309C0.713028 30.679 0.739213 30.5223 0.814316 30.3874C0.888837 30.2809 0.98513 30.1914 1.09684 30.1248C1.20855 30.0582 1.33315 30.0159 1.46241 30.0009C1.66341 29.9692 1.86679 29.955 2.07025 29.9585L2.075 29.9585C2.10149 29.9583 2.12776 29.9632 2.15239 29.9729C3.22646 30.4017 4.29046 30.8412 5.32778 31.3489C5.84542 31.604 6.3586 31.8686 6.86088 32.1533C7.37103 32.4259 7.84245 32.7653 8.26268 33.1623Z" fill="#020202"/>
<path d="M5.10303 41.421C5.91667 41.4361 6.71026 41.5051 7.49651 41.4984C7.88132 41.5071 8.26569 41.4675 8.64063 41.3807C8.81642 41.3404 8.97775 41.2527 9.10713 41.1273C9.1698 41.0559 9.21691 40.9723 9.24549 40.8818C9.27407 40.7912 9.28349 40.6958 9.27316 40.6014C9.31774 40.7004 9.33864 40.8084 9.33422 40.9169C9.3298 41.0253 9.30018 41.1313 9.2477 41.2263C9.12469 41.4148 8.94446 41.559 8.73339 41.6379C8.33901 41.7851 7.92026 41.8566 7.49926 41.8484C6.68147 41.8485 5.87015 41.7037 5.10303 41.421Z" fill="#020202"/>
<path d="M5.10303 39.2143C5.60847 39.2908 6.11021 39.351 6.60851 39.4009C7.10152 39.4527 7.59792 39.4645 8.09284 39.4361C8.56973 39.4253 9.03458 39.2846 9.43706 39.0291C9.62313 38.8748 9.77284 38.6814 9.87556 38.4628C9.97827 38.2442 10.0315 38.0057 10.0314 37.7643C10.0822 38.0209 10.0814 38.2851 10.0288 38.5415C9.96339 38.8102 9.81851 39.0531 9.61299 39.2386C9.18771 39.578 8.66315 39.7699 8.11877 39.7852C7.08281 39.83 6.05054 39.6346 5.10303 39.2143Z" fill="#020202"/>
<path d="M15.8565 33.3638C15.8652 33.1239 15.6015 33.1009 15.6338 32.9185C15.7294 32.8909 16.1149 32.6887 16.2074 32.6536L16.7573 32.4297L17.3071 32.2058L17.582 32.0939C17.7477 32.2087 17.9059 32.3338 18.056 32.4683C18.0431 32.6692 18.0177 32.869 17.9799 33.0667L17.705 33.1786L17.1552 33.4025L16.6053 33.6264C16.5146 33.6659 16.1638 33.8503 16.0761 33.8973C15.9251 33.7896 16.0311 33.5292 15.8565 33.3638Z" fill="#020202"/>
<path d="M10.8048 35.1994C11.7105 35.0737 12.5787 34.7556 13.3506 34.2665C12.8775 34.5825 12.4704 34.9872 12.1518 35.458L9.68929 36.4416L7.44439 37.356L5.20423 38.2658C4.83404 38.4228 4.45435 38.566 4.08868 38.7276C3.65362 38.7369 2.73717 39.0555 2.27905 39.0047C2.5706 38.6491 3.37133 38.0442 3.68614 37.7486C4.06086 37.6054 4.43128 37.4438 4.80622 37.296L7.05112 36.3816L9.78193 35.2686H9.78645C10.127 35.2653 10.467 35.2421 10.8048 35.1994Z" fill="#020202"/>
<path d="M16.2064 32.6545L16.0769 33.8968L15.8915 33.9707C15.8166 33.6369 15.6698 33.3232 15.4612 33.0517C15.4425 33.0274 15.4223 33.0043 15.4009 32.9824L16.2064 32.6545Z" fill="#020202"/>
<path d="M6.11401 43.5544C7.64906 43.9691 8.99586 44.8951 9.9309 46.1787C10.1614 46.5036 10.3663 46.8459 10.5435 47.2025C10.7152 47.5678 10.8579 47.9231 11.0097 48.2809L11.9117 50.426C13.1147 53.2862 14.2664 56.1667 15.4179 59.0472L16.2681 61.2129L16.693 62.2957C16.8262 62.6479 16.9782 62.9926 17.1485 63.3285C17.8129 64.6892 18.7393 65.906 19.8748 66.9095C21.0098 67.9173 22.4622 68.4972 23.9806 68.549C24.7454 68.5708 25.509 68.4758 26.245 68.2673C26.6149 68.1768 26.9632 68.0139 27.2697 67.7883C27.5763 67.5596 27.849 67.2778 28.1374 67.0183C27.8733 67.3032 27.6307 67.6058 27.3365 67.8704C27.0329 68.1285 26.6807 68.3237 26.3006 68.4444C25.5544 68.7111 24.7716 68.8621 23.9795 68.8924C22.3597 68.9049 20.7866 68.3511 19.5334 67.327C18.2935 66.3158 17.2795 65.0567 16.5568 63.6308C16.3694 63.2782 16.2041 62.9144 16.0616 62.5415L15.6291 61.4619L14.7646 59.3023C13.6297 56.416 12.4951 53.5296 11.4117 50.6229L10.599 48.4429C10.463 48.0807 10.3307 47.7106 10.1864 47.3676C10.0308 47.0233 9.85107 46.6905 9.64854 46.3715C8.81125 45.0717 7.56952 44.082 6.11401 43.5544Z" fill="#020202"/>
<path d="M58.8094 65.8827C56.0538 66.8738 52.7121 67.2661 49.3318 67.3151C49.3318 67.3151 54.4579 56.9645 54.218 55.88C54.218 55.88 55.2164 61.5976 58.8094 65.8827Z" fill="#020202"/>
<path d="M29.1545 54.181C29.1723 54.1407 29.1858 54.1005 29.2081 54.0603C29.1948 54.1363 29.1858 54.2122 29.1768 54.2882C29.1672 54.253 29.1598 54.2171 29.1545 54.181Z" fill="white"/>
<path d="M31.353 60.7048C32.0884 60.8133 32.7186 60.9506 33.3622 61.0216C33.6821 61.0651 33.9993 61.0813 34.3268 61.0955C34.6581 61.1143 34.9857 61.0827 35.3681 61.0918C35.0994 61.3566 34.7647 61.5449 34.3987 61.6374C34.0345 61.7397 33.6533 61.7667 33.2783 61.7169C32.9076 61.6728 32.5476 61.5636 32.215 61.3942C31.8782 61.2339 31.5831 60.998 31.353 60.7048Z" fill="#020202"/>
<path d="M45.0657 60.7048C45.8011 60.8133 46.4312 60.9506 47.0749 61.0216C47.3947 61.0651 47.7119 61.0813 48.0395 61.0955C48.3707 61.1143 48.6984 61.0827 49.0807 61.0918C48.812 61.3566 48.4774 61.5449 48.1113 61.6374C47.7472 61.7397 47.3659 61.7667 46.991 61.7169C46.6202 61.6728 46.2602 61.5636 45.9277 61.3942C45.5908 61.2339 45.2958 60.998 45.0657 60.7048Z" fill="#020202"/>
<path d="M50.4112 35.8969C49.8211 36.947 48.9508 37.8133 47.897 38.3995C47.3368 38.6901 46.6901 38.7681 46.0766 38.6193C45.4637 38.4528 44.9279 38.0786 44.5612 37.5611C44.1944 37.0508 43.9908 36.4416 43.9774 35.8138C43.9624 35.2017 44.0573 34.5919 44.2575 34.0132C44.4618 33.4177 44.8887 32.9238 45.4492 32.6349C46.0037 32.3648 46.6328 32.2872 47.2365 32.4145L47.1826 32.4344C47.4343 32.1392 47.6867 31.8445 47.945 31.5544C47.7237 31.8735 47.4967 32.1881 47.269 32.5021C47.2638 32.5093 47.2567 32.515 47.2486 32.5186C47.2405 32.5222 47.2315 32.5237 47.2227 32.5228L47.2149 32.522C46.6429 32.4537 46.0637 32.5621 45.5553 32.8324C45.0688 33.12 44.7071 33.5782 44.5409 34.1176C44.3645 34.6606 44.2859 35.2305 44.3087 35.8009C44.3358 36.3609 44.5195 36.9022 44.8388 37.3634C45.1537 37.8247 45.6194 38.1624 46.1563 38.3187C46.7035 38.4527 47.2799 38.3997 47.7933 38.1679C48.8549 37.7151 49.6734 36.8066 50.4112 35.8969Z" fill="#020202"/>
<path d="M73.1029 53.6628C73.1727 54.6329 73.117 55.6066 73.0918 56.5775C73.0525 57.5495 73.0093 58.5176 72.943 59.4914C72.8024 61.4566 72.2206 63.3652 71.2408 65.0757C70.7449 65.9384 70.1012 66.7076 69.339 67.3483C68.5655 67.9924 67.656 68.4534 66.6786 68.6968C65.7028 68.935 64.6907 68.9866 63.6957 68.8488C62.7 68.7222 61.7295 68.4448 60.8177 68.026C60.8078 68.0213 60.7984 68.0157 60.7896 68.0092L60.2791 67.6195L60.0241 67.424L59.8966 67.3262L59.8328 67.2772L59.801 67.2527C59.801 67.2527 59.7827 67.2378 59.7927 67.2473C59.8046 67.258 59.8183 67.2665 59.8332 67.2725L59.7634 67.2222C58.4586 66.0565 57.3701 64.6705 56.5476 63.1277C55.722 61.5976 55.0541 59.9879 54.5544 58.3233C53.5737 55.0063 52.9547 51.5934 52.7081 48.1438C52.6382 47.2841 52.5861 46.4231 52.5519 45.561C52.5145 44.6917 52.5168 43.8511 52.4163 43.021C52.339 42.2013 52.1373 41.3982 51.818 40.6391C51.6794 40.2841 51.4526 39.9701 51.1588 39.7267C50.8003 39.4204 50.4985 39.0534 50.2675 38.6427C50.0313 38.2253 49.8922 37.7602 49.8604 37.2819C49.8355 36.807 49.9062 36.3319 50.0684 35.8847C50.1514 35.6736 50.2571 35.4477 50.3474 35.2617C50.4402 35.0812 50.5227 34.8955 50.5944 34.7056C50.7398 34.3373 50.8264 33.9486 50.8511 33.5535C50.8615 33.3668 50.8498 33.1795 50.8163 32.9955C50.7793 32.8308 50.7075 32.6759 50.6056 32.5412C50.4999 32.4046 50.3678 32.2906 50.2172 32.2059C50.0666 32.1211 49.9005 32.0674 49.7287 32.0477L47.1674 31.7863L47.1511 31.7846C47.1021 31.7797 47.0555 31.7606 47.0172 31.7296C46.9373 31.6705 46.8706 31.5953 46.8217 31.5088C46.7727 31.4224 46.7425 31.3266 46.733 31.2278C46.7211 31.0429 46.7779 30.86 46.8925 30.7142C46.9768 30.6042 47.0749 30.5054 47.1846 30.4204C47.2847 30.3437 47.3905 30.2748 47.5011 30.2142L47.6475 30.1751C47.5685 30.1752 47.4927 30.2066 47.4369 30.2623C47.381 30.3181 47.3495 30.3937 47.3494 30.4725L47.4502 30.2496L47.6672 30.0373L47.8817 29.7731L48.3129 29.2428C48.5628 28.9375 48.8892 28.7037 49.2589 28.565C49.6287 28.4263 50.0287 28.3878 50.4182 28.4533L51.1089 28.5468L51.8004 28.6419C52.0737 28.6757 52.3359 28.7701 52.568 28.9181C52.6544 28.9811 52.7221 29.0665 52.7637 29.1649C52.8089 29.279 52.8119 29.4054 52.7722 29.5215C52.7122 29.6823 52.6054 29.8215 52.4656 29.9214C52.3391 30.0128 52.1937 30.0747 52.0401 30.1026C51.9008 30.1252 51.7588 30.1254 51.6195 30.1032C51.1764 30.039 50.73 30.0011 50.2824 29.9897C49.8462 29.995 49.4128 30.0604 48.9945 30.184C48.7821 30.2463 48.5742 30.3229 48.3721 30.4131L47.7706 30.6782L47.8882 30.4776C47.887 30.5396 47.8618 30.5987 47.8178 30.6425C47.7739 30.6863 47.7147 30.7115 47.6525 30.7127L47.8074 30.6525C47.6304 30.8225 47.4181 30.9515 47.1855 31.0303C47.1021 31.0563 47.0138 31.0625 46.9277 31.0484C46.8415 31.0343 46.7598 31.0003 46.6892 30.9491C46.5714 30.85 46.4891 30.7155 46.4547 30.5658C46.4244 30.4402 46.4117 30.3111 46.4169 30.1821C46.4305 30.0656 46.4503 29.9499 46.4762 29.8356C46.5349 29.6236 46.6079 29.4158 46.6947 29.2136C47.0502 28.4411 47.4903 27.7102 48.0071 27.0343C48.2621 26.6928 48.5399 26.3688 48.8383 26.0644C48.9951 25.9055 49.1689 25.7643 49.3566 25.6434L49.5152 25.5575L49.654 25.4951L49.9361 25.3648C50.3122 25.1902 50.6851 25.0081 51.0521 24.8161C51.4181 24.5972 51.8045 24.4144 52.2059 24.2701C53.0458 24.0149 53.9522 24.0951 54.734 24.4938C55.1038 24.7019 55.4546 24.9417 55.7826 25.2106C56.1149 25.4704 56.4257 25.7567 56.7117 26.0666C57.002 26.3755 57.248 26.723 57.4429 27.0992C57.648 27.4748 57.7483 27.8985 57.7332 28.3259L57.5245 30.8186L57.6467 28.3244C57.6462 27.9143 57.5377 27.5115 57.3322 27.1563C57.1337 26.7965 56.8863 26.4657 56.5971 26.1735C56.0196 25.5861 55.3585 25.0867 54.6352 24.6915C53.9033 24.3407 53.0635 24.287 52.2927 24.5419C51.9126 24.691 51.5478 24.8763 51.2034 25.0953C50.8362 25.2997 50.4639 25.4934 50.0878 25.68L49.8039 25.8168L49.6583 25.8849L49.5434 25.9511C49.3827 26.0597 49.2342 26.1852 49.1004 26.3254C48.8198 26.6213 48.5593 26.9355 48.3205 27.2659C47.8338 27.9235 47.4212 28.6326 47.0902 29.3803C46.9187 29.7068 46.8478 30.0766 46.8866 30.4432C46.8978 30.4981 46.9247 30.5486 46.9641 30.5885C46.9771 30.5996 46.9978 30.6049 47.0645 30.5885C47.225 30.5238 47.3708 30.4275 47.4931 30.3053L47.6481 30.2449C47.6181 30.2449 47.5883 30.2508 47.5605 30.2622C47.5328 30.2737 47.5075 30.2905 47.4863 30.3117C47.465 30.3329 47.4482 30.3581 47.4367 30.3858C47.4252 30.4135 47.4193 30.4432 47.4193 30.4732L47.5371 30.2724L48.1884 29.9709C48.4036 29.8712 48.6252 29.786 48.8517 29.7157C49.3119 29.5719 49.7897 29.4921 50.2717 29.4787C50.5119 29.4719 50.7522 29.4813 50.9911 29.5068L51.6755 29.5734C51.7628 29.5887 51.852 29.5889 51.9394 29.574C52.012 29.5596 52.0805 29.5295 52.1401 29.4856C52.1872 29.4506 52.2248 29.4043 52.2494 29.3511C52.2505 29.3401 52.2465 29.3609 52.2515 29.3723C52.2535 29.383 52.2569 29.3745 52.2311 29.3587C51.849 29.2105 51.4441 29.129 51.0343 29.1178L50.3606 29.0371C50.1613 29.0032 49.9574 29.0044 49.7585 29.0407C49.3727 29.1116 49.0252 29.318 48.7788 29.6226L48.346 30.1603L48.129 30.4303L47.8575 30.701L47.9582 30.4782C47.9568 30.5585 47.9242 30.6351 47.8673 30.6918C47.8104 30.7486 47.7337 30.7811 47.6532 30.7825L47.7995 30.7436C47.7165 30.7895 47.6371 30.8415 47.5619 30.8993C47.4973 30.9504 47.4388 31.0088 47.3878 31.0733C47.3494 31.1273 47.3398 31.164 47.3446 31.1734C47.3358 31.1779 47.3721 31.2267 47.3777 31.2315L47.2278 31.1749L49.799 31.4239C50.0557 31.4519 50.3041 31.5312 50.5295 31.657C50.7548 31.7828 50.9526 31.9525 51.1109 32.156C51.2701 32.3639 51.3825 32.6035 51.4406 32.8586C51.4876 33.0965 51.5052 33.3391 51.493 33.5812C51.4677 34.0442 51.3696 34.5003 51.2024 34.9329C51.1236 35.1448 51.0328 35.3522 50.9305 35.5539C50.8348 35.7541 50.7604 35.919 50.6858 36.1058C50.5495 36.4642 50.4938 36.8482 50.5226 37.2305C50.5515 37.6128 50.6641 37.9841 50.8526 38.3181C51.0457 38.6559 51.2962 38.9575 51.593 39.2095C51.6914 39.2821 51.783 39.3636 51.8665 39.4529C51.9494 39.544 52.0256 39.6408 52.0946 39.7427C52.2263 39.9359 52.341 40.14 52.4376 40.3528C52.7918 41.1754 53.0177 42.0473 53.1075 42.9381C53.2211 43.812 53.2148 44.6914 53.2459 45.5355C53.2755 46.388 53.3226 47.2397 53.3871 48.0906C53.6124 51.4939 54.2049 54.863 55.1545 58.1395C56.1463 61.3746 57.6187 64.5428 60.1439 66.8423L60.0741 66.7921C60.0993 66.8063 60.1231 66.8229 60.1451 66.8416L60.1674 66.8601L60.197 66.8833L60.2562 66.9297L60.3744 67.0227L60.6108 67.2089L61.0834 67.5825L61.0554 67.5658C62.7655 68.4082 64.7076 68.6603 66.5768 68.2824C67.4997 68.0678 68.3618 67.6473 69.0984 67.0523C69.8357 66.4469 70.4654 65.7217 70.9609 64.9073C71.9632 63.2544 72.5803 61.3978 72.7664 59.4748C72.8579 58.5121 72.9229 57.5399 72.9916 56.5722C73.0502 55.6036 73.1393 54.6335 73.1029 53.6628Z" fill="#020202"/>
<path d="M58.0877 42.4742C57.7836 41.5396 57.5436 40.5853 57.3694 39.6181C57.1947 38.648 57.0829 37.6677 57.0347 36.6832C56.9816 35.6983 56.987 34.7111 57.0507 33.7268L57.2217 30.798C57.226 30.7236 57.258 30.6534 57.3114 30.6012C57.3648 30.549 57.4358 30.5185 57.5105 30.5157L57.5157 30.5156C58.4444 30.4774 59.3746 30.4936 60.3014 30.5641C61.2334 30.6362 62.1576 30.787 63.0641 31.015C63.9763 31.2413 64.8571 31.5792 65.6863 32.0211C66.5422 32.4483 67.2868 33.0681 67.8614 33.8316L67.8431 33.8071C68.6423 34.7759 69.3314 35.8301 69.8978 36.9504C70.4547 38.0703 70.9063 39.2394 71.2467 40.4426C71.5824 41.647 71.8346 42.8732 72.0015 44.1123C72.1704 45.3578 72.241 46.6146 72.2128 47.8711L72.1608 47.6948L75.501 52.0039L75.5115 52.0175C75.543 52.058 75.5615 52.107 75.5645 52.1581C75.5794 52.4814 75.4721 52.7985 75.2638 53.0466C75.0993 53.265 74.8993 53.4543 74.672 53.6066C74.2148 53.9183 73.6638 54.063 73.1121 54.0163C72.8404 53.9925 72.5744 53.9246 72.3246 53.8154C72.0658 53.7027 71.8886 53.5921 71.6829 53.5033C71.2859 53.3198 70.8679 53.1854 70.4383 53.1032C70.0345 53.0227 69.6176 53.0357 69.2196 53.141C69.0407 53.1934 68.8758 53.2845 68.7364 53.408C68.5424 53.5632 68.3401 53.708 68.1306 53.8416C67.3237 54.3595 66.5085 54.8221 65.6813 55.2832L65.677 55.2856C65.6 55.3282 65.5097 55.3405 65.424 55.3201C65.3383 55.2997 65.2634 55.2481 65.2139 55.1754L63.1683 52.1464L61.1323 49.1108C60.8048 48.6033 60.4211 48.1458 60.0887 47.6048C59.7663 47.0775 59.4807 46.5286 59.2341 45.9621C58.7509 44.8362 58.3672 43.6704 58.0876 42.4778L58.0869 42.4749L58.0863 42.4683L58.0864 42.4649C58.0868 42.4558 58.0907 42.4472 58.0972 42.441C58.1037 42.4347 58.1125 42.4312 58.1215 42.4312C58.1306 42.4312 58.1393 42.4347 58.1459 42.441C58.1524 42.4472 58.1563 42.4558 58.1567 42.4649L58.1568 42.4683L58.1555 42.459C58.5252 43.6144 58.9838 44.7397 59.527 45.8247C59.793 46.3634 60.0959 46.8832 60.4336 47.3803C60.7619 47.8641 61.1849 48.3268 61.5432 48.8265L63.6765 51.795L65.8001 54.77L65.3329 54.6622C66.1389 54.1987 66.9507 53.7226 67.7166 53.2159C67.906 53.0905 68.0996 52.9601 68.2558 52.8321C68.4719 52.6469 68.7244 52.5088 68.9971 52.4267C69.5092 52.2862 70.0469 52.2665 70.5679 52.3692C71.0616 52.4638 71.5405 52.6232 71.9921 52.8433C72.2154 52.9453 72.4394 53.0824 72.6108 53.1579C72.7903 53.2408 72.9823 53.2936 73.179 53.3142C73.5713 53.3535 73.9652 53.2561 74.2937 53.0385C74.4587 52.932 74.6049 52.7988 74.7262 52.6445C74.8251 52.5325 74.8891 52.3941 74.9102 52.2463L74.9737 52.4004L71.7428 48.0091L71.741 48.0067C71.7041 47.9565 71.6863 47.8947 71.6908 47.8326C71.7725 46.6063 71.7558 45.3756 71.6408 44.152C71.5326 42.9218 71.3211 41.7028 71.0083 40.5079C70.6982 39.3118 70.2596 38.1526 69.7001 37.0505L69.2551 36.2393C69.0996 35.9733 68.9128 35.7267 68.7436 35.4697L68.4838 35.0881C68.393 34.9642 68.2887 34.8502 68.1904 34.7321L67.5939 34.0299L67.5755 34.0052C67.0025 33.3299 66.2842 32.7924 65.4741 32.4327C64.6619 32.0493 63.8068 31.7636 62.9268 31.5818C62.0456 31.3897 61.1521 31.2585 60.2527 31.1891C59.3502 31.1252 58.4425 31.0974 57.534 31.1217L57.8279 30.8393L57.5982 33.7638C57.5169 34.7351 57.4619 35.6981 57.4715 36.6697C57.4828 37.6408 57.5452 38.6106 57.6587 39.5751C57.772 40.5435 57.9378 41.505 58.1554 42.4555C58.1564 42.4599 58.1565 42.4646 58.1557 42.4691C58.155 42.4737 58.1533 42.478 58.1508 42.4819C58.1484 42.4858 58.1452 42.4892 58.1414 42.4918C58.1376 42.4945 58.1334 42.4964 58.1289 42.4974C58.1204 42.4993 58.1115 42.4979 58.1039 42.4937C58.0963 42.4894 58.0905 42.4825 58.0877 42.4742Z" fill="#020202"/>
<path d="M75.2386 52.2009L71.9505 47.8519C71.2149 47.8199 70.478 47.8468 69.7467 47.9324C69.0315 48.0392 68.3238 48.1915 67.628 48.3883C66.2187 48.8203 64.8353 49.3322 63.4845 49.9214C64.0353 49.3979 64.6547 48.9514 65.3257 48.5939C65.9953 48.2257 66.7026 47.9305 67.4355 47.7133C68.1776 47.504 68.9443 47.3943 69.7154 47.3871C70.4844 47.3888 71.2449 47.547 71.9505 47.8519C71.9505 47.8519 72.5822 39.3371 67.7176 33.9198C67.7176 33.9198 66.2708 31.5419 60.9358 30.9385L58.1228 42.4659V42.4704C58.3514 43.2908 58.6251 44.098 58.9426 44.8885C59.3791 46.0393 59.9713 47.125 60.7028 48.1156C60.864 48.3212 61.0298 48.5268 61.1822 48.7458L65.5048 54.9721C66.5512 54.3997 67.565 53.77 68.5417 53.0859C69.1734 52.5406 70.5621 52.4557 72.2462 53.3809C72.511 53.5279 72.8014 53.6235 73.1019 53.6625C74.3785 53.81 75.3057 52.7194 75.2386 52.2009ZM66.2349 53.4257C66.0609 53.4195 65.896 53.3461 65.7751 53.2211C65.6541 53.096 65.5865 52.929 65.5865 52.7552C65.5865 52.5814 65.6541 52.4144 65.7751 52.2893C65.896 52.1643 66.0609 52.0909 66.2349 52.0847C66.409 52.0909 66.5739 52.1643 66.6948 52.2893C66.8157 52.4144 66.8833 52.5814 66.8833 52.7552C66.8833 52.929 66.8157 53.096 66.6948 53.2211C66.5739 53.3461 66.409 53.4195 66.2349 53.4257ZM69.2988 52.1384C69.1247 52.1322 68.9599 52.0588 68.8389 51.9338C68.718 51.8087 68.6504 51.6417 68.6504 51.4679C68.6504 51.2941 68.718 51.1271 68.8389 51.0021C68.9599 50.877 69.1247 50.8037 69.2988 50.7975C69.4728 50.8037 69.6377 50.877 69.7586 51.0021C69.8795 51.1271 69.9471 51.2941 69.9471 51.4679C69.9471 51.6417 69.8795 51.8087 69.7586 51.9338C69.6377 52.0588 69.4728 52.1322 69.2988 52.1384ZM72.524 52.6211C72.3499 52.6149 72.1851 52.5416 72.0641 52.4165C71.9432 52.2915 71.8756 52.1244 71.8756 51.9506C71.8756 51.7768 71.9432 51.6098 72.0641 51.4847C72.1851 51.3597 72.3499 51.2863 72.524 51.2802C72.6981 51.2863 72.863 51.3597 72.9839 51.4847C73.1049 51.6098 73.1725 51.7768 73.1725 51.9506C73.1725 52.1244 73.1049 52.2915 72.9839 52.4165C72.863 52.5416 72.6981 52.6149 72.524 52.6211Z" fill="#020202"/>
<path d="M65.5068 54.9716C65.7961 55.1927 66.0538 55.4524 66.2726 55.7432C66.4924 56.021 66.6864 56.3181 66.8524 56.6309C67.0236 56.9442 67.1616 57.2744 67.2642 57.6162C67.3952 57.9677 67.4284 58.348 67.3602 58.7168C67.1738 58.3981 66.9529 58.1421 66.7675 57.8469C66.5739 57.5609 66.3955 57.265 66.2331 56.9603C66.0679 56.6538 65.9226 56.3371 65.798 56.0121C65.6617 55.6774 65.564 55.3283 65.5068 54.9716Z" fill="#020202"/>
<path d="M50.9606 24.7294C50.6778 24.3008 50.4998 23.8119 50.441 23.3021C50.3873 22.7775 50.497 22.2491 50.7551 21.789C51.0219 21.3282 51.4125 20.9511 51.8829 20.7003C52.3533 20.4495 52.8846 20.335 53.4167 20.3697C53.9491 20.397 54.465 20.5627 54.9134 20.8504C55.3617 21.138 55.7268 21.5377 55.9725 22.0097C56.1135 22.523 56.0703 23.0692 55.8504 23.5541C55.6762 24.0321 55.4835 24.4974 55.2811 24.9609C55.4184 24.4748 55.5842 23.9965 55.708 23.5107C55.8853 23.0596 55.9025 22.5615 55.7566 22.0993C55.5217 21.6805 55.1805 21.3308 54.7672 21.0854C54.3524 20.8378 53.8829 20.6959 53.4001 20.6722C52.9185 20.6352 52.4359 20.7308 52.0049 20.9484C51.574 21.1661 51.2111 21.4975 50.9557 21.9066C50.7138 22.338 50.5872 22.8243 50.588 23.3186C50.5889 23.813 50.7172 24.2988 50.9606 24.7294Z" fill="#020202"/>
<path d="M45.7005 38.2824C45.7948 39.096 45.8851 39.9053 45.9606 40.7127L45.9616 40.7241C45.9641 40.7504 45.9613 40.7769 45.9535 40.8021C45.9457 40.8273 45.933 40.8507 45.9161 40.871C45.8992 40.8914 45.8785 40.9082 45.8551 40.9205C45.8317 40.9328 45.8061 40.9404 45.7798 40.9428C45.7535 40.9453 45.7269 40.9425 45.7017 40.9347C45.6764 40.927 45.6529 40.9143 45.6325 40.8974C45.6122 40.8806 45.5953 40.8599 45.583 40.8366C45.5707 40.8132 45.563 40.7877 45.5606 40.7614L45.5597 40.7455C45.5486 39.9218 45.5523 39.1001 45.5601 38.2826C45.5602 38.2648 45.5672 38.2478 45.5795 38.2349C45.5918 38.2221 45.6086 38.2144 45.6264 38.2135C45.6442 38.2125 45.6617 38.2184 45.6753 38.2299C45.6889 38.2413 45.6976 38.2575 45.6996 38.2752L45.7005 38.2824Z" fill="#020202"/>
<path d="M46.3229 43.1276C46.4761 43.9276 46.6102 44.7291 46.7544 45.5282L46.7569 45.542C46.7664 45.5937 46.7655 45.6469 46.7544 45.6983C46.7433 45.7497 46.7221 45.7985 46.692 45.8417C46.662 45.885 46.6237 45.9219 46.5793 45.9503C46.535 45.9788 46.4854 45.9983 46.4335 46.0076C46.3816 46.0169 46.3284 46.0159 46.2768 46.0047C46.2253 45.9935 46.1765 45.9722 46.1332 45.9421C46.09 45.9121 46.053 45.8738 46.0246 45.8294C45.9962 45.7851 45.9768 45.7356 45.9676 45.6838C45.9659 45.6745 45.9645 45.6642 45.9635 45.6549C45.877 44.8369 45.7803 44.0212 45.7028 43.2042C45.6952 43.1245 45.7186 43.0449 45.7682 42.982C45.8177 42.919 45.8897 42.8775 45.9691 42.866C46.0485 42.8545 46.1293 42.874 46.1947 42.9203C46.2601 42.9667 46.3052 43.0363 46.3205 43.1149L46.3229 43.1276Z" fill="#020202"/>
<path d="M47.2513 47.9133L47.8161 50.2822L47.82 50.2988C47.8363 50.3664 47.8391 50.4366 47.8281 50.5053C47.8172 50.574 47.7927 50.6399 47.7562 50.6991C47.7197 50.7584 47.6719 50.8099 47.6154 50.8507C47.559 50.8915 47.495 50.9208 47.4272 50.9369C47.3593 50.953 47.289 50.9556 47.2202 50.9445C47.1513 50.9335 47.0854 50.909 47.0261 50.8725C46.9667 50.8359 46.9152 50.7881 46.8744 50.7317C46.8336 50.6753 46.8044 50.6114 46.7884 50.5437C46.7866 50.536 46.7846 50.5265 46.7831 50.5188L46.3271 48.0934C46.3045 47.973 46.33 47.8486 46.398 47.7466C46.466 47.6446 46.5713 47.5732 46.6913 47.5476C46.8114 47.522 46.9367 47.5442 47.0406 47.6094C47.1445 47.6747 47.2187 47.7779 47.2474 47.897L47.2513 47.9133Z" fill="#020202"/>
<path d="M48.439 52.635L49.1283 54.9669L49.1337 54.9852C49.1785 55.138 49.1608 55.3023 49.0843 55.442C49.0079 55.5818 48.879 55.6855 48.726 55.7306C48.5729 55.7756 48.4082 55.7582 48.268 55.6823C48.1278 55.6063 48.0236 55.4779 47.9781 55.3253L47.9739 55.3103L47.3356 52.9252C47.2971 52.7807 47.317 52.6269 47.3912 52.497C47.4654 52.3671 47.5879 52.2716 47.7321 52.231C47.8764 52.1905 48.0308 52.2082 48.162 52.2804C48.2933 52.3525 48.3908 52.4733 48.4335 52.6166L48.439 52.635Z" fill="#020202"/>
<path d="M49.8798 57.2796C50.1567 58.0415 50.4307 58.804 50.6941 59.5705L50.7007 59.5897C50.7544 59.7461 50.744 59.9174 50.6717 60.0661C50.5994 60.2149 50.4711 60.3291 50.3148 60.3839C50.1585 60.4387 49.9868 60.4297 49.8371 60.3587C49.6874 60.2878 49.5719 60.1607 49.5157 60.0052C49.2361 59.2303 48.9672 58.4513 48.7011 57.6717C48.6484 57.5172 48.6589 57.3482 48.7304 57.2014C48.8018 57.0546 48.9285 56.9418 49.0828 56.8876C49.237 56.8334 49.4065 56.8421 49.5544 56.9118C49.7023 56.9815 49.8167 57.1067 49.8727 57.26L49.8798 57.2796Z" fill="#020202"/>
<path d="M51.5613 61.8413C51.8656 62.5922 52.1781 63.34 52.4759 64.0948L52.4828 64.1125C52.5369 64.2496 52.5353 64.4024 52.4782 64.5383C52.4212 64.6742 52.3133 64.7826 52.1774 64.8404C52.0416 64.8982 51.8885 64.9009 51.7507 64.8478C51.6129 64.7948 51.5013 64.6902 51.4396 64.5563C51.0948 63.8087 50.7649 63.0539 50.4268 62.3024C50.3602 62.1544 50.3553 61.9862 50.4131 61.8347C50.4708 61.6831 50.5866 61.5607 50.7348 61.4943C50.8831 61.4279 51.0517 61.423 51.2035 61.4806C51.3554 61.5382 51.4782 61.6537 51.5447 61.8016L51.5528 61.8205L51.5613 61.8413Z" fill="#020202"/>
<path d="M53.4398 66.3313L54.4793 68.5361L54.4854 68.549C54.5318 68.6475 54.538 68.76 54.5026 68.8629C54.4672 68.9657 54.3931 69.0508 54.2959 69.1C54.1987 69.1493 54.0861 69.1588 53.982 69.1267C53.8779 69.0945 53.7904 69.0232 53.7382 68.9277L52.5522 66.7626C52.4894 66.6479 52.4748 66.513 52.5117 66.3876C52.5485 66.2621 52.6338 66.1564 52.7488 66.0937C52.8638 66.031 52.999 66.0165 53.1247 66.0532C53.2504 66.09 53.3564 66.1751 53.4192 66.2898C53.4238 66.2982 53.4281 66.3066 53.4321 66.315L53.4398 66.3313Z" fill="#020202"/>
<path d="M55.5928 70.7078C55.9906 71.4166 56.38 72.1317 56.7859 72.8376L56.7906 72.8458C56.8261 72.9075 56.8358 72.9805 56.8178 73.0493C56.7998 73.1181 56.7554 73.177 56.6943 73.2135C56.6331 73.2499 56.5601 73.261 56.4908 73.2442C56.4216 73.2275 56.3617 73.1843 56.3241 73.124C55.8903 72.4281 55.44 71.7415 54.9982 71.0486C54.9494 70.972 54.933 70.8791 54.9528 70.7905C54.9725 70.7019 55.0267 70.6247 55.1035 70.576C55.1803 70.5272 55.2733 70.5109 55.3622 70.5306C55.451 70.5503 55.5283 70.6044 55.5772 70.681L55.5865 70.6966L55.5928 70.7078Z" fill="#020202"/>
<path d="M58.0769 74.912L59.4637 76.9248L59.468 76.9309C59.4997 76.9771 59.5119 77.0339 59.5019 77.0889C59.4918 77.144 59.4604 77.1929 59.4144 77.2249C59.3683 77.2569 59.3115 77.2694 59.2562 77.2597C59.201 77.2501 59.1518 77.219 59.1194 77.1733L57.6976 75.166C57.6627 75.1167 57.6488 75.0555 57.6591 74.9959C57.6693 74.9364 57.7029 74.8833 57.7523 74.8484C57.8018 74.8135 57.8631 74.7997 57.9228 74.8099C57.9825 74.8202 58.0357 74.8536 58.0707 74.903L58.0716 74.9044L58.0769 74.912Z" fill="#020202"/>
<path d="M60.9408 78.8731L62.5009 80.7552L62.5065 80.762C62.5273 80.787 62.5429 80.8159 62.5525 80.847C62.562 80.8781 62.5654 80.9107 62.5623 80.9431C62.5592 80.9755 62.5498 81.0069 62.5346 81.0356C62.5193 81.0644 62.4986 81.0898 62.4734 81.1105C62.4483 81.1312 62.4194 81.1468 62.3882 81.1564C62.3571 81.1659 62.3244 81.1693 62.2919 81.1662C62.2595 81.1632 62.228 81.1537 62.1992 81.1385C62.1704 81.1233 62.1449 81.1026 62.1241 81.0775L62.1207 81.0733L60.5924 79.144C60.5563 79.0986 60.5396 79.0407 60.546 78.983C60.5524 78.9254 60.5814 78.8726 60.6265 78.8361C60.6717 78.7996 60.7295 78.7823 60.7874 78.7881C60.8452 78.7938 60.8985 78.8221 60.9356 78.8668L60.9408 78.8731Z" fill="#020202"/>
<path d="M64.1443 82.5646L65.8583 84.3049L65.8672 84.314C65.934 84.382 65.971 84.4737 65.9701 84.5689C65.9692 84.6641 65.9304 84.7551 65.8624 84.8218C65.7943 84.8885 65.7025 84.9256 65.6071 84.9249C65.5116 84.9241 65.4204 84.8856 65.3534 84.8178L65.3411 84.8047L63.7009 82.9634C63.6492 82.9054 63.6223 82.8296 63.6258 82.752C63.6293 82.6745 63.6631 82.6014 63.7198 82.5484C63.7766 82.4953 63.8519 82.4665 63.9296 82.468C64.0074 82.4695 64.0815 82.5012 64.1362 82.5564L64.1443 82.5646Z" fill="#020202"/>
<path d="M67.6358 85.9777L69.4729 87.5818L69.486 87.5933C69.5354 87.6363 69.5759 87.6885 69.605 87.7471C69.6341 87.8057 69.6514 87.8694 69.6558 87.9346C69.6602 87.9998 69.6517 88.0653 69.6308 88.1273C69.6098 88.1892 69.5768 88.2464 69.5336 88.2956C69.4905 88.3448 69.438 88.385 69.3793 88.414C69.3205 88.4429 69.2566 88.46 69.1912 88.4643C69.1258 88.4686 69.0602 88.46 68.9982 88.4389C68.9361 88.4179 68.8789 88.3848 68.8296 88.3417C68.8228 88.3357 68.815 88.3284 68.8086 88.3221L67.0438 86.5922C66.9646 86.5146 66.9188 86.4092 66.9161 86.2985C66.9135 86.1877 66.9541 86.0803 67.0295 85.999C67.1049 85.9177 67.209 85.8688 67.3199 85.8628C67.4307 85.8568 67.5395 85.8941 67.6233 85.9668L67.6358 85.9777Z" fill="#020202"/>
<path d="M71.3543 89.1306L73.2807 90.6176L73.297 90.6302C73.4227 90.7276 73.5044 90.8707 73.5244 91.0282C73.5444 91.1857 73.5009 91.3446 73.4036 91.4701C73.3063 91.5957 73.163 91.6775 73.0052 91.6978C72.8474 91.718 72.6881 91.675 72.562 91.5781L72.5443 91.5638L70.6452 89.9792C70.534 89.8865 70.4638 89.754 70.4495 89.6101C70.4352 89.4663 70.478 89.3226 70.5687 89.2098C70.6594 89.0971 70.7907 89.0244 70.9346 89.0072C71.0784 88.99 71.2233 89.0298 71.3381 89.118L71.3543 89.1306Z" fill="#020202"/>
<path d="M75.2526 92.0423L77.2639 93.4099L77.2824 93.4224C77.4286 93.5218 77.5292 93.6751 77.5622 93.8486C77.5951 94.0221 77.5576 94.2015 77.458 94.3474C77.3583 94.4933 77.2047 94.5937 77.0308 94.6266C76.8569 94.6595 76.6771 94.6221 76.5309 94.5226L76.519 94.5144L74.5021 93.078C74.3649 92.9803 74.2719 92.8325 74.2432 92.6669C74.2145 92.5012 74.2525 92.3309 74.3488 92.1929C74.4451 92.0549 74.5921 91.9604 74.7578 91.9298C74.9235 91.8993 75.0946 91.9351 75.234 92.0296L75.2526 92.0423Z" fill="#020202"/>
<path d="M79.3197 94.71L81.4169 95.9419L81.4367 95.9536C81.5185 96.0014 81.5901 96.0648 81.6473 96.1402C81.7045 96.2156 81.7462 96.3015 81.7701 96.393C81.7939 96.4845 81.7995 96.5798 81.7863 96.6735C81.7732 96.7672 81.7417 96.8573 81.6936 96.9388C81.6456 97.0203 81.5818 97.0915 81.5061 97.1484C81.4304 97.2053 81.3442 97.2467 81.2524 97.2703C81.1606 97.2938 81.0651 97.2991 80.9712 97.2858C80.8774 97.2725 80.7871 97.2408 80.7056 97.1926L80.6922 97.1846L78.5835 95.8835C78.4282 95.7877 78.317 95.6347 78.2741 95.4576C78.2312 95.2805 78.2599 95.0937 78.3542 94.9376C78.4484 94.7816 78.6005 94.6689 78.7775 94.6241C78.9545 94.5792 79.142 94.6058 79.2995 94.6981L79.3197 94.71Z" fill="#020202"/>
<path d="M83.5519 97.1075L85.7121 98.2259L85.7324 98.2364C85.82 98.2815 85.8978 98.3434 85.9614 98.4185C86.0249 98.4936 86.073 98.5805 86.1029 98.6742C86.1328 98.7679 86.1438 98.8665 86.1354 98.9645C86.127 99.0624 86.0993 99.1578 86.054 99.245C86.0086 99.3323 85.9464 99.4098 85.871 99.473C85.7955 99.5363 85.7083 99.5841 85.6143 99.6136C85.5204 99.6432 85.4215 99.654 85.3233 99.6454C85.2252 99.6368 85.1297 99.6089 85.0423 99.5635L85.0406 99.5625L82.8426 98.4173C82.6676 98.3257 82.5362 98.1686 82.4771 97.9805C82.4181 97.7923 82.4364 97.5885 82.5278 97.4137C82.6193 97.2389 82.7765 97.1075 82.965 97.0483C83.1535 96.9891 83.3578 97.0069 83.5331 97.0978L83.5519 97.1075Z" fill="#020202"/>
<path d="M87.9051 99.2803L90.1198 100.291L90.1391 100.3C90.3138 100.38 90.4498 100.525 90.5176 100.705C90.5854 100.884 90.5795 101.083 90.5011 101.258C90.4227 101.433 90.2782 101.57 90.099 101.639C89.9199 101.709 89.7205 101.705 89.5444 101.628L87.2726 100.639C87.182 100.6 87.1001 100.543 87.0315 100.472C86.9629 100.402 86.9089 100.318 86.8728 100.226C86.8366 100.135 86.8189 100.037 86.8207 99.9383C86.8225 99.8398 86.8437 99.7426 86.8832 99.6523C86.9227 99.562 86.9796 99.4803 87.0508 99.412C87.1219 99.3437 87.2058 99.2901 87.2978 99.2542C87.3897 99.2183 87.4879 99.2008 87.5866 99.2028C87.6853 99.2048 87.7827 99.2262 87.8731 99.2657L87.8817 99.2696L87.9051 99.2803Z" fill="#020202"/>
<path d="M92.3625 101.239L94.6272 102.138L94.6442 102.145C94.808 102.21 94.9395 102.336 95.0104 102.497C95.0813 102.658 95.0859 102.841 95.0231 103.005C94.9604 103.169 94.8354 103.302 94.6751 103.375C94.5148 103.449 94.3322 103.456 94.1666 103.396L91.8411 102.551C91.7536 102.519 91.6733 102.471 91.6046 102.408C91.536 102.345 91.4804 102.27 91.441 102.186C91.4016 102.102 91.3793 102.011 91.3752 101.918C91.3711 101.825 91.3854 101.733 91.4172 101.645C91.449 101.558 91.4978 101.478 91.5607 101.41C91.6236 101.341 91.6993 101.286 91.7837 101.247C91.868 101.208 91.9593 101.186 92.0522 101.182C92.1451 101.178 92.2379 101.192 92.3252 101.224L92.3416 101.231L92.3625 101.239Z" fill="#020202"/>
<path d="M96.9157 102.981L99.2235 103.777L99.2375 103.782C99.3802 103.831 99.498 103.934 99.5654 104.069C99.6329 104.204 99.6448 104.36 99.5986 104.503C99.5523 104.647 99.4516 104.766 99.3179 104.837C99.1843 104.907 99.0284 104.922 98.8837 104.879L96.5142 104.174C96.3539 104.126 96.2192 104.017 96.1396 103.87C96.06 103.723 96.0422 103.551 96.09 103.391C96.1378 103.231 96.2474 103.097 96.3946 103.017C96.5417 102.938 96.7145 102.92 96.8748 102.968L96.8984 102.975L96.9157 102.981Z" fill="#020202"/>
<path d="M101.551 104.521L103.893 105.228L103.903 105.231C104.013 105.264 104.106 105.339 104.162 105.439C104.217 105.539 104.232 105.657 104.202 105.768C104.172 105.878 104.101 105.973 104.002 106.032C103.904 106.091 103.786 106.109 103.674 106.083L101.27 105.52C101.203 105.504 101.141 105.476 101.085 105.436C101.03 105.396 100.982 105.346 100.946 105.288C100.91 105.23 100.886 105.165 100.875 105.098C100.864 105.031 100.867 104.962 100.882 104.896C100.898 104.829 100.926 104.767 100.966 104.711C101.006 104.656 101.057 104.609 101.115 104.573C101.173 104.537 101.237 104.513 101.305 104.502C101.372 104.491 101.441 104.493 101.508 104.509C101.518 104.511 101.528 104.514 101.538 104.517L101.551 104.521Z" fill="#020202"/>
<path d="M106.251 105.881C107.043 106.08 107.834 106.279 108.624 106.493L108.63 106.494C108.698 106.513 108.757 106.557 108.793 106.617C108.83 106.677 108.842 106.749 108.827 106.818C108.812 106.887 108.771 106.948 108.712 106.987C108.653 107.027 108.582 107.042 108.512 107.03C107.702 106.893 106.895 106.741 106.087 106.589C106.04 106.58 105.995 106.562 105.955 106.536C105.915 106.51 105.88 106.476 105.853 106.437C105.826 106.398 105.807 106.353 105.797 106.306C105.787 106.26 105.787 106.211 105.796 106.165C105.805 106.118 105.823 106.073 105.849 106.033C105.875 105.993 105.909 105.958 105.948 105.931C105.988 105.904 106.032 105.886 106.079 105.876C106.126 105.866 106.174 105.865 106.221 105.874C106.229 105.875 106.235 105.877 106.242 105.879L106.251 105.881Z" fill="#020202"/>
<path d="M111.01 107.071L112.963 107.517C112.972 107.519 112.98 107.522 112.988 107.528C112.996 107.533 113.002 107.539 113.007 107.547C113.012 107.555 113.016 107.563 113.017 107.573C113.019 107.582 113.019 107.591 113.017 107.6C113.013 107.617 113.003 107.632 112.989 107.642C112.974 107.652 112.957 107.657 112.939 107.655L110.948 107.401C110.904 107.396 110.863 107.372 110.836 107.337C110.809 107.302 110.797 107.257 110.802 107.213C110.808 107.169 110.831 107.129 110.866 107.101C110.902 107.074 110.946 107.062 110.991 107.067L111.007 107.07L111.01 107.071Z" fill="#020202"/>
<path d="M41.296 176.495C41.2602 176.85 41.2907 177.209 41.3861 177.552C41.4592 177.911 41.5632 178.265 41.6672 178.617C41.8819 179.322 42.1483 180.012 42.4056 180.703C42.6966 181.418 42.8873 182.17 42.9723 182.937C43.0497 183.736 42.9352 184.543 42.6384 185.289C42.6214 185.331 42.5968 185.369 42.5658 185.401L42.5549 185.412L42.5504 185.416L42.6361 185.289L42.5644 185.463C42.5364 185.531 42.4891 185.59 42.4282 185.631C42.3673 185.673 42.2956 185.696 42.2219 185.697L42.2002 185.697L42.1957 185.697L42.5549 185.474C42.4238 185.75 42.2652 186.013 42.0814 186.257C41.988 186.381 41.8877 186.499 41.781 186.611C41.6675 186.732 41.5436 186.843 41.4108 186.943L41.5959 186.612C41.5723 187.486 41.5363 188.36 41.5012 189.234C41.4635 190.108 41.4387 190.982 41.3891 191.856C41.3819 191.976 41.3294 192.089 41.242 192.172C41.1546 192.255 41.0389 192.302 40.9181 192.304C39.3645 192.317 37.7968 192.311 36.236 192.269L31.5521 192.163L31.5366 192.163C31.4752 192.161 31.4167 192.136 31.3732 192.093C31.3297 192.05 31.3046 191.991 31.303 191.93C31.2886 191.331 31.2777 190.732 31.2529 190.133C31.2292 189.535 31.2149 188.935 31.182 188.337L31.4044 188.488L30.138 188.9L30.1576 188.892C28.9442 189.457 27.7015 189.958 26.4348 190.392C25.1726 190.843 23.8879 191.228 22.5858 191.547C21.2788 191.879 19.9487 192.113 18.6065 192.247C17.2523 192.379 15.8885 192.378 14.5344 192.246L14.5908 192.249L14.5863 192.249L14.5757 192.249C14.5588 192.25 14.542 192.248 14.5253 192.245C13.8009 192.153 13.0835 192.011 12.3781 191.823C12.0108 191.742 11.6519 191.626 11.3062 191.478C10.9054 191.322 10.5435 191.08 10.2453 190.771C10.1553 190.673 10.0806 190.562 10.0238 190.442C9.99344 190.377 9.96502 190.311 9.93881 190.245C9.92045 190.172 9.90668 190.099 9.89756 190.026C9.86658 189.749 9.91478 189.469 10.0366 189.218C10.2381 188.84 10.515 188.507 10.8503 188.24C11.4279 187.767 12.0574 187.362 12.7269 187.031C14.019 186.361 15.3908 185.856 16.8098 185.53C17.5288 185.362 18.2012 185.251 18.8749 185.083C19.5432 184.925 20.2321 184.748 20.868 184.548L21.0335 184.519C20.9674 184.516 20.9018 184.531 20.8432 184.561L21.0617 184.51L21.0708 184.51L20.9155 184.536C21.96 184.206 22.9768 183.795 23.9562 183.306C24.9242 182.81 25.8271 182.196 26.6441 181.479C27.4561 180.756 28.1145 179.877 28.5802 178.895C29.0536 177.901 29.2601 176.801 29.1795 175.702L29.179 175.696C29.1778 175.683 29.1816 175.67 29.1899 175.659C29.1981 175.649 29.2101 175.642 29.2233 175.64C29.2365 175.638 29.25 175.641 29.261 175.649C29.272 175.656 29.2797 175.668 29.2825 175.681C29.4905 176.813 29.3838 177.981 28.974 179.057C28.5603 180.141 27.9233 181.126 27.104 181.949C26.2937 182.774 25.3696 183.48 24.3596 184.045C23.3545 184.599 22.3068 185.072 21.2263 185.46C21.1855 185.476 21.1423 185.484 21.0986 185.485L21.0708 185.486L21.0616 185.486L21.2799 185.434C21.203 185.471 21.1194 185.492 21.0342 185.496L21.1996 185.467C20.4993 185.716 19.8303 185.923 19.1312 186.107C18.4397 186.293 17.7222 186.427 17.0711 186.592C15.7459 186.927 14.462 187.408 13.2428 188.025C12.6485 188.321 12.0839 188.673 11.5568 189.076C11.3337 189.242 11.1446 189.449 11.0001 189.687C10.9229 189.887 10.924 189.922 11.0435 190.092C11.2381 190.288 11.4703 190.442 11.7261 190.546C12.0259 190.681 12.3379 190.787 12.6579 190.863C13.3105 191.053 13.975 191.199 14.6471 191.301L14.5862 191.297L14.5908 191.297L14.6059 191.298C14.6198 191.298 14.6337 191.299 14.6474 191.301C15.9402 191.473 17.2464 191.522 18.5485 191.448C19.863 191.386 21.1714 191.232 22.4642 190.986C23.7654 190.745 25.0506 190.425 26.3129 190.028C27.5748 189.627 28.8117 189.152 30.017 188.604L30.0192 188.603L30.0366 188.596L31.2974 188.168C31.3396 188.153 31.3859 188.156 31.4259 188.176C31.466 188.196 31.4966 188.23 31.511 188.273C31.5159 188.288 31.5188 188.303 31.5198 188.319C31.5532 188.917 31.6053 189.514 31.6479 190.111C31.6895 190.709 31.7449 191.306 31.7969 191.903L31.5478 191.67L36.2321 191.482C37.794 191.413 39.349 191.38 40.9181 191.363L40.4472 191.811C40.4809 190.937 40.5394 190.064 40.5851 189.191C40.6332 188.317 40.6805 187.444 40.7403 186.571L40.7409 186.561C40.7455 186.497 40.7645 186.435 40.7965 186.379C40.8284 186.324 40.8725 186.276 40.9254 186.239C41.0157 186.173 41.1008 186.101 41.1799 186.022C41.2677 185.935 41.3506 185.844 41.4282 185.749C41.5849 185.554 41.7216 185.345 41.8364 185.123L41.8436 185.109C41.8769 185.045 41.9275 184.991 41.9897 184.954C42.0519 184.917 42.1232 184.898 42.1957 184.899L42.2002 184.899L41.8362 185.133L41.9033 184.984L41.9108 184.968C41.9297 184.926 41.9562 184.888 41.989 184.856L41.9937 184.852L41.9103 184.974C42.1969 184.347 42.333 183.662 42.3078 182.974C42.2699 182.259 42.1333 181.553 41.902 180.876C41.6731 180.164 41.494 179.435 41.3353 178.702C41.263 178.334 41.1912 177.965 41.1504 177.59C41.1293 177.402 41.1186 177.212 41.1182 177.023C41.1075 176.824 41.1377 176.626 41.2068 176.439C41.2117 176.428 41.2206 176.419 41.2319 176.414C41.2431 176.409 41.2559 176.408 41.2677 176.412C41.2795 176.415 41.2894 176.423 41.2957 176.434C41.3019 176.445 41.304 176.457 41.3014 176.469L41.296 176.495Z" fill="#020202"/>
<path d="M29.231 177.176C30.1719 177.633 31.155 177.999 32.1664 178.267C33.1588 178.536 34.1793 178.689 35.2071 178.722C36.2326 178.769 37.2598 178.687 38.2647 178.477C38.7744 178.38 39.2782 178.255 39.7737 178.101C40.279 177.963 40.7553 177.744 41.2717 177.592C40.8335 177.898 40.3758 178.174 39.9015 178.42C39.4184 178.66 38.9151 178.856 38.3975 179.008C37.8789 179.169 37.3474 179.285 36.8089 179.355C36.5405 179.403 36.2667 179.394 35.9955 179.415L35.5876 179.437L35.1797 179.421C34.0924 179.383 33.0185 179.169 32.0002 178.786C30.9857 178.424 30.0468 177.878 29.231 177.176Z" fill="#020202"/>
<path d="M36.2156 191.708L36.8358 191.87L31.55 191.916L31.3511 188.328L30.0875 188.748C30.0875 188.748 22.6214 192.382 15.5213 191.865C15.2112 191.842 14.9011 191.81 14.5908 191.773H14.5863C14.1234 191.717 13.6606 191.639 13.2022 191.537C12.7627 191.445 12.3297 191.323 11.9063 191.173C11.8137 191.14 11.7305 191.108 11.6519 191.076C11.5042 191.017 11.3604 190.949 11.2213 190.872C9.39316 189.884 10.9806 188.591 12.8228 187.612C14.3451 186.814 15.9738 186.237 17.6597 185.899C18.6801 185.693 19.6889 185.434 20.6821 185.123C20.8026 185.086 20.9183 185.049 21.034 185.007C21.0438 185.006 21.0533 185.003 21.0618 184.998H21.0708C22.239 185.051 23.3725 185.411 24.3561 186.042C25.3398 186.673 26.1386 187.552 26.6715 188.591C33.059 185.825 35.3362 187.035 35.8407 187.418C35.1729 187.78 34.5806 188.266 34.0957 188.85C33.8814 189.167 33.787 189.55 33.8294 189.931C33.8718 190.312 34.0482 190.665 34.3271 190.928C34.5119 191.082 34.7177 191.21 34.9382 191.306C35.3503 191.481 35.778 191.615 36.2156 191.708Z" fill="#020202"/>
<path d="M41.1961 185.585C41.5293 185.488 41.8626 185.395 42.1958 185.298C41.9602 185.804 41.6082 186.247 41.1683 186.591L40.9136 191.833L38.9605 191.851C38.4976 191.796 38.03 191.722 37.5719 191.634C37.359 191.593 37.1507 191.551 36.9423 191.5L36.3221 191.325C35.9089 191.23 35.5059 191.096 35.1187 190.923C34.9388 190.846 34.7718 190.741 34.6235 190.614C34.4923 190.486 34.3926 190.329 34.3319 190.157C34.2714 189.984 34.2529 189.799 34.2779 189.617C34.3028 189.436 34.3705 189.263 34.4754 189.113C35.0259 188.478 35.6878 187.949 36.4286 187.552C37.1708 187.115 37.9426 186.731 38.7383 186.402C39.5356 186.068 40.3572 185.794 41.1961 185.585Z" fill="#020202"/>
<path d="M42.6492 183.266C42.6549 183.907 42.5272 184.542 42.2743 185.132L42.2698 185.136C41.0254 185.345 39.8007 185.657 38.6085 186.069C37.7781 186.369 36.9772 186.745 36.2155 187.191C36.174 187.214 36.1322 187.242 36.0906 187.265C37.655 184.536 42.3762 181.465 42.3762 181.465C42.39 181.52 42.4085 181.576 42.4225 181.631C42.4734 181.825 42.515 182.01 42.5475 182.19L42.6262 182.781C42.6307 182.841 42.6354 182.896 42.6399 182.952L42.6492 183.266Z" fill="#020202"/>
<path d="M53.0594 175.68C53.2479 176.653 53.192 177.657 52.8967 178.603C52.7605 179.083 52.5745 179.546 52.3416 179.987C52.1 180.424 51.8203 180.838 51.5056 181.226C51.3551 181.425 51.1947 181.617 51.0249 181.8L50.4887 182.322C50.1272 182.665 49.7409 182.981 49.333 183.267L49.0328 183.49C48.9283 183.557 48.8196 183.616 48.7132 183.68L48.0704 184.055C47.6449 184.308 47.2018 184.53 46.7445 184.72C45.8433 185.12 44.9183 185.465 43.9748 185.752C43.0354 186.008 42.0557 186.233 41.1308 186.441C39.2779 186.818 37.4962 187.485 35.8512 188.416C35.4543 188.64 35.0899 188.918 34.768 189.24C34.4678 189.562 34.308 189.926 34.548 190.236C34.8426 190.569 35.221 190.817 35.644 190.956C36.0865 191.128 36.5416 191.265 37.0053 191.367C38.8843 191.761 40.8148 191.848 42.7216 191.625C44.6265 191.397 46.505 190.986 48.3309 190.399C50.1525 189.831 51.9319 189.136 53.6561 188.319C53.6725 188.311 53.6893 188.304 53.7064 188.298L53.7145 188.295L54.9699 187.862C55.0407 187.838 55.1161 187.83 55.1904 187.839C55.2647 187.848 55.3358 187.875 55.3984 187.916C55.4609 187.957 55.5131 188.012 55.551 188.076C55.5889 188.141 55.6114 188.213 55.6169 188.287L55.6177 188.301L55.8594 191.886L55.3227 191.385C56.8834 191.349 58.4442 191.325 60.0052 191.314C61.566 191.29 63.1271 191.306 64.6881 191.302L64.1607 191.808C64.2063 190.935 64.2755 190.062 64.3325 189.19L64.5118 186.572C64.5162 186.507 64.5348 186.443 64.5663 186.386C64.5978 186.328 64.6415 186.278 64.6943 186.239L64.6993 186.236C65.0061 185.997 65.2673 185.705 65.4704 185.374C65.6816 185.025 65.8406 184.647 65.9421 184.252C66.1393 183.427 66.1356 182.566 65.9312 181.743L65.7639 181.114L65.5676 180.467C65.4421 180.033 65.3288 179.596 65.2233 179.156C65.1224 178.715 65.0294 178.272 64.9646 177.822C64.9307 177.597 64.9097 177.369 64.9019 177.142C64.8805 176.905 64.9087 176.666 64.9847 176.44C64.9896 176.429 64.9988 176.419 65.0106 176.414C65.0223 176.408 65.0356 176.408 65.0478 176.412C65.06 176.416 65.0701 176.425 65.0761 176.436C65.0822 176.447 65.0836 176.461 65.0802 176.473L65.0738 176.496C65.0384 176.705 65.0408 176.919 65.0808 177.127C65.111 177.344 65.1587 177.561 65.2068 177.777C65.3088 178.208 65.4386 178.634 65.576 179.057C65.7169 179.48 65.8702 179.898 66.0267 180.315L66.2624 180.942L66.4845 181.6C66.771 182.51 66.835 183.475 66.671 184.414C66.5833 184.897 66.4152 185.361 66.1737 185.789C65.9253 186.235 65.5927 186.63 65.1942 186.951L65.3816 186.614L65.3071 189.237C65.2794 190.111 65.264 190.986 65.2251 191.859C65.2191 191.994 65.1619 192.121 65.0652 192.215C64.9685 192.309 64.8395 192.363 64.7045 192.365L64.6975 192.365C63.1367 192.389 61.5761 192.432 60.0151 192.436C58.4542 192.453 56.8932 192.457 55.3321 192.448L55.3186 192.448C55.1836 192.447 55.0541 192.394 54.9568 192.301C54.8595 192.208 54.8017 192.081 54.7953 191.946L54.6339 188.356L55.2816 188.795L54.0169 189.2L54.0751 189.176C50.4913 190.758 46.6636 191.718 42.7564 192.016C40.8096 192.185 38.8487 192.078 36.9321 191.697C36.4502 191.598 35.9748 191.469 35.5084 191.313C35.0045 191.162 34.5486 190.884 34.1858 190.504C34.0898 190.385 34.0191 190.248 33.978 190.101C33.941 189.948 33.9382 189.789 33.9698 189.634C34.036 189.358 34.1682 189.102 34.355 188.888C34.6903 188.501 35.0775 188.163 35.5056 187.883C37.1567 186.783 38.9917 185.987 40.9237 185.532C41.884 185.315 42.7832 185.082 43.7139 184.856C44.6232 184.593 45.5164 184.278 46.3892 183.912C46.8306 183.747 47.2594 183.55 47.6721 183.323L48.2928 182.988C48.3958 182.932 48.5015 182.879 48.6024 182.819L48.8905 182.62C49.2888 182.375 49.6685 182.101 50.0263 181.799L50.5574 181.342C50.7256 181.181 50.8854 181.011 51.0362 180.834C51.6714 180.146 52.1723 179.346 52.5131 178.475C52.8691 177.596 53.0207 176.647 52.9563 175.701L52.9558 175.696C52.9547 175.683 52.9586 175.669 52.9668 175.659C52.975 175.648 52.9869 175.641 53 175.639C53.0132 175.637 53.0266 175.64 53.0376 175.648C53.0486 175.655 53.0564 175.667 53.0593 175.68L53.0594 175.68Z" fill="#020202"/>
<path d="M53.0078 177.176C53.9488 177.633 54.9318 177.999 55.9432 178.267C56.9356 178.536 57.9561 178.689 58.9839 178.722C60.0094 178.769 61.0367 178.687 62.0416 178.477C62.5513 178.38 63.0551 178.255 63.5506 178.101C64.0559 177.963 64.5321 177.744 65.0486 177.592C64.6104 177.898 64.1527 178.174 63.6784 178.42C63.1953 178.66 62.692 178.856 62.1743 179.008C61.6558 179.169 61.1243 179.285 60.5857 179.355C60.3174 179.403 60.0435 179.394 59.7724 179.415L59.3645 179.437L58.9566 179.421C57.8692 179.383 56.7953 179.169 55.7771 178.786C54.7625 178.424 53.8237 177.878 53.0078 177.176Z" fill="#020202"/>
<path d="M44.5036 184.979C45.7316 184.975 46.9369 185.31 47.986 185.947C49.0352 186.584 49.8872 187.498 50.448 188.588C57.8502 185.384 59.7321 187.514 59.7321 187.514C61.141 184.726 66.151 181.464 66.151 181.464L66.1509 181.465C67.1856 185.05 64.9459 186.592 64.9459 186.592L64.6906 191.834L55.3287 191.915L55.1271 188.326L53.8639 188.746C53.8639 188.746 44.6677 193.224 36.981 191.535C32.4165 190.529 34.3068 188.831 36.6003 187.611C38.1224 186.812 39.7516 186.235 41.438 185.899C42.5904 185.668 43.7273 185.367 44.8424 184.996H44.8469" fill="#020202"/>
<path d="M47.199 28.6644C47.5748 28.3569 47.9623 28.0684 48.3614 27.7989L48.661 27.5972C48.7701 27.5259 48.8856 27.4651 49.006 27.4153C49.2496 27.3188 49.5094 27.2696 49.7715 27.2706C50.7371 27.2622 51.7021 27.3207 52.6596 27.4456C51.7021 27.5704 50.7371 27.6289 49.7715 27.6206C49.5509 27.6155 49.3312 27.6508 49.1232 27.7246C48.9087 27.8102 48.7014 27.9128 48.5033 28.0315C48.0802 28.2615 47.6454 28.4725 47.199 28.6644Z" fill="#020202"/>
<path d="M50.8843 25.0848C51.1844 25.047 51.4868 25.0311 51.7892 25.0373C51.9394 25.0359 52.0883 25.047 52.2379 25.0522C52.4 25.0629 52.5602 25.0935 52.7148 25.1435C52.8672 25.1971 53.0126 25.2687 53.148 25.3568C53.2713 25.4413 53.3981 25.5202 53.5181 25.6103C53.7653 25.7842 53.9993 25.9762 54.2181 26.1846C53.9301 26.0923 53.6493 25.9789 53.3781 25.8452C53.2414 25.7831 53.1115 25.7096 52.9781 25.6419C52.8593 25.5731 52.7334 25.5172 52.6027 25.4751C52.474 25.4296 52.3407 25.3981 52.2052 25.3813C52.0576 25.3572 51.9094 25.339 51.7624 25.3082C51.4646 25.2552 51.1711 25.1806 50.8843 25.0848Z" fill="#020202"/>
<path d="M48.4724 26.7519C48.7712 26.6007 49.0797 26.4695 49.3959 26.359C49.7129 26.2384 50.0387 26.142 50.3703 26.0707C50.5497 26.0476 50.7313 26.0488 50.9104 26.0743C51.0851 26.1084 51.2393 26.1379 51.4034 26.1794C51.7299 26.2542 52.0511 26.3507 52.3647 26.4683C52.0301 26.4844 51.6947 26.4781 51.3609 26.4494C51.0495 26.4007 50.7332 26.3899 50.4192 26.4173C50.2628 26.4425 50.1079 26.4765 49.9553 26.5191C49.7928 26.5535 49.632 26.5936 49.4678 26.6217C49.1393 26.6869 48.8067 26.7304 48.4724 26.7519Z" fill="#020202"/>
<path d="M115.576 120.668C115.432 119.807 115.39 118.933 115.45 118.062C115.469 117.731 115.509 117.401 115.571 117.074C112.861 116.717 110.151 116.359 107.441 115.948L103.369 115.331C102.012 115.103 100.655 114.898 99.3019 114.647L99.293 119.157L115.898 121.96C115.75 121.54 115.642 121.108 115.576 120.668ZM112.951 107.585L99.3019 114.647C100.673 114.75 102.039 114.893 103.41 115.014L107.508 115.447C110.205 115.729 112.897 116.069 115.585 116.404L119.289 114.491C120.561 113.847 121.829 113.19 123.11 112.564L126.945 110.674C128.235 110.066 129.511 109.436 130.81 108.846L112.951 107.585ZM108.991 112.989C109.113 113.18 109.266 113.349 109.443 113.49C109.826 113.796 110.256 114.039 110.715 114.209C111.672 114.576 112.683 114.782 113.708 114.817C114.748 114.868 115.789 114.739 116.785 114.437C117.285 114.282 117.754 114.043 118.174 113.731C118.379 113.569 118.557 113.376 118.702 113.159C118.806 112.992 118.877 112.807 118.913 112.614C118.884 112.81 118.816 112.999 118.711 113.168C118.571 113.39 118.394 113.586 118.187 113.749C117.775 114.08 117.312 114.342 116.816 114.527C115.823 114.907 114.772 115.119 113.708 115.152C112.63 115.205 111.551 115.07 110.518 114.755C109.984 114.584 109.481 114.326 109.031 113.99C108.797 113.805 108.594 113.584 108.431 113.333C108.247 113.064 108.149 112.745 108.149 112.419C108.149 112.093 108.247 111.775 108.431 111.505C108.594 111.254 108.799 111.032 109.036 110.848C109.482 110.511 109.984 110.254 110.518 110.088C111.55 109.771 112.63 109.636 113.708 109.69C114.772 109.722 115.822 109.932 116.816 110.312C117.312 110.496 117.775 110.759 118.187 111.089C118.394 111.254 118.571 111.452 118.711 111.675C118.816 111.842 118.885 112.029 118.913 112.225C118.876 112.032 118.805 111.847 118.702 111.679C118.556 111.463 118.378 111.27 118.174 111.107C117.754 110.795 117.285 110.556 116.785 110.401C115.789 110.097 114.748 109.968 113.708 110.021C112.683 110.054 111.672 110.26 110.715 110.629C110.255 110.798 109.825 111.041 109.443 111.349C109.266 111.49 109.113 111.659 108.991 111.849C108.88 112.019 108.821 112.217 108.821 112.419C108.821 112.622 108.88 112.82 108.991 112.989ZM127.097 110.969L123.352 113.029C122.102 113.722 120.839 114.379 119.585 115.059L115.8 117.043C115.786 117.052 115.768 117.057 115.755 117.065C115.85 117.385 115.922 117.71 115.97 118.04C116.113 118.901 116.155 119.775 116.095 120.646C116.076 121.089 116.01 121.53 115.898 121.96L130.81 115.403V108.846C129.583 109.574 128.333 110.263 127.097 110.969Z" fill="#020202"/>
<path d="M114.299 107.586C114.152 107.123 114.04 106.65 113.963 106.172C113.958 106.143 113.958 106.113 113.965 106.084C113.971 106.056 113.983 106.029 114 106.005C114.017 105.981 114.038 105.96 114.063 105.945C114.088 105.929 114.115 105.918 114.144 105.913L114.159 105.911L114.215 105.905C115.334 105.786 116.463 105.775 117.585 105.871L117.633 105.876C117.702 105.881 117.766 105.914 117.81 105.967C117.855 106.019 117.876 106.087 117.87 106.156L117.87 106.157C117.826 106.749 117.73 107.337 117.585 107.913C117.439 107.337 117.343 106.749 117.299 106.157L117.584 106.442C116.463 106.539 115.334 106.527 114.215 106.408L114.467 106.142C114.446 106.627 114.39 107.109 114.299 107.586Z" fill="#020202"/>
<path d="M123.735 108.137C123.588 107.674 123.476 107.201 123.398 106.723C123.393 106.694 123.394 106.664 123.4 106.635C123.407 106.607 123.419 106.58 123.435 106.556C123.452 106.532 123.474 106.511 123.499 106.496C123.523 106.48 123.551 106.469 123.58 106.464L123.594 106.462L123.65 106.456C124.77 106.337 125.898 106.326 127.02 106.423L127.069 106.427C127.103 106.43 127.136 106.439 127.166 106.455C127.197 106.47 127.224 106.492 127.246 106.518C127.268 106.544 127.284 106.574 127.295 106.606C127.305 106.639 127.309 106.673 127.306 106.707L127.306 106.708C127.262 107.3 127.166 107.888 127.02 108.464C126.874 107.888 126.779 107.3 126.734 106.708L127.02 106.993C125.898 107.09 124.77 107.078 123.65 106.959L123.902 106.693C123.882 107.178 123.826 107.66 123.735 108.137Z" fill="#020202"/>
<path d="M99.2992 115.708C97.4406 116.017 95.5941 116.388 93.7711 116.826C91.9553 117.23 90.1843 117.813 88.4839 118.566C87.6785 118.896 86.9638 119.414 86.3994 120.076C86.2908 120.214 86.2123 120.373 86.1689 120.544C86.1255 120.714 86.1183 120.891 86.1475 121.065C86.2433 121.443 86.436 121.79 86.7066 122.072C87.2973 122.722 88.014 123.246 88.8132 123.612C89.6465 123.991 90.5089 124.303 91.3921 124.545C93.1922 125.048 95.0219 125.439 96.8705 125.717C98.7246 126.013 100.595 126.234 102.472 126.378C106.229 126.639 109.997 126.698 113.761 126.554C117.523 126.414 121.277 126.185 125.022 125.868C126.894 125.706 128.761 125.507 130.62 125.259C132.477 125.008 134.331 124.736 136.156 124.363C137.07 124.181 137.977 123.976 138.863 123.725C139.736 123.493 140.584 123.174 141.394 122.773C141.75 122.603 142.065 122.36 142.319 122.058C142.364 122.001 142.4 121.937 142.424 121.868C142.452 121.778 142.473 121.686 142.488 121.593C142.514 121.498 142.526 121.399 142.525 121.3C142.531 121.203 142.532 121.106 142.528 121.009C142.467 120.601 142.324 120.21 142.108 119.86C141.891 119.509 141.606 119.206 141.268 118.969C139.87 117.87 138.079 117.2 136.301 116.668C134.498 116.145 132.662 115.74 130.806 115.456C130.799 115.455 130.793 115.453 130.787 115.449C130.781 115.446 130.775 115.441 130.771 115.436C130.767 115.43 130.764 115.424 130.762 115.417C130.76 115.411 130.76 115.404 130.761 115.397C130.763 115.384 130.77 115.372 130.78 115.364C130.79 115.355 130.803 115.351 130.816 115.351C131.761 115.403 132.701 115.506 133.639 115.639C134.577 115.772 135.513 115.932 136.438 116.155C137.37 116.369 138.287 116.641 139.185 116.969C140.11 117.294 140.983 117.75 141.777 118.323C142.193 118.629 142.557 118.998 142.858 119.417C143.176 119.862 143.377 120.38 143.443 120.924C143.47 121.197 143.462 121.472 143.419 121.742C143.401 121.882 143.373 122.02 143.335 122.155C143.288 122.31 143.217 122.458 143.125 122.592C142.8 123.035 142.378 123.399 141.891 123.656C141.029 124.126 140.115 124.496 139.168 124.758C138.245 125.035 137.316 125.26 136.383 125.461C132.657 126.174 128.887 126.64 125.099 126.853C121.325 127.116 117.543 127.191 113.766 127.13C109.989 127.073 106.217 126.936 102.449 126.718C98.6831 126.484 94.8966 126.271 91.1647 125.389C90.2203 125.167 89.2992 124.855 88.4139 124.459C87.9552 124.25 87.5185 123.996 87.1104 123.701C86.7046 123.401 86.3323 123.058 86.0001 122.679C85.625 122.269 85.3656 121.767 85.2482 121.225C85.2015 120.932 85.2149 120.634 85.2878 120.347C85.3606 120.06 85.4913 119.791 85.6718 119.557C86.3388 118.784 87.1884 118.189 88.1436 117.826C89.9197 117.115 91.768 116.599 93.6559 116.287C94.5869 116.107 95.5257 115.978 96.4645 115.864C97.4035 115.75 98.3435 115.654 99.2883 115.604C99.3023 115.603 99.3159 115.608 99.3263 115.617C99.3367 115.626 99.343 115.639 99.3438 115.653C99.3443 115.666 99.3401 115.679 99.3319 115.689C99.3237 115.699 99.312 115.706 99.2992 115.708Z" fill="#020202"/>
<path d="M39.7708 33.4669C39.8026 32.559 39.9219 31.7048 40.0164 30.8452C40.0696 30.4169 40.1072 29.9897 40.155 29.5595L40.2592 28.2424C40.6111 29.0854 40.7264 30.0079 40.593 30.9113C40.5383 31.3579 40.4448 31.7989 40.3136 32.2293C40.1874 32.6636 40.0049 33.0797 39.7708 33.4669Z" fill="#020202"/>
<path d="M47.4847 27.5081C46.6557 28.4103 45.575 29.0443 44.3818 29.3284C43.1886 29.6125 41.9375 29.5338 40.7895 29.1023C39.6332 28.6354 38.6619 27.8034 38.0243 26.7335C37.8643 26.4688 37.7277 26.1907 37.6162 25.9023L37.4717 25.4837C37.4189 25.3498 37.3601 25.1996 37.3163 25.0501C37.1622 24.4569 37.101 23.8435 37.1352 23.2317C37.2617 20.8429 37.7463 18.4865 38.5729 16.241C39.0648 15.1486 39.6359 14.0933 40.2815 13.0837C40.9088 12.0576 41.6377 11.0968 42.4573 10.216C42.4857 10.1859 42.5215 10.1639 42.5611 10.1521C42.6008 10.1403 42.6428 10.1392 42.6831 10.1488C42.7233 10.1584 42.7603 10.1784 42.7903 10.2068C42.8203 10.2352 42.8423 10.271 42.854 10.3106L42.8561 10.3181C43.1463 11.3018 43.5039 12.2644 43.9264 13.1992C44.3337 14.1377 44.8209 15.0397 45.3827 15.8952C45.9323 16.7442 46.62 17.4959 47.4175 18.1191C48.2091 18.7345 49.1917 19.0539 50.1946 19.0219L50.0683 19.0874C50.3352 18.7801 50.6497 18.5173 50.9997 18.309C51.1836 18.2008 51.3877 18.131 51.5994 18.1038C51.7112 18.0901 51.8246 18.0987 51.933 18.1289C52.0415 18.1592 52.1428 18.2105 52.2313 18.2801C52.5289 18.5663 52.7227 18.9431 52.7825 19.3512C52.8611 19.7333 52.9077 20.1214 52.9219 20.5113C52.922 20.5145 52.9216 20.5178 52.9205 20.5209C52.9194 20.524 52.9176 20.5269 52.9154 20.5294C52.9132 20.5318 52.9106 20.5338 52.9076 20.5352C52.9046 20.5366 52.9013 20.5374 52.898 20.5376C52.8917 20.5378 52.8854 20.5357 52.8806 20.5315C52.8757 20.5274 52.8726 20.5216 52.8718 20.5153C52.828 20.1337 52.7526 19.7564 52.6463 19.3873C52.5665 19.0289 52.3732 18.7056 52.0951 18.4652C51.9465 18.3831 51.7764 18.3482 51.6074 18.3652C51.4384 18.3821 51.2787 18.4501 51.1494 18.56C50.8435 18.7663 50.572 19.0194 50.3448 19.3098C50.3302 19.328 50.3122 19.3432 50.2916 19.3543C50.2711 19.3655 50.2485 19.3724 50.2253 19.3748L50.2184 19.3754C49.1229 19.4545 48.0349 19.1426 47.1486 18.4953C46.2805 17.8667 45.5368 17.0828 44.9554 16.1834C44.3663 15.3081 43.8602 14.3798 43.4438 13.4107C43.0278 12.4449 42.6791 11.4516 42.4002 10.4378L42.799 10.54C41.9815 11.3868 41.2434 12.3065 40.594 13.2876C39.91 14.2496 39.3011 15.2624 38.7724 16.3173C37.8672 18.5103 37.4066 20.8606 37.4174 23.2324C37.414 23.81 37.4991 24.3847 37.6698 24.9366C37.7165 25.0702 37.7722 25.1944 37.8353 25.3339L38.0017 25.7504C38.1087 26.0147 38.2386 26.2692 38.3901 26.5109C38.6957 26.9952 39.0719 27.4315 39.5062 27.8054C39.9311 28.1892 40.4179 28.4986 40.946 28.7206C42.0247 29.1507 43.2053 29.2587 44.3443 29.0315C45.502 28.8029 46.5753 28.264 47.4491 27.4726C47.4539 27.4683 47.4602 27.466 47.4666 27.4661C47.4731 27.4663 47.4792 27.4689 47.4838 27.4735C47.4883 27.478 47.491 27.4841 47.4911 27.4906C47.4913 27.497 47.489 27.5033 47.4847 27.5081L47.4847 27.5081Z" fill="#020202"/>
<path d="M38.0822 18.0088C37.9666 17.1584 37.9469 16.2977 38.0236 15.4429C38.0874 14.5764 38.2693 13.7226 38.5643 12.9051C38.8454 12.0468 39.3988 11.3031 40.1409 10.7865C40.5275 10.5467 40.97 10.4117 41.4249 10.3949C41.8617 10.398 42.2943 10.48 42.7018 10.6369C42.2865 10.5777 41.8648 10.5786 41.4497 10.6396C41.055 10.7106 40.6822 10.8719 40.3606 11.111C39.7413 11.6306 39.2816 12.3141 39.0343 13.0828C38.7507 13.8646 38.5422 14.6716 38.4113 15.4927C38.2725 16.3202 38.1602 17.1586 38.0822 18.0088Z" fill="#020202"/>
<path d="M40.3092 18.9555C40.5047 18.9487 40.69 18.8664 40.8259 18.726C40.9618 18.5856 41.0378 18.398 41.0378 18.2028C41.0378 18.0076 40.9618 17.82 40.8259 17.6796C40.69 17.5392 40.5047 17.457 40.3092 17.4502C40.1136 17.457 39.9284 17.5392 39.7925 17.6796C39.6565 17.82 39.5806 18.0076 39.5806 18.2028C39.5806 18.398 39.6565 18.5856 39.7925 18.726C39.9284 18.8664 40.1136 18.9487 40.3092 18.9555Z" fill="#020202"/>
<path d="M44.8048 19.8202C45.0003 19.8135 45.1856 19.7312 45.3215 19.5908C45.4575 19.4504 45.5334 19.2628 45.5334 19.0676C45.5334 18.8724 45.4575 18.6848 45.3215 18.5444C45.1856 18.404 45.0003 18.3217 44.8048 18.3149C44.6093 18.3217 44.424 18.404 44.2881 18.5444C44.1522 18.6848 44.0762 18.8724 44.0762 19.0676C44.0762 19.2628 44.1522 19.4504 44.2881 19.5908C44.424 19.7312 44.6093 19.8135 44.8048 19.8202Z" fill="#020202"/>
<path d="M38.7781 16.1103C38.9926 15.9475 39.2449 15.8415 39.5115 15.8021C39.7756 15.7553 40.0459 15.7549 40.3102 15.8009C40.8449 15.8826 41.3268 16.1686 41.6541 16.5983C41.3839 16.5547 41.1511 16.4853 40.9152 16.4352C40.6823 16.3802 40.4539 16.3329 40.2243 16.295C39.9958 16.2477 39.7637 16.2238 39.5263 16.1919L38.7781 16.1103Z" fill="#020202"/>
<path d="M44.4805 17.078C44.6605 16.9349 44.8745 16.8406 45.1018 16.8041C45.3249 16.7617 45.5537 16.7591 45.7777 16.7965C46.0043 16.8276 46.222 16.9053 46.4169 17.0248C46.6119 17.1442 46.7798 17.3027 46.9102 17.4903C46.6734 17.4708 46.4753 17.424 46.2755 17.3916C46.0782 17.3564 45.8877 17.319 45.6952 17.2911C45.3094 17.2196 44.9305 17.1763 44.4805 17.078Z" fill="#020202"/>
<path d="M40.3853 20.1505C40.6493 20.4898 41.0018 20.75 41.4042 20.9025C41.6017 20.9811 41.8033 21.0486 42.0083 21.1048C42.2385 21.1592 42.4656 21.226 42.6886 21.3049C42.4647 21.419 42.2187 21.4836 41.9675 21.4942C41.7099 21.5045 41.453 21.461 41.2132 21.3664C40.9646 21.2667 40.7482 21.1007 40.5876 20.8865C40.5065 20.7835 40.4468 20.6653 40.4121 20.5389C40.3773 20.4125 40.3682 20.2805 40.3853 20.1505Z" fill="#020202"/>
<path d="M42.5168 22.3324C42.304 22.2939 42.0855 22.3014 41.8759 22.3545C41.6663 22.4075 41.4706 22.5049 41.302 22.64C40.9889 22.9218 40.7958 23.3126 40.7624 23.732C40.7195 24.126 40.826 24.5217 41.0607 24.8413C41.2967 25.1289 41.6291 25.3216 41.9964 25.3836C42.3637 25.4457 42.7412 25.373 43.0589 25.179C43.3857 24.9544 43.617 24.6164 43.7079 24.231C43.8156 23.8245 43.7633 23.3922 43.5616 23.023C43.4471 22.84 43.2946 22.6836 43.1144 22.5645C42.9341 22.4453 42.7304 22.3662 42.5168 22.3324ZM42.5168 22.3324C42.9557 22.3982 43.3517 22.632 43.6205 22.9843C43.8895 23.3573 44.0094 23.8169 43.9569 24.2733C43.9137 24.7555 43.6866 25.2028 43.3225 25.5228C43.1252 25.6765 42.8979 25.7875 42.6552 25.8487C42.4125 25.9098 42.1596 25.9198 41.9128 25.8779C41.666 25.836 41.4307 25.7432 41.2218 25.6055C41.013 25.4677 40.8353 25.288 40.7 25.0778C40.4629 24.6558 40.3969 24.1591 40.5157 23.6901C40.6176 23.2423 40.8827 22.8483 41.2595 22.5847C41.6296 22.3403 42.0808 22.2498 42.5168 22.3324Z" fill="#020202"/>
<path d="M32.4893 35.8741C32.3514 34.1281 32.4332 32.3717 32.7327 30.646C32.8857 29.785 33.1064 28.9374 33.2855 28.0849C33.381 27.6596 33.4528 27.2298 33.5347 26.8018C33.6304 26.3768 33.6956 25.9449 33.7771 25.5159C33.9379 24.6581 34.115 23.8008 34.3465 22.9585L34.6928 21.6939C34.812 21.2734 34.9599 20.8617 35.0955 20.4462C35.6652 18.7928 36.368 17.1882 37.197 15.6479C37.1985 15.6449 37.2007 15.6424 37.2032 15.6403C37.2058 15.6382 37.2087 15.6366 37.2119 15.6356C37.2151 15.6346 37.2184 15.6343 37.2217 15.6346C37.225 15.635 37.2282 15.6359 37.2311 15.6375C37.2363 15.6404 37.2403 15.645 37.2425 15.6506C37.2447 15.6561 37.2449 15.6623 37.243 15.6679C36.7112 17.3333 36.1181 18.96 35.6042 20.6158C35.0375 22.2537 34.5521 23.9161 34.045 25.5794C33.7977 26.4127 33.5976 27.2593 33.4458 28.1152C33.3642 28.5419 33.3253 28.9762 33.2759 29.4077C33.2226 29.8388 33.1876 30.272 33.1473 30.7038C32.9503 32.4263 32.7214 34.139 32.5396 35.8733C32.5392 35.88 32.5362 35.8862 32.5312 35.8906C32.5262 35.8951 32.5196 35.8974 32.5129 35.897C32.507 35.8964 32.5014 35.8938 32.4971 35.8897C32.4928 35.8855 32.49 35.88 32.4893 35.8741Z" fill="#020202"/>
<path d="M42.6713 9.77346C42.5003 9.31712 42.2447 8.89701 41.9178 8.5351C41.7714 8.36482 41.5875 8.23076 41.3803 8.14348C41.1732 8.05619 40.9487 8.01806 40.7243 8.03208C40.2683 8.10161 39.839 8.29063 39.4801 8.57984C39.0969 8.87411 38.7376 9.19817 38.4056 9.549C37.7131 10.2553 37.0856 11.0222 36.5308 11.8406C36.2425 12.2459 36.021 12.6924 35.7715 13.1208C35.5259 13.5517 35.3078 13.9977 35.1186 14.4561C34.3181 16.2569 33.7409 18.1485 33.3997 20.0889C33.0376 22.0274 33.035 24.0158 33.3921 25.9553L33.3927 25.9582C33.394 25.9644 33.3929 25.9708 33.3897 25.9762C33.3864 25.9816 33.3813 25.9856 33.3752 25.9873C33.3692 25.9891 33.3627 25.9886 33.357 25.9858C33.3514 25.983 33.347 25.9782 33.3448 25.9723C32.6883 24.0538 32.5251 22.0016 32.8701 20.0038C33.2115 18.015 33.8881 16.0983 34.8713 14.3352C35.1073 13.893 35.3533 13.458 35.6177 13.0337C35.8829 12.6102 36.1209 12.1707 36.3937 11.7524C36.9004 10.8841 37.4694 10.0535 38.0965 9.26735C38.4262 8.87309 38.8035 8.52105 39.2199 8.21926C39.6483 7.88777 40.1641 7.68778 40.7044 7.64368C40.9804 7.64291 41.2526 7.70782 41.4984 7.83302C41.7442 7.95822 41.9566 8.14011 42.1179 8.36359C42.4247 8.77643 42.6309 9.25494 42.72 9.76117C42.7207 9.7644 42.7206 9.76773 42.72 9.77096C42.7193 9.77419 42.718 9.77726 42.7162 9.77999C42.7143 9.78271 42.7119 9.78505 42.7092 9.78686C42.7064 9.78868 42.7033 9.78993 42.7001 9.79054C42.6941 9.79134 42.6879 9.79009 42.6827 9.78699C42.6775 9.78389 42.6734 9.77912 42.6713 9.77346Z" fill="#020202"/>
<path d="M42.0546 8.52481C42.0276 8.09387 42.0557 7.66124 42.1382 7.23739C42.2123 6.8054 42.3559 6.38822 42.5635 6.00202C42.7749 5.60506 43.0743 5.26151 43.4389 4.99756C43.8116 4.7375 44.2376 4.56362 44.686 4.48857C45.568 4.38387 46.4623 4.47823 47.3029 4.76467C48.1321 5.02395 48.9315 5.3698 49.688 5.79645C51.1976 6.64329 52.5469 7.74725 53.675 9.05837C55.9393 11.6584 57.5846 14.7359 58.4878 18.0604C58.9574 19.7312 59.1594 21.4656 59.0863 23.1994C58.8137 24.858 58.849 26.5525 59.1905 28.1983C59.383 29.0063 59.7326 29.7686 60.2196 30.442C60.7145 31.1234 61.3956 31.6481 62.1813 31.9536L62.1844 31.9547C62.1904 31.9568 62.1954 31.9612 62.1984 31.9669C62.2013 31.9726 62.2019 31.9792 62.2001 31.9854C62.1982 31.9915 62.1941 31.9967 62.1885 31.9999C62.183 32.0031 62.1764 32.0041 62.1701 32.0026C61.3201 31.7776 60.5607 31.2955 59.9963 30.6226C59.4241 29.9512 59.0063 29.1628 58.7723 28.313C58.2555 26.63 58.3563 24.8278 58.5563 23.1544C58.6504 21.4757 58.4882 19.7926 58.0752 18.1626C57.6948 16.5109 57.1339 14.9058 56.4026 13.3762C55.6608 11.8454 54.6918 10.4349 53.5285 9.19244C52.3505 7.97741 50.9852 6.95828 49.4845 6.17369C48.7412 5.78183 47.9689 5.44753 47.1742 5.17377C46.3977 4.89013 45.5674 4.78335 44.7441 4.86126C44.3442 4.91086 43.9599 5.04668 43.6179 5.2593C43.2767 5.48202 42.9912 5.77971 42.7832 6.12956C42.3608 6.85848 42.1277 7.68113 42.1049 8.52279C42.1049 8.52609 42.1043 8.52937 42.1031 8.53243C42.1019 8.5355 42.1001 8.53829 42.0978 8.54066C42.0955 8.54302 42.0927 8.54492 42.0897 8.54622C42.0867 8.54753 42.0834 8.54823 42.0801 8.54828C42.0738 8.548 42.0677 8.54549 42.0631 8.54119C42.0584 8.53689 42.0554 8.53109 42.0546 8.52481Z" fill="#020202"/>
<path d="M43.6958 7.3031C44.4023 7.3566 45.0862 7.57525 45.6922 7.94137C46.3077 8.30293 46.8566 8.76696 47.3151 9.31335C47.7593 9.86632 48.1194 10.4816 48.3838 11.1394C48.5115 11.4656 48.6201 11.7989 48.7088 12.1378C48.7742 12.4819 48.8389 12.8239 48.88 13.1673C48.7282 12.8511 48.6176 12.5275 48.4753 12.2169C48.3183 11.9128 48.1959 11.5966 48.0277 11.3042C47.8722 11.0072 47.7005 10.7189 47.5134 10.4406C47.3339 10.1602 47.1384 9.89047 46.9276 9.63272C46.5012 9.12201 46.0151 8.66407 45.4796 8.26868C44.9343 7.86347 44.3336 7.53831 43.6958 7.3031Z" fill="#020202"/>
<path d="M34.5681 33.4653C34.8869 32.4654 35.295 31.5266 35.6843 30.5821C35.8862 30.1131 36.0732 29.641 36.2608 29.1693C36.4577 28.6981 36.6048 28.2076 36.6998 27.7059C36.8015 28.2291 36.7798 28.7687 36.6366 29.282C36.5154 29.7924 36.352 30.2918 36.1482 30.7752C35.7507 31.7415 35.2188 32.6471 34.5681 33.4653Z" fill="#020202"/>
<path d="M40.2444 31.3334C40.6737 32.0608 41.206 32.7225 41.8249 33.2981C42.1292 33.5514 42.479 33.7447 42.8556 33.8675C43.2647 33.9838 43.688 34.0433 44.1133 34.0443C43.7023 34.2708 43.2307 34.3639 42.7642 34.3104C42.2825 34.2498 41.828 34.0533 41.4544 33.7439C41.0992 33.4368 40.8097 33.0613 40.6033 32.64C40.3939 32.2341 40.2717 31.7891 40.2444 31.3334Z" fill="#020202"/>
<path d="M49.6441 36.8782C49.6437 36.8782 49.6432 36.8782 49.6428 36.8784C49.6424 36.8786 49.642 36.8789 49.6416 36.8792C49.6413 36.8795 49.641 36.8799 49.6409 36.8803C49.6407 36.8808 49.6406 36.8812 49.6406 36.8817" stroke="#020202" stroke-width="0.75838" stroke-linecap="round" stroke-linejoin="round"/>
<path d="M46.7702 38.5788C41.6346 41.9293 36.9337 45.9003 32.7745 50.4017C31.7341 51.5214 30.731 52.6734 29.7651 53.8578C29.314 54.3551 29.3277 55.0741 29.4367 55.8107C29.5463 56.5472 29.699 57.3131 29.7795 58.09C29.8664 58.8703 29.8838 59.6567 29.8315 60.4401C29.7649 61.2218 29.6343 61.9968 29.4412 62.7573C29.0938 64.2459 28.6698 65.7169 28.3544 67.2142C27.0023 73.1905 26.0379 79.2475 25.4673 85.3477C25.1571 88.3956 24.9569 91.4538 24.8111 94.5129C24.6671 97.5708 24.567 100.636 24.573 103.691L24.0911 103.517C27.0551 99.849 29.9394 96.1155 32.7437 92.3161C35.5341 88.5119 38.2895 84.6812 40.89 80.7467C43.4975 76.8184 46.0203 72.8309 48.3029 68.7066C49.451 66.6498 50.5448 64.559 51.5378 62.423C52.5544 60.295 53.4383 58.1065 54.1845 55.8699C54.1873 55.8611 54.1935 55.8539 54.2016 55.8496C54.2098 55.8454 54.2193 55.8445 54.2281 55.8472C54.2369 55.8498 54.2443 55.8558 54.2487 55.8639C54.2531 55.8719 54.2541 55.8814 54.2516 55.8902C52.9482 60.4399 50.9477 64.7629 48.7508 68.9482C46.5247 73.1251 44.0813 77.1836 41.4825 81.1367C38.8718 85.0819 36.17 88.9677 33.3187 92.7418C30.473 96.52 27.5715 100.254 24.5099 103.865L24.5052 103.871C24.4691 103.913 24.4207 103.944 24.3665 103.958C24.3124 103.972 24.2553 103.969 24.203 103.949C24.1507 103.929 24.1058 103.894 24.0744 103.848C24.0431 103.801 24.0268 103.747 24.0279 103.691C24.1465 97.545 24.6121 91.4271 25.2349 85.3245C25.3783 83.7976 25.5872 82.278 25.7449 80.7525C25.9419 79.2319 26.1186 77.7079 26.3488 76.1914C26.5765 74.6745 26.7785 73.1533 27.0479 71.6422C27.2839 70.1254 27.5818 68.6194 27.8781 67.1124C28.0157 66.3567 28.1873 65.608 28.359 64.8592L28.875 62.6127C29.0535 61.8855 29.1724 61.145 29.2307 60.3986C29.2746 59.6515 29.2521 58.902 29.1634 58.1589C29.0821 57.4109 28.9206 56.6739 28.8175 55.8928C28.7516 55.488 28.7401 55.0762 28.7833 54.6683C28.8131 54.4511 28.8679 54.2381 28.9465 54.0334C29.0343 53.8303 29.1534 53.6421 29.2996 53.4757C30.2835 52.2912 31.3058 51.1395 32.3665 50.0207C34.4827 47.7829 36.7489 45.6912 39.1494 43.76C41.54 41.823 44.0754 40.0709 46.7334 38.5192C46.7413 38.5146 46.7508 38.5132 46.7597 38.5154C46.7686 38.5177 46.7763 38.5233 46.7811 38.5311C46.7859 38.5389 46.7874 38.5483 46.7854 38.5572C46.7834 38.5661 46.7779 38.5739 46.7702 38.5789L46.7702 38.5788Z" fill="#020202"/>
<path d="M58.1215 42.4684L58.1211 42.4649V42.4648C58.2739 41.4811 58.4696 40.51 58.6699 39.5408C58.8723 38.5721 59.0923 37.6087 59.3115 36.6458L59.9991 33.7663C60.2258 32.8092 60.4666 31.8451 60.6768 30.8978L60.7842 31.1515C60.3149 30.7982 59.8158 30.4861 59.2926 30.2187C59.0311 30.0828 58.7582 29.97 58.4771 29.8816C58.1941 29.7878 57.8967 29.7447 57.5986 29.7542H57.5984L57.595 29.7539L57.5984 29.7535C58.208 29.6285 58.841 29.686 59.4178 29.9188C60.0041 30.1222 60.5649 30.3924 61.0891 30.7239C61.1278 30.7482 61.1586 30.783 61.1782 30.8241C61.1977 30.8653 61.205 30.9112 61.1993 30.9564L61.1965 30.9778C61.0689 31.9797 60.8766 32.9468 60.6645 33.9183C60.4562 34.8884 60.2134 35.8498 59.961 36.8079C59.7002 37.7641 59.4223 38.7152 59.1202 39.6594C58.8135 40.6023 58.4915 41.5406 58.1218 42.4649V42.4649L58.1215 42.4684Z" fill="#020202"/>
<path d="M71.0324 65.4442C71.4184 70.8006 71.8327 76.152 72.2752 81.4983C72.7392 86.8436 73.2251 92.1853 73.7912 97.5165C74.0641 100.183 74.3828 102.844 74.7153 105.503C75.0382 108.162 75.4107 110.814 75.8327 113.458C76.242 116.103 76.7027 118.74 77.2777 121.349C77.7998 123.962 78.5186 126.532 79.4278 129.038L79.434 129.054C79.4556 129.111 79.4594 129.172 79.4449 129.231C79.1504 130.425 78.7823 131.6 78.3427 132.749C77.9103 133.901 77.3729 135.011 76.7372 136.065C76.1229 137.144 75.2806 138.077 74.2688 138.799C73.7504 139.148 73.1528 139.361 72.5306 139.42C71.9154 139.461 71.2994 139.353 70.7351 139.105C71.2981 139.322 71.907 139.39 72.5042 139.306C73.1013 139.221 73.6668 138.985 74.1468 138.62C75.0882 137.876 75.8564 136.937 76.3982 135.868C76.9631 134.806 77.4402 133.7 77.8247 132.56C78.221 131.426 78.547 130.268 78.8011 129.093L78.8181 129.286C76.7817 124.24 75.7503 118.916 74.8362 113.619C73.956 108.308 73.3067 102.968 72.7802 97.6194C72.254 92.2703 71.8528 86.9127 71.5769 81.5465C71.2756 76.1837 71.0802 70.8148 71.0324 65.4442Z" fill="#020202"/>
<path d="M110.592 126.844C110.592 126.844 109.119 175.544 86.3726 187.985C86.3726 190.156 98.8884 191.915 114.327 191.915C129.767 191.915 142.282 190.156 142.282 187.985C142.282 187.985 117.079 181.154 118.932 126.717" fill="#020202"/>
<path d="M71.8798 138.333C72.054 138.327 72.2191 138.253 72.3402 138.128C72.4613 138.003 72.5289 137.836 72.5289 137.662C72.5289 137.488 72.4613 137.321 72.3402 137.196C72.2191 137.071 72.054 136.998 71.8798 136.992C71.7056 136.998 71.5406 137.071 71.4195 137.196C71.2984 137.321 71.2307 137.488 71.2307 137.662C71.2307 137.836 71.2984 138.003 71.4195 138.128C71.5406 138.253 71.7056 138.327 71.8798 138.333Z" fill="black"/>
<path d="M74.3525 136.402C74.5267 136.396 74.6917 136.322 74.8128 136.197C74.9339 136.072 75.0016 135.905 75.0016 135.731C75.0016 135.557 74.9339 135.39 74.8128 135.265C74.6917 135.14 74.5267 135.067 74.3525 135.061C74.1783 135.067 74.0133 135.14 73.8922 135.265C73.7711 135.39 73.7034 135.557 73.7034 135.731C73.7034 135.905 73.7711 136.072 73.8922 136.197C74.0133 136.322 74.1783 136.396 74.3525 136.402Z" fill="black"/>
<path d="M76.0726 134.042C76.2468 134.036 76.4118 133.962 76.5329 133.837C76.654 133.712 76.7217 133.545 76.7217 133.371C76.7217 133.197 76.654 133.03 76.5329 132.905C76.4118 132.78 76.2468 132.707 76.0726 132.701C75.8985 132.707 75.7334 132.78 75.6123 132.905C75.4913 133.03 75.4236 133.197 75.4236 133.371C75.4236 133.545 75.4913 133.712 75.6123 133.837C75.7334 133.962 75.8985 134.036 76.0726 134.042Z" fill="black"/>
<path d="M77.1476 130.931C77.3218 130.925 77.4868 130.851 77.6079 130.726C77.7289 130.601 77.7966 130.434 77.7966 130.26C77.7966 130.086 77.7289 129.919 77.6079 129.794C77.4868 129.669 77.3218 129.596 77.1476 129.59C76.9734 129.596 76.8084 129.669 76.6873 129.794C76.5662 129.919 76.4985 130.086 76.4985 130.26C76.4985 130.434 76.5662 130.601 76.6873 130.726C76.8084 130.851 76.9734 130.925 77.1476 130.931Z" fill="black"/>
<path d="M97.1975 117.843C97.3716 117.837 97.5367 117.764 97.6578 117.639C97.7789 117.514 97.8466 117.347 97.8466 117.173C97.8466 116.999 97.7789 116.832 97.6578 116.707C97.5367 116.582 97.3716 116.509 97.1975 116.503C97.0233 116.509 96.8582 116.582 96.7371 116.707C96.616 116.832 96.5483 116.999 96.5483 117.173C96.5483 117.347 96.616 117.514 96.7371 117.639C96.8582 117.764 97.0233 117.837 97.1975 117.843Z" fill="black"/>
<path d="M88.9194 120.74C89.0936 120.734 89.2586 120.66 89.3797 120.535C89.5008 120.41 89.5685 120.243 89.5685 120.069C89.5685 119.895 89.5008 119.728 89.3797 119.603C89.2586 119.478 89.0936 119.405 88.9194 119.399C88.7452 119.405 88.5801 119.478 88.459 119.603C88.338 119.728 88.2703 119.895 88.2703 120.069C88.2703 120.243 88.338 120.41 88.459 120.535C88.5801 120.66 88.7452 120.734 88.9194 120.74Z" fill="black"/>
<path d="M95.2624 124.816C95.4366 124.81 95.6016 124.737 95.7227 124.612C95.8438 124.487 95.9115 124.32 95.9115 124.146C95.9115 123.972 95.8438 123.805 95.7227 123.68C95.6016 123.555 95.4366 123.481 95.2624 123.475C95.0882 123.481 94.9232 123.555 94.8021 123.68C94.681 123.805 94.6133 123.972 94.6133 124.146C94.6133 124.32 94.681 124.487 94.8021 124.612C94.9232 124.737 95.0882 124.81 95.2624 124.816Z" fill="black"/>
<path d="M106.335 125.942C106.509 125.936 106.675 125.863 106.796 125.738C106.917 125.613 106.984 125.446 106.984 125.272C106.984 125.098 106.917 124.931 106.796 124.806C106.675 124.681 106.509 124.608 106.335 124.602C106.161 124.608 105.996 124.681 105.875 124.806C105.754 124.931 105.686 125.098 105.686 125.272C105.686 125.446 105.754 125.613 105.875 125.738C105.996 125.863 106.161 125.936 106.335 125.942Z" fill="black"/>
<path d="M117.839 125.674C118.013 125.668 118.178 125.595 118.299 125.47C118.42 125.345 118.488 125.178 118.488 125.004C118.488 124.83 118.42 124.663 118.299 124.538C118.178 124.413 118.013 124.339 117.839 124.333C117.664 124.339 117.499 124.413 117.378 124.538C117.257 124.663 117.189 124.83 117.189 125.004C117.189 125.178 117.257 125.345 117.378 125.47C117.499 125.595 117.664 125.668 117.839 125.674Z" fill="black"/>
<path d="M129.449 124.87C129.623 124.864 129.788 124.79 129.909 124.665C130.031 124.54 130.098 124.373 130.098 124.199C130.098 124.025 130.031 123.858 129.909 123.733C129.788 123.608 129.623 123.535 129.449 123.529C129.275 123.535 129.11 123.608 128.989 123.733C128.868 123.858 128.8 124.025 128.8 124.199C128.8 124.373 128.868 124.54 128.989 124.665C129.11 124.79 129.275 124.864 129.449 124.87Z" fill="black"/>
<path d="M139.877 122.51C140.051 122.504 140.216 122.43 140.337 122.305C140.458 122.18 140.526 122.013 140.526 121.839C140.526 121.665 140.458 121.498 140.337 121.373C140.216 121.248 140.051 121.175 139.877 121.169C139.703 121.175 139.538 121.248 139.417 121.373C139.296 121.498 139.228 121.665 139.228 121.839C139.228 122.013 139.296 122.18 139.417 122.305C139.538 122.43 139.703 122.504 139.877 122.51Z" fill="black"/>
<path d="M139.716 119.935C139.89 119.929 140.055 119.856 140.176 119.731C140.297 119.606 140.365 119.439 140.365 119.265C140.365 119.091 140.297 118.924 140.176 118.799C140.055 118.674 139.89 118.6 139.716 118.594C139.542 118.6 139.377 118.674 139.256 118.799C139.135 118.924 139.067 119.091 139.067 119.265C139.067 119.439 139.135 119.606 139.256 119.731C139.377 119.856 139.542 119.929 139.716 119.935Z" fill="black"/>
<path d="M131.115 117.039C131.29 117.033 131.455 116.96 131.576 116.834C131.697 116.709 131.764 116.542 131.764 116.368C131.764 116.195 131.697 116.027 131.576 115.902C131.455 115.777 131.29 115.704 131.115 115.698C130.941 115.704 130.776 115.777 130.655 115.902C130.534 116.027 130.466 116.195 130.466 116.368C130.466 116.542 130.534 116.709 130.655 116.834C130.776 116.96 130.941 117.033 131.115 117.039Z" fill="black"/>
<path d="M22.2891 2.41528C23.2648 3.83208 24.1385 5.30007 25.0146 6.76642L26.3038 8.98013L27.5755 11.2109C27.0094 10.5634 26.4857 9.88018 26.0077 9.1655C25.521 8.45823 25.0679 7.72976 24.6291 6.99345C23.7489 5.52045 22.9672 3.99107 22.2891 2.41528Z" fill="black"/>
<path d="M29.1621 0.0554199C29.7566 1.43356 30.2732 2.84392 30.7093 4.27983C31.1648 5.70975 31.5386 7.16433 31.8288 8.63655C31.2334 7.25877 30.7168 5.84836 30.2817 4.41214C29.8271 2.98194 29.4533 1.52742 29.1621 0.0554199Z" fill="black"/>
<path d="M18.0559 7.3031C19.2014 8.16127 20.2952 9.08604 21.3316 10.0726C22.382 11.0444 23.3734 12.0778 24.3005 13.1673C23.1544 12.3099 22.0606 11.3851 21.0248 10.3978C19.9751 9.42532 18.9838 8.39196 18.0559 7.3031Z" fill="black"/>
<path d="M26.1439 57.6225C24.9773 56.3765 23.8604 55.0862 22.7502 53.7888C21.6535 52.4804 20.5888 51.1444 19.5563 49.7809C18.5106 48.4202 17.545 47.0001 16.6642 45.5278C16.2119 44.7831 15.8242 44.0013 15.5053 43.1907C15.3372 42.7658 15.2244 42.3211 15.1697 41.8675C15.1535 41.6426 15.1511 41.4169 15.1626 41.1917L15.178 40.5502C15.1794 40.4878 15.1983 40.4271 15.2326 40.3749L15.2441 40.3575C15.4358 40.0049 15.556 39.6182 15.5981 39.2193C15.6594 38.782 15.6969 38.3417 15.7104 37.9003C15.7345 37.0036 15.7092 36.1063 15.6348 35.2124L15.6345 35.2083C15.6331 35.1897 15.6331 35.1711 15.6345 35.1526C15.6703 34.7992 15.6531 34.4425 15.5835 34.0941C15.5484 33.9264 15.4952 33.763 15.4251 33.6067C15.3604 33.4629 15.2768 33.3282 15.1766 33.2063L15.1587 33.1868C14.797 32.7865 14.3182 32.51 13.7902 32.3964C13.2373 32.2643 12.6675 32.2171 12.1003 32.2566C11.5237 32.2969 10.9547 32.4122 10.408 32.5995C9.86248 32.7722 9.35583 33.0491 8.91627 33.4148C8.8242 33.5159 8.71428 33.6065 8.63393 33.7152C8.55357 33.8249 8.48053 33.9396 8.41525 34.0588C8.35031 34.1569 8.31351 34.2708 8.30882 34.3883C8.30413 34.5057 8.33175 34.6222 8.38867 34.7251C8.56816 34.9155 8.80901 35.0367 9.06907 35.0677C9.35488 35.1251 9.64647 35.1487 9.9378 35.1378C11.1342 35.1674 12.3154 34.8657 13.3506 34.2664C12.3466 34.9592 11.1623 35.3456 9.94209 35.3785C9.63426 35.4075 9.32408 35.4003 9.01793 35.3572C8.67499 35.3321 8.35311 35.1826 8.11305 34.9369C7.99264 34.7852 7.9321 34.5947 7.94288 34.4014C7.9532 34.2281 7.99567 34.0583 8.06814 33.9005C8.14024 33.7536 8.22286 33.6122 8.31536 33.4773C8.41471 33.3496 8.52119 33.2277 8.63427 33.112C9.10261 32.6899 9.64911 32.3633 10.243 32.1504C10.8248 31.9272 11.4333 31.7809 12.0531 31.7153C12.6822 31.6452 13.3185 31.6788 13.9367 31.8146C14.593 31.9483 15.1903 32.2854 15.6433 32.7779L15.6254 32.7585C15.782 32.9295 15.9116 33.1233 16.0096 33.3333C16.1028 33.5302 16.1746 33.7365 16.2236 33.9487C16.3171 34.3619 16.3449 34.7871 16.3061 35.209L16.3058 35.1494C16.3885 36.0708 16.4203 36.9961 16.401 37.921C16.3894 38.3903 16.3522 38.8586 16.2895 39.3238C16.2374 39.8339 16.073 40.3262 15.8078 40.7654L15.8739 40.5728L15.8547 41.2083C15.8428 41.4084 15.8431 41.6089 15.8556 41.809C15.9029 42.2016 15.9997 42.5866 16.1436 42.9551C16.4481 43.7311 16.8108 44.4831 17.2287 45.2047C18.0576 46.672 19.0125 48.0786 19.9789 49.4751C20.9506 50.8695 21.9744 52.2297 23.0075 53.5835C24.0295 54.9466 25.0927 56.2785 26.1439 57.6225Z" fill="#020202"/>
<path d="M13.5032 34.1694C13.124 34.5544 12.7881 34.9796 12.5016 35.4374C12.2396 35.8736 12.0462 36.3474 11.9279 36.8421C11.8102 37.3381 11.7674 37.8489 11.8009 38.3575C11.8417 38.8973 11.9312 39.4323 12.0683 39.956C11.6734 39.5298 11.395 39.0093 11.26 38.4447C11.1082 37.8664 11.1032 37.2594 11.2454 36.6786C11.3821 36.0953 11.6641 35.5557 12.0654 35.1101C12.4493 34.6711 12.9466 34.3457 13.5032 34.1694Z" fill="#020202"/>
</svg>
