<svg width="30" height="30" viewBox="0 0 30 30" fill="none" xmlns="http://www.w3.org/2000/svg">
<path d="M9.79546 3.06111L9.80829 3.04454L9.81339 3.02422L9.81346 3.02394L9.86322 2.82555L9.6761 2.90812C7.47614 3.87881 5.58178 5.4302 4.19662 7.39577L4.19662 7.39577C2.8114 9.36162 1.98752 11.6674 1.81354 14.0656L1.80576 14.1729H1.91328H6.29969H6.39632L6.39963 14.0763C6.55588 9.51781 7.84512 5.57999 9.79546 3.06111ZM1.91349 15.8367V15.9287L1.81369 15.9436C1.98773 18.342 2.81162 20.6477 4.19677 22.6135L4.27851 22.5559L4.19677 22.6135C5.58199 24.5791 7.47629 26.1304 9.67624 27.1012L9.69553 27.1097H9.71661H9.71689H9.92081L9.79595 26.9485C7.84561 24.43 6.55634 20.4921 6.40012 15.9333L6.39681 15.8367H6.30018H1.91349ZM14.1634 15.9367V15.8367H14.0634H8.17658H8.07262L8.07665 15.9406C8.1955 19.0006 8.88819 21.8129 9.94648 23.9722C11.0029 26.1278 12.4329 27.65 14.0366 28.0963L14.1634 28.1316V28V15.9367ZM14.0634 14.1632L14.1634 14.1632V14.0632V2.0002V1.86858L14.0366 1.90386C12.4329 2.35007 11.0029 3.87226 9.94646 6.02777C8.88817 8.18707 8.19547 10.9994 8.07665 14.0596L8.07262 14.1635L8.17658 14.1635L14.0634 14.1632ZM15.9632 1.90353L15.8365 1.86857V1.99993V14.0562V14.1562H15.9365H21.8231H21.9267L21.923 14.0526C21.8126 10.9925 21.1199 8.18009 20.0596 6.0216C19.0011 3.86691 17.5669 2.34636 15.9632 1.90353ZM15.8365 27.9995V28.1311L15.9634 28.0958C17.567 27.6496 18.997 26.1274 20.0535 23.9718C21.1118 21.8125 21.8045 19.0001 21.9233 15.9401L21.9273 15.8362H21.8234H15.9365H15.8365V15.9362V27.9995ZM20.1908 26.9383L20.0693 27.0952L20.2677 27.0995L20.2809 27.0998L20.3031 27.1003L20.3234 27.0913C22.5236 26.1206 24.418 24.5692 25.8032 22.6034C27.1884 20.6378 28.012 18.332 28.1862 15.9338L28.194 15.8265H28.0865H23.6866H23.59L23.5866 15.9231C23.4304 20.4816 22.1412 24.4194 20.1908 26.9383ZM23.5998 14.0662L23.6031 14.1627L23.6997 14.1628L28.0864 14.163L28.1941 14.163L28.1862 14.0557C28.0102 11.6591 27.1855 9.35531 25.8006 7.39165L25.7189 7.44929L25.8006 7.39165C24.4155 5.428 22.5222 3.87803 20.3234 2.90811L20.2041 3.06098C22.1543 5.56949 23.4436 9.50727 23.5998 14.0662ZM4.46402 4.46401C7.25785 1.66983 11.048 0.1 14.9996 0.1H15.0003C18.9505 0.104349 22.7377 1.67579 25.5311 4.46894C28.3244 7.2621 29.8956 11.0495 29.9 14.9998C29.9 18.9519 28.3302 22.7415 25.536 25.536C22.7414 28.3302 18.9515 29.9 14.9996 29.9C11.0481 29.9 7.2582 28.3302 4.46402 25.536C1.66982 22.7414 0.1 18.9515 0.1 14.9996C0.1 11.0481 1.67017 7.25821 4.46402 4.46401Z" fill="white" stroke="#B2D2A6" stroke-width="0.2"/>
</svg>
